<svg width="24" height="24" viewBox="0 0 24 24" fill="none" xmlns="http://www.w3.org/2000/svg">
<path d="M11.8834 3.00697L12 3.00024C12.5128 3.00024 12.9355 3.38628 12.9933 3.88362L13 4.00024V11.0002H20C20.5128 11.0002 20.9355 11.3862 20.9933 11.8836L21 12.0002C21 12.513 20.614 12.9357 20.1166 12.9935L20 13.0002H13V20.0002C13 20.513 12.614 20.9357 12.1166 20.9935L12 21.0002C11.4872 21.0002 11.0645 20.6142 11.0067 20.1168L11 20.0002V13.0002H4C3.48716 13.0002 3.06449 12.6142 3.00673 12.1168L3 12.0002C3 11.4874 3.38604 11.0647 3.88338 11.0069L4 11.0002H11V4.00024C11 3.4874 11.386 3.06473 11.8834 3.00697Z" fill="white"/>
</svg>
