<svg width="24" height="25" viewBox="0 0 24 25" fill="none" xmlns="http://www.w3.org/2000/svg">
<g id="Album">
<path id="Shape" d="M10 9.62402C10 8.51945 10.8954 7.62402 12 7.62402H16C17.1046 7.62402 18 8.51945 18 9.62402V10.624C18 11.7286 17.1046 12.624 16 12.624H12C10.8954 12.624 10 11.7286 10 10.624V9.62402ZM12 9.12402C11.7239 9.12402 11.5 9.34788 11.5 9.62402V10.624C11.5 10.9002 11.7239 11.124 12 11.124H16C16.2761 11.124 16.5 10.9002 16.5 10.624V9.62402C16.5 9.34788 16.2761 9.12402 16 9.12402H12ZM4 4.62402C2.89543 4.62402 2 5.51945 2 6.62402V18.624C2 19.7286 2.89543 20.624 4 20.624H20C21.1046 20.624 22 19.7286 22 18.624V6.62402C22 5.51945 21.1046 4.62402 20 4.62402H4ZM20 6.12402C20.2761 6.12402 20.5 6.34788 20.5 6.62402V18.624C20.5 18.9002 20.2761 19.124 20 19.124H7.5V6.12402H20ZM4 6.12402H6V19.124H4C3.72386 19.124 3.5 18.9002 3.5 18.624V6.62402C3.5 6.34788 3.72386 6.12402 4 6.12402Z" fill="#212121"/>
</g>
</svg>
