<svg width="68" height="74" viewBox="0 0 68 74" fill="none" xmlns="http://www.w3.org/2000/svg">
<path d="M61.537 14.45L39.757 1.87333C36.2004 -0.180005 31.8004 -0.180005 28.207 1.87333L6.4637 14.45C2.90703 16.5033 0.707031 20.3167 0.707031 24.46V49.54C0.707031 53.6467 2.90703 57.46 6.4637 59.55L28.2437 72.1267C31.8004 74.18 36.2004 74.18 39.7937 72.1267L61.5737 59.55C65.1304 57.4967 67.3304 53.6833 67.3304 49.54V24.46C67.2937 20.3167 65.0937 16.54 61.537 14.45ZM31.2504 21.4167C31.2504 19.9133 32.497 18.6667 34.0004 18.6667C35.5037 18.6667 36.7504 19.9133 36.7504 21.4167V40.6667C36.7504 42.17 35.5037 43.4167 34.0004 43.4167C32.497 43.4167 31.2504 42.17 31.2504 40.6667V21.4167ZM37.3737 53.9767C37.1904 54.4167 36.9337 54.82 36.6037 55.1867C35.907 55.8833 34.9904 56.25 34.0004 56.25C33.5237 56.25 33.047 56.14 32.607 55.9567C32.1304 55.7733 31.7637 55.5167 31.397 55.1867C31.067 54.82 30.8104 54.4167 30.5904 53.9767C30.407 53.5367 30.3337 53.06 30.3337 52.5833C30.3337 51.63 30.7004 50.6767 31.397 49.98C31.7637 49.65 32.1304 49.3933 32.607 49.21C33.9637 48.6233 35.577 48.9533 36.6037 49.98C36.9337 50.3467 37.1904 50.7133 37.3737 51.19C37.557 51.63 37.667 52.1067 37.667 52.5833C37.667 53.06 37.557 53.5367 37.3737 53.9767Z" fill="#292D32"/>
</svg>
