<svg width="661" height="235" viewBox="0 0 661 235" fill="none" xmlns="http://www.w3.org/2000/svg">
    <path
        d="M102.912 0.519997V85H86.912V40.968L87.808 16.264H87.552L64.128 85H49.664L26.368 16.264H26.112L27.008 40.968V85H11.008V0.519997H36.608L51.84 46.6L57.216 65.672H57.472L62.976 46.728L78.08 0.519997H102.912ZM159.071 44.168C159.071 40.4987 158.004 37.64 155.871 35.592C153.823 33.544 151.092 32.52 147.679 32.52C144.522 32.52 141.748 33.3307 139.359 34.952C136.97 36.5733 135.22 39.2613 134.111 43.016L119.135 38.408C120.586 32.776 123.743 28.2533 128.607 24.84C133.556 21.4267 140.17 19.72 148.447 19.72C154.079 19.72 158.986 20.616 163.167 22.408C167.348 24.1147 170.591 26.7173 172.895 30.216C175.284 33.7147 176.479 38.1093 176.479 43.4V69.384C176.479 72.6267 178.015 74.248 181.087 74.248C182.538 74.248 183.903 74.0347 185.183 73.608L184.159 84.488C181.94 85.5973 179.167 86.152 175.839 86.152C172.852 86.152 170.164 85.64 167.775 84.616C165.386 83.592 163.508 82.056 162.143 80.008C160.778 77.8747 160.095 75.2293 160.095 72.072V71.56L163.167 71.048C162.655 74.2907 161.247 77.064 158.943 79.368C156.639 81.5867 153.823 83.2933 150.495 84.488C147.252 85.6827 143.882 86.28 140.383 86.28C136.031 86.28 132.276 85.64 129.119 84.36C125.962 82.9947 123.53 81.032 121.823 78.472C120.116 75.912 119.263 72.7547 119.263 69C119.263 64.2213 120.799 60.3387 123.871 57.352C126.943 54.28 131.338 52.1893 137.055 51.08L161.119 46.216L160.991 57.096L145.631 60.168C142.73 60.7653 140.511 61.576 138.975 62.6C137.524 63.5387 136.799 65.1173 136.799 67.336C136.799 69.4693 137.567 71.0907 139.103 72.2C140.724 73.3093 142.644 73.864 144.863 73.864C146.655 73.864 148.404 73.6507 150.111 73.224C151.818 72.7973 153.354 72.1147 154.719 71.176C156.084 70.2373 157.151 68.9573 157.919 67.336C158.687 65.7147 159.071 63.752 159.071 61.448V44.168ZM255.599 5.768L257.647 18.312C257.306 18.312 256.922 18.312 256.495 18.312C256.154 18.2267 255.77 18.184 255.343 18.184C251.418 18.184 248.474 19.08 246.511 20.872C244.548 22.5787 243.567 24.968 243.567 28.04L236.399 25.096C236.399 21.6827 237.082 18.5253 238.447 15.624C239.812 12.6373 241.818 10.248 244.463 8.45599C247.194 6.664 250.436 5.768 254.191 5.768C254.362 5.768 254.575 5.768 254.831 5.768C255.087 5.768 255.343 5.768 255.599 5.768ZM234.607 72.968C241.519 72.968 246.852 74.4613 250.607 77.448C254.362 80.4347 256.239 84.616 256.239 89.992C256.239 94.856 254.831 98.952 252.015 102.28C249.199 105.693 245.231 108.253 240.111 109.96C235.076 111.667 229.231 112.52 222.575 112.52C211.567 112.52 203.503 110.984 198.383 107.912C193.348 104.84 190.831 100.829 190.831 95.88C190.831 92.3813 192.154 89.4373 194.799 87.048C197.53 84.6587 202.01 83.336 208.239 83.08L207.599 85.128C203.162 84.36 199.748 82.9093 197.359 80.776C195.055 78.5573 193.903 75.528 193.903 71.688C193.903 67.7627 195.396 64.5627 198.383 62.088C201.455 59.528 205.594 58.0347 210.799 57.608L218.479 61.192H216.687C213.018 61.448 210.415 62.216 208.879 63.496C207.428 64.6907 206.703 66.056 206.703 67.592C206.703 69.384 207.386 70.7493 208.751 71.688C210.202 72.5413 212.25 72.968 214.895 72.968H234.607ZM222.703 100.488C227.14 100.488 230.767 100.104 233.583 99.336C236.484 98.568 238.618 97.5867 239.983 96.392C241.434 95.1973 242.159 93.8747 242.159 92.424C242.159 90.8027 241.519 89.48 240.239 88.456C238.959 87.5173 236.655 87.048 233.327 87.048H211.695C209.647 87.048 207.94 87.56 206.575 88.584C205.295 89.608 204.655 91.016 204.655 92.808C204.655 95.1973 206.234 97.0747 209.391 98.44C212.634 99.8053 217.071 100.488 222.703 100.488ZM222.831 19.72C228.804 19.72 233.967 20.616 238.319 22.408C242.756 24.1147 246.127 26.5893 248.431 29.832C250.82 33.0747 252.015 36.9573 252.015 41.48C252.015 45.9173 250.82 49.7573 248.431 53C246.127 56.2427 242.756 58.76 238.319 60.552C233.967 62.2587 228.804 63.112 222.831 63.112C213.359 63.112 206.106 61.192 201.071 57.352C196.122 53.4267 193.647 48.136 193.647 41.48C193.647 36.9573 194.799 33.0747 197.103 29.832C199.492 26.5893 202.863 24.1147 207.215 22.408C211.567 20.616 216.772 19.72 222.831 19.72ZM222.831 30.728C219.418 30.728 216.602 31.6667 214.383 33.544C212.164 35.4213 211.055 38.024 211.055 41.352C211.055 44.68 212.164 47.3253 214.383 49.288C216.602 51.1653 219.418 52.104 222.831 52.104C226.244 52.104 229.018 51.1653 231.151 49.288C233.37 47.3253 234.479 44.68 234.479 41.352C234.479 38.024 233.37 35.4213 231.151 33.544C229.018 31.6667 226.244 30.728 222.831 30.728ZM266.841 85V21H282.585L283.609 40.2L281.433 38.152C282.457 33.9707 284.078 30.5147 286.297 27.784C288.516 25.0533 291.204 23.048 294.361 21.768C297.604 20.4027 301.145 19.72 304.985 19.72C309.422 19.72 313.348 20.5733 316.761 22.28C320.26 23.9867 322.99 26.5893 324.953 30.088C327.001 33.5013 328.025 37.8107 328.025 43.016V85H310.489V48.008C310.489 42.5467 309.422 38.792 307.289 36.744C305.156 34.6107 302.382 33.544 298.969 33.544C296.58 33.544 294.233 34.1413 291.929 35.336C289.71 36.4453 287.876 38.28 286.425 40.84C285.06 43.4 284.377 46.8133 284.377 51.08V85H266.841ZM382.571 44.168C382.571 40.4987 381.504 37.64 379.371 35.592C377.323 33.544 374.592 32.52 371.179 32.52C368.022 32.52 365.248 33.3307 362.859 34.952C360.47 36.5733 358.72 39.2613 357.611 43.016L342.635 38.408C344.086 32.776 347.243 28.2533 352.107 24.84C357.056 21.4267 363.67 19.72 371.947 19.72C377.579 19.72 382.486 20.616 386.667 22.408C390.848 24.1147 394.091 26.7173 396.395 30.216C398.784 33.7147 399.979 38.1093 399.979 43.4V69.384C399.979 72.6267 401.515 74.248 404.587 74.248C406.038 74.248 407.403 74.0347 408.683 73.608L407.659 84.488C405.44 85.5973 402.667 86.152 399.339 86.152C396.352 86.152 393.664 85.64 391.275 84.616C388.886 83.592 387.008 82.056 385.643 80.008C384.278 77.8747 383.595 75.2293 383.595 72.072V71.56L386.667 71.048C386.155 74.2907 384.747 77.064 382.443 79.368C380.139 81.5867 377.323 83.2933 373.995 84.488C370.752 85.6827 367.382 86.28 363.883 86.28C359.531 86.28 355.776 85.64 352.619 84.36C349.462 82.9947 347.03 81.032 345.323 78.472C343.616 75.912 342.763 72.7547 342.763 69C342.763 64.2213 344.299 60.3387 347.371 57.352C350.443 54.28 354.838 52.1893 360.555 51.08L384.619 46.216L384.491 57.096L369.131 60.168C366.23 60.7653 364.011 61.576 362.475 62.6C361.024 63.5387 360.299 65.1173 360.299 67.336C360.299 69.4693 361.067 71.0907 362.603 72.2C364.224 73.3093 366.144 73.864 368.363 73.864C370.155 73.864 371.904 73.6507 373.611 73.224C375.318 72.7973 376.854 72.1147 378.219 71.176C379.584 70.2373 380.651 68.9573 381.419 67.336C382.187 65.7147 382.571 63.752 382.571 61.448V44.168ZM528.352 85H510.048L503.008 64.392H470.624L463.584 85H445.536L476.384 0.519997H497.504L528.352 85ZM474.592 51.336H499.04L486.752 14.472L474.592 51.336ZM558.547 0.519997V85H540.883V0.519997H558.547Z"
        fill="#162F20" />
    <rect x="4" y="155" width="340" height="76" rx="38" stroke="#F76700" stroke-width="8" />
    <path
        d="M34 190C32.3431 190 31 191.343 31 193C31 194.657 32.3431 196 34 196V190ZM315.121 195.121C316.293 193.95 316.293 192.05 315.121 190.879L296.029 171.787C294.858 170.615 292.958 170.615 291.787 171.787C290.615 172.958 290.615 174.858 291.787 176.029L308.757 193L291.787 209.971C290.615 211.142 290.615 213.042 291.787 214.213C292.958 215.385 294.858 215.385 296.029 214.213L315.121 195.121ZM34 196H313V190H34V196Z"
        fill="#162F20" />
</svg>