<svg xmlns="http://www.w3.org/2000/svg" width="19" height="19" viewBox="0 0 19 19" fill="none">
  <path d="M10.0186 17.1093C8.96113 17.1093 7.89613 16.7043 7.09363 15.9018L3.69613 12.5043C2.87113 11.6793 2.43613 10.5393 2.48863 9.37678L2.66863 5.62678C2.75113 3.83428 4.16863 2.41678 5.96863 2.32678L9.71863 2.14678C10.8811 2.10178 12.0211 2.52928 12.8461 3.35428L16.2436 6.75178C17.8561 8.36428 17.8561 10.9968 16.2436 12.6093L12.9511 15.9018C12.1411 16.7043 11.0836 17.1093 10.0186 17.1093ZM4.49113 11.7018L7.88863 15.0993C8.45863 15.6693 9.21613 15.9843 10.0186 15.9843C10.8211 15.9843 11.5786 15.6693 12.1486 15.0993L15.4411 11.8068C16.0111 11.2368 16.3261 10.4793 16.3261 9.67678C16.3261 8.87428 16.0111 8.11678 15.4411 7.54678L12.0436 4.14928C11.4436 3.54928 10.6111 3.22678 9.77113 3.27178L6.02113 3.45178C4.79863 3.50428 3.84613 4.45678 3.78613 5.67178L3.60613 9.42178C3.56863 10.2693 3.89113 11.1018 4.49113 11.7018Z" fill="#131117"/>
  <path d="M8.0918 10.1875C6.7493 10.1875 5.6543 9.0925 5.6543 7.75C5.6543 6.4075 6.7493 5.3125 8.0918 5.3125C9.4343 5.3125 10.5293 6.4075 10.5293 7.75C10.5293 9.0925 9.4343 10.1875 8.0918 10.1875ZM8.0918 6.4375C7.3718 6.4375 6.7793 7.03 6.7793 7.75C6.7793 8.47 7.3718 9.0625 8.0918 9.0625C8.8118 9.0625 9.4043 8.47 9.4043 7.75C9.4043 7.03 8.8118 6.4375 8.0918 6.4375Z" fill="#131117"/>
</svg>
