 <svg width="20" height="20" viewBox="0 0 20 20" fill="none" xmlns="http://www.w3.org/2000/svg">
<path d="M18.3332 2.70837H1.6665C1.32484 2.70837 1.0415 2.42504 1.0415 2.08337C1.0415 1.74171 1.32484 1.45837 1.6665 1.45837H18.3332C18.6748 1.45837 18.9582 1.74171 18.9582 2.08337C18.9582 2.42504 18.6748 2.70837 18.3332 2.70837Z" fill="#292D32"/>
<path d="M3.05811 2.08337V12.0584C3.05811 12.875 3.44144 13.65 4.09977 14.1417L8.44144 17.3917C9.36644 18.0834 10.6414 18.0834 11.5664 17.3917L15.9081 14.1417C16.5664 13.65 16.9498 12.875 16.9498 12.0584V2.08337H3.05811ZM13.3331 11.4584H6.66644C6.32477 11.4584 6.04144 11.175 6.04144 10.8334C6.04144 10.4917 6.32477 10.2084 6.66644 10.2084H13.3331C13.6748 10.2084 13.9581 10.4917 13.9581 10.8334C13.9581 11.175 13.6748 11.4584 13.3331 11.4584ZM13.3331 7.29171H6.66644C6.32477 7.29171 6.04144 7.00837 6.04144 6.66671C6.04144 6.32504 6.32477 6.04171 6.66644 6.04171H13.3331C13.6748 6.04171 13.9581 6.32504 13.9581 6.66671C13.9581 7.00837 13.6748 7.29171 13.3331 7.29171Z" fill="#292D32"/>
</svg>
