<svg width="20" height="20" viewBox="0 0 20 20" fill="none" xmlns="http://www.w3.org/2000/svg">
<path d="M9.99976 18.5418C9.31643 18.5418 8.63309 18.3251 8.06642 17.9001L3.72476 14.6501C2.91643 14.0418 2.43311 13.0751 2.43311 12.0668V1.4668H17.5664V12.0668C17.5664 13.0751 17.0831 14.0418 16.2748 14.6501L11.9331 17.9001C11.3664 18.3251 10.6831 18.5418 9.99976 18.5418ZM3.68311 2.70847V12.0585C3.68311 12.6751 3.98309 13.2668 4.47476 13.6418L8.81642 16.8918C9.51642 17.4168 10.4914 17.4168 11.1914 16.8918L15.5331 13.6418C16.0248 13.2668 16.3248 12.6751 16.3248 12.0585V2.70847H3.68311Z" fill="#4B4B4E"/>
<path d="M18.3332 2.7085H1.6665C1.32484 2.7085 1.0415 2.42516 1.0415 2.0835C1.0415 1.74183 1.32484 1.4585 1.6665 1.4585H18.3332C18.6748 1.4585 18.9582 1.74183 18.9582 2.0835C18.9582 2.42516 18.6748 2.7085 18.3332 2.7085Z" fill="#4B4B4E"/>
<path d="M13.3332 7.2915H6.6665C6.32484 7.2915 6.0415 7.00817 6.0415 6.6665C6.0415 6.32484 6.32484 6.0415 6.6665 6.0415H13.3332C13.6748 6.0415 13.9582 6.32484 13.9582 6.6665C13.9582 7.00817 13.6748 7.2915 13.3332 7.2915Z" fill="#4B4B4E"/>
<path d="M13.3332 11.4585H6.6665C6.32484 11.4585 6.0415 11.1752 6.0415 10.8335C6.0415 10.4918 6.32484 10.2085 6.6665 10.2085H13.3332C13.6748 10.2085 13.9582 10.4918 13.9582 10.8335C13.9582 11.1752 13.6748 11.4585 13.3332 11.4585Z" fill="#4B4B4E"/>
</svg>
