<svg width="20" height="20" viewBox="0 0 20 20" fill="none" xmlns="http://www.w3.org/2000/svg">
<path d="M18.3337 2.7085H1.66699C1.32533 2.7085 1.04199 2.42516 1.04199 2.0835C1.04199 1.74183 1.32533 1.4585 1.66699 1.4585H18.3337C18.6753 1.4585 18.9587 1.74183 18.9587 2.0835C18.9587 2.42516 18.6753 2.7085 18.3337 2.7085Z" fill="#6DE9A1"/>
<path d="M3.05859 2.0835V12.0585C3.05859 12.8752 3.44193 13.6502 4.10026 14.1418L8.44193 17.3918C9.36693 18.0835 10.6419 18.0835 11.5669 17.3918L15.9086 14.1418C16.5669 13.6502 16.9503 12.8752 16.9503 12.0585V2.0835H3.05859ZM13.3336 11.4585H6.66693C6.32526 11.4585 6.04193 11.1752 6.04193 10.8335C6.04193 10.4918 6.32526 10.2085 6.66693 10.2085H13.3336C13.6753 10.2085 13.9586 10.4918 13.9586 10.8335C13.9586 11.1752 13.6753 11.4585 13.3336 11.4585ZM13.3336 7.29183H6.66693C6.32526 7.29183 6.04193 7.0085 6.04193 6.66683C6.04193 6.32516 6.32526 6.04183 6.66693 6.04183H13.3336C13.6753 6.04183 13.9586 6.32516 13.9586 6.66683C13.9586 7.0085 13.6753 7.29183 13.3336 7.29183Z" fill="#6DE9A1"/>
</svg>
