<svg width="42" height="42" viewBox="0 0 42 42" fill="none" xmlns="http://www.w3.org/2000/svg">
<path d="M17.5 8.75H24.5C24.5 6.817 22.933 5.25 21 5.25C19.067 5.25 17.5 6.817 17.5 8.75ZM14.875 8.75C14.875 5.36725 17.6173 2.625 21 2.625C24.3827 2.625 27.125 5.36725 27.125 8.75H37.1875C37.9124 8.75 38.5 9.33763 38.5 10.0625C38.5 10.7874 37.9124 11.375 37.1875 11.375H34.8791L32.8281 32.5696C32.5026 35.9335 29.6756 38.5 26.296 38.5H15.704C12.3244 38.5 9.49751 35.9335 9.17198 32.5696L7.12089 11.375H4.8125C4.08763 11.375 3.5 10.7874 3.5 10.0625C3.5 9.33763 4.08763 8.75 4.8125 8.75H14.875ZM18.375 17.0625C18.375 16.3376 17.7874 15.75 17.0625 15.75C16.3376 15.75 15.75 16.3376 15.75 17.0625V30.1875C15.75 30.9124 16.3376 31.5 17.0625 31.5C17.7874 31.5 18.375 30.9124 18.375 30.1875V17.0625ZM24.9375 15.75C24.2126 15.75 23.625 16.3376 23.625 17.0625V30.1875C23.625 30.9124 24.2126 31.5 24.9375 31.5C25.6624 31.5 26.25 30.9124 26.25 30.1875V17.0625C26.25 16.3376 25.6624 15.75 24.9375 15.75Z" fill="#F04438"/>
</svg>
