<svg width="24" height="25" viewBox="0 0 24 25" fill="none" xmlns="http://www.w3.org/2000/svg">
<path d="M16.7502 3.72406V2.16406C16.7502 1.75406 16.4102 1.41406 16.0002 1.41406C15.5902 1.41406 15.2502 1.75406 15.2502 2.16406V3.66406H8.75023V2.16406C8.75023 1.75406 8.41023 1.41406 8.00023 1.41406C7.59023 1.41406 7.25023 1.75406 7.25023 2.16406V3.72406C4.55023 3.97406 3.24023 5.58406 3.04023 7.97406C3.02023 8.26406 3.26023 8.50406 3.54023 8.50406H20.4602C20.7502 8.50406 20.9902 8.25406 20.9602 7.97406C20.7602 5.58406 19.4502 3.97406 16.7502 3.72406Z" fill="#4B4B4E"/>
<path d="M20 10.0039H4C3.45 10.0039 3 10.4539 3 11.0039V17.1639C3 20.1639 4.5 22.1639 8 22.1639H16C19.5 22.1639 21 20.1639 21 17.1639V11.0039C21 10.4539 20.55 10.0039 20 10.0039ZM9.21 18.3739C9.16 18.4139 9.11 18.4639 9.06 18.4939C9 18.5339 8.94 18.5639 8.88 18.5839C8.82 18.6139 8.76 18.6339 8.7 18.6439C8.63 18.6539 8.57 18.6639 8.5 18.6639C8.37 18.6639 8.24 18.6339 8.12 18.5839C7.99 18.5339 7.89 18.4639 7.79 18.3739C7.61 18.1839 7.5 17.9239 7.5 17.6639C7.5 17.4039 7.61 17.1439 7.79 16.9539C7.89 16.8639 7.99 16.7939 8.12 16.7439C8.3 16.6639 8.5 16.6439 8.7 16.6839C8.76 16.6939 8.82 16.7139 8.88 16.7439C8.94 16.7639 9 16.7939 9.06 16.8339C9.11 16.8739 9.16 16.9139 9.21 16.9539C9.39 17.1439 9.5 17.4039 9.5 17.6639C9.5 17.9239 9.39 18.1839 9.21 18.3739ZM9.21 14.8739C9.02 15.0539 8.76 15.1639 8.5 15.1639C8.24 15.1639 7.98 15.0539 7.79 14.8739C7.61 14.6839 7.5 14.4239 7.5 14.1639C7.5 13.9039 7.61 13.6439 7.79 13.4539C8.07 13.1739 8.51 13.0839 8.88 13.2439C9.01 13.2939 9.12 13.3639 9.21 13.4539C9.39 13.6439 9.5 13.9039 9.5 14.1639C9.5 14.4239 9.39 14.6839 9.21 14.8739ZM12.71 18.3739C12.52 18.5539 12.26 18.6639 12 18.6639C11.74 18.6639 11.48 18.5539 11.29 18.3739C11.11 18.1839 11 17.9239 11 17.6639C11 17.4039 11.11 17.1439 11.29 16.9539C11.66 16.5839 12.34 16.5839 12.71 16.9539C12.89 17.1439 13 17.4039 13 17.6639C13 17.9239 12.89 18.1839 12.71 18.3739ZM12.71 14.8739C12.66 14.9139 12.61 14.9539 12.56 14.9939C12.5 15.0339 12.44 15.0639 12.38 15.0839C12.32 15.1139 12.26 15.1339 12.2 15.1439C12.13 15.1539 12.07 15.1639 12 15.1639C11.74 15.1639 11.48 15.0539 11.29 14.8739C11.11 14.6839 11 14.4239 11 14.1639C11 13.9039 11.11 13.6439 11.29 13.4539C11.38 13.3639 11.49 13.2939 11.62 13.2439C11.99 13.0839 12.43 13.1739 12.71 13.4539C12.89 13.6439 13 13.9039 13 14.1639C13 14.4239 12.89 14.6839 12.71 14.8739ZM16.21 18.3739C16.02 18.5539 15.76 18.6639 15.5 18.6639C15.24 18.6639 14.98 18.5539 14.79 18.3739C14.61 18.1839 14.5 17.9239 14.5 17.6639C14.5 17.4039 14.61 17.1439 14.79 16.9539C15.16 16.5839 15.84 16.5839 16.21 16.9539C16.39 17.1439 16.5 17.4039 16.5 17.6639C16.5 17.9239 16.39 18.1839 16.21 18.3739ZM16.21 14.8739C16.16 14.9139 16.11 14.9539 16.06 14.9939C16 15.0339 15.94 15.0639 15.88 15.0839C15.82 15.1139 15.76 15.1339 15.7 15.1439C15.63 15.1539 15.56 15.1639 15.5 15.1639C15.24 15.1639 14.98 15.0539 14.79 14.8739C14.61 14.6839 14.5 14.4239 14.5 14.1639C14.5 13.9039 14.61 13.6439 14.79 13.4539C14.89 13.3639 14.99 13.2939 15.12 13.2439C15.3 13.1639 15.5 13.1439 15.7 13.1839C15.76 13.1939 15.82 13.2139 15.88 13.2439C15.94 13.2639 16 13.2939 16.06 13.3339C16.11 13.3739 16.16 13.4139 16.21 13.4539C16.39 13.6439 16.5 13.9039 16.5 14.1639C16.5 14.4239 16.39 14.6839 16.21 14.8739Z" fill="#4B4B4E"/>
</svg>
