 <svg width="20" height="20" viewBox="0 0 20 20" fill="none" xmlns="http://www.w3.org/2000/svg">
<path d="M3.27526 13.8581C3.11693 13.8581 2.95859 13.7998 2.83359 13.6748C2.59193 13.4331 2.59193 13.0331 2.83359 12.7914L12.7919 2.83311C13.0336 2.59144 13.4336 2.59144 13.6753 2.83311C13.9169 3.07477 13.9169 3.47477 13.6753 3.71644L3.71693 13.6831C3.60026 13.7998 3.43359 13.8581 3.27526 13.8581Z" fill="#DBDBDE"/>
<path d="M9.24987 15.8583C9.09154 15.8583 8.9332 15.7999 8.8082 15.6749C8.56654 15.4333 8.56654 15.0333 8.8082 14.7916L9.8082 13.7916C10.0499 13.5499 10.4499 13.5499 10.6915 13.7916C10.9332 14.0333 10.9332 14.4333 10.6915 14.6749L9.69154 15.6749C9.57487 15.7916 9.41654 15.8583 9.24987 15.8583Z" fill="#DBDBDE"/>
<path d="M11.4921 13.6165C11.3337 13.6165 11.1754 13.5582 11.0504 13.4332C10.8087 13.1915 10.8087 12.7915 11.0504 12.5499L13.0421 10.5582C13.2837 10.3165 13.6837 10.3165 13.9254 10.5582C14.1671 10.7999 14.1671 11.1999 13.9254 11.4415L11.9337 13.4332C11.8171 13.5499 11.6504 13.6165 11.4921 13.6165Z" fill="#DBDBDE"/>
<path d="M9.25009 18.9584C8.43343 18.9584 7.61676 18.4584 6.62509 17.4668L2.53342 13.3751C0.541758 11.3834 0.550091 10.1001 2.55842 8.09176L8.09176 2.55842C10.1001 0.550091 11.3834 0.541758 13.3751 2.53342L17.4668 6.62509C19.4584 8.61676 19.4501 9.90009 17.4418 11.9084L11.9084 17.4418C10.9001 18.4501 10.0751 18.9584 9.25009 18.9584ZM10.7501 2.29176C10.3168 2.29176 9.76676 2.65009 8.97509 3.44176L3.44176 8.97509C2.65009 9.76676 2.29176 10.3168 2.29176 10.7418C2.29176 11.1751 2.62509 11.7001 3.41676 12.4918L7.50843 16.5834C8.30009 17.3751 8.81676 17.7084 9.25009 17.7084C9.25009 17.7084 9.25009 17.7084 9.25842 17.7084C9.69176 17.7084 10.2334 17.3501 11.0251 16.5584L16.5584 11.0251C17.3501 10.2334 17.7084 9.68342 17.7084 9.25842C17.7084 8.82509 17.3751 8.30009 16.5834 7.50843L12.4918 3.41676C11.7084 2.62509 11.1834 2.29176 10.7501 2.29176Z" fill="#DBDBDE"/>
<path d="M18.3337 18.9585H1.66699C1.32533 18.9585 1.04199 18.6752 1.04199 18.3335C1.04199 17.9918 1.32533 17.7085 1.66699 17.7085H18.3337C18.6753 17.7085 18.9587 17.9918 18.9587 18.3335C18.9587 18.6752 18.6753 18.9585 18.3337 18.9585Z" fill="#292D32"/>
</svg>
