<svg width="20" height="20" viewBox="0 0 20 20" fill="none" xmlns="http://www.w3.org/2000/svg">
<path d="M18.3337 17.7085C18.3337 18.0502 18.0503 18.3335 17.7087 18.3335H2.29199C1.95033 18.3335 1.66699 18.0502 1.66699 17.7085C1.66699 17.3668 1.95033 17.0835 2.29199 17.0835H17.7087C18.0503 17.0835 18.3337 17.3668 18.3337 17.7085Z" fill="#6DE9A1"/>
<path d="M12.8245 3.76647L3.87454 12.7165C3.53288 13.0581 2.98288 13.0581 2.64954 12.7165H2.64121C1.48288 11.5498 1.48288 9.66647 2.64121 8.50814L8.59954 2.5498C9.76621 1.38314 11.6495 1.38314 12.8162 2.5498C13.1579 2.8748 13.1579 3.43314 12.8245 3.76647Z" fill="#6DE9A1"/>
<path d="M17.3499 7.07477L14.8082 4.53311C14.4665 4.19144 13.9165 4.19144 13.5832 4.53311L4.6332 13.4831C4.29154 13.8164 4.29154 14.3664 4.6332 14.7081L7.17487 17.2581C8.34154 18.4164 10.2249 18.4164 11.3915 17.2581L17.3415 11.2998C18.5249 10.1331 18.5249 8.24144 17.3499 7.07477ZM10.6332 14.5998L9.62487 15.6164C9.41654 15.8248 9.07487 15.8248 8.8582 15.6164C8.64987 15.4081 8.64987 15.0664 8.8582 14.8498L9.87487 13.8331C10.0749 13.6331 10.4249 13.6331 10.6332 13.8331C10.8415 14.0414 10.8415 14.3998 10.6332 14.5998ZM13.9415 11.2914L11.9082 13.3331C11.6999 13.5331 11.3582 13.5331 11.1415 13.3331C10.9332 13.1248 10.9332 12.7831 11.1415 12.5664L13.1832 10.5248C13.3832 10.3248 13.7332 10.3248 13.9415 10.5248C14.1499 10.7414 14.1499 11.0831 13.9415 11.2914Z" fill="#6DE9A1"/>
</svg>
