<svg width="32" height="32" viewBox="0 0 32 32" fill="none" xmlns="http://www.w3.org/2000/svg">
    <path
        d="M29.3332 15.9973C29.3332 8.6336 23.3636 2.66406 15.9998 2.66406C8.63604 2.66406 2.6665 8.6336 2.6665 15.9973C2.6665 18.1877 3.1961 20.3032 4.19304 22.1977L2.70457 27.9156C2.65581 28.1028 2.65582 28.2995 2.70461 28.4868C2.86237 29.0925 3.4813 29.4556 4.08701 29.2979L9.80754 27.8084C11.7001 28.8027 13.8126 29.3307 15.9998 29.3307C23.3636 29.3307 29.3332 23.3612 29.3332 15.9973ZM15.9998 8.66601C16.5521 8.66601 16.9998 9.11373 16.9998 9.66601V17.9993C16.9998 18.5516 16.5521 18.9993 15.9998 18.9993C15.4476 18.9993 14.9998 18.5516 14.9998 17.9993V9.66601C14.9998 9.11373 15.4476 8.66601 15.9998 8.66601ZM17.3332 21.9965C17.3332 22.7329 16.7362 23.3299 15.9998 23.3299C15.2634 23.3299 14.6665 22.7329 14.6665 21.9965C14.6665 21.2601 15.2634 20.6632 15.9998 20.6632C16.7362 20.6632 17.3332 21.2601 17.3332 21.9965Z"
        fill="#F79009" />
</svg>
    
    