<svg width="20" height="20" viewBox="0 0 20 20" fill="none" xmlns="http://www.w3.org/2000/svg">
<path d="M10 18.9584C5.05835 18.9584 1.04169 14.9417 1.04169 10C1.04169 5.05835 5.05835 1.04169 10 1.04169C14.9417 1.04169 18.9584 5.05835 18.9584 10C18.9584 14.9417 14.9417 18.9584 10 18.9584ZM10 2.29169C5.75002 2.29169 2.29169 5.75002 2.29169 10C2.29169 14.25 5.75002 17.7084 10 17.7084C14.25 17.7084 17.7084 14.25 17.7084 10C17.7084 5.75002 14.25 2.29169 10 2.29169Z" fill="#2C5D40"/>
<path d="M7.64165 12.9833C7.48332 12.9833 7.32499 12.925 7.19999 12.8C6.95832 12.5583 6.95832 12.1583 7.19999 11.9167L11.9167 7.19999C12.1583 6.95832 12.5583 6.95832 12.8 7.19999C13.0417 7.44165 13.0417 7.84165 12.8 8.08332L8.08332 12.8C7.96665 12.925 7.79999 12.9833 7.64165 12.9833Z" fill="#2C5D40"/>
<path d="M12.3583 12.9833C12.2 12.9833 12.0417 12.925 11.9167 12.8L7.19999 8.08332C6.95832 7.84165 6.95832 7.44165 7.19999 7.19999C7.44165 6.95832 7.84165 6.95832 8.08332 7.19999L12.8 11.9167C13.0417 12.1583 13.0417 12.5583 12.8 12.8C12.675 12.925 12.5167 12.9833 12.3583 12.9833Z" fill="#2C5D40"/>
</svg>
