<svg width="32" height="32" viewBox="0 0 32 32" fill="none" xmlns="http://www.w3.org/2000/svg">
<rect width="32" height="32" rx="16" fill="#161D58"/>
<path d="M16.0007 16.6251C13.359 16.6251 11.209 14.4751 11.209 11.8334C11.209 9.19175 13.359 7.04175 16.0007 7.04175C18.6423 7.04175 20.7923 9.19175 20.7923 11.8334C20.7923 14.4751 18.6423 16.6251 16.0007 16.6251ZM16.0007 8.29175C14.0507 8.29175 12.459 9.88341 12.459 11.8334C12.459 13.7834 14.0507 15.3751 16.0007 15.3751C17.9507 15.3751 19.5423 13.7834 19.5423 11.8334C19.5423 9.88341 17.9507 8.29175 16.0007 8.29175Z" fill="white"/>
<path d="M23.1585 24.9583C22.8168 24.9583 22.5335 24.675 22.5335 24.3333C22.5335 21.4583 19.6001 19.125 16.0001 19.125C12.4001 19.125 9.4668 21.4583 9.4668 24.3333C9.4668 24.675 9.18346 24.9583 8.8418 24.9583C8.50013 24.9583 8.2168 24.675 8.2168 24.3333C8.2168 20.775 11.7085 17.875 16.0001 17.875C20.2918 17.875 23.7835 20.775 23.7835 24.3333C23.7835 24.675 23.5001 24.9583 23.1585 24.9583Z" fill="white"/>
</svg>
