<svg xmlns="http://www.w3.org/2000/svg" width="74" height="74" viewBox="0 0 74 74" fill="none">
  <path fill-rule="evenodd" clip-rule="evenodd" d="M37.0006 0.333496C16.7607 0.333496 0.333984 16.7602 0.333984 37.0002C0.333984 57.2402 16.7607 73.6668 37.0006 73.6668C57.2407 73.6668 73.6673 57.2402 73.6673 37.0002C73.6673 16.7602 57.2407 0.333496 37.0006 0.333496ZM37.0007 40.6668C34.984 40.6668 33.334 39.0168 33.334 37.0002V22.3335C33.334 20.3168 34.984 18.6668 37.0007 18.6668C39.0173 18.6668 40.6673 20.3168 40.6673 22.3335V37.0002C40.6673 39.0168 39.0173 40.6668 37.0007 40.6668ZM40.6673 55.3335H33.334V48.0002H40.6673V55.3335Z" fill="#F79009"/>
</svg>
