<svg width="30" height="25" viewBox="0 0 30 25" fill="none" xmlns="http://www.w3.org/2000/svg">
<g clip-path="url(#clip0_9511_55152)">
<path d="M22.5539 5.8422C21.5156 1.71033 17.3108 -0.801124 13.1611 0.232295C10.3902 0.922448 8.22626 3.07556 7.5296 5.83375C3.26662 6.23252 0.134059 9.9976 0.534489 14.2435C0.908264 18.2125 4.25467 21.2452 8.25716 21.2439H11.165C11.7005 21.2439 12.1342 20.812 12.1342 20.2787C12.1342 19.7454 11.7005 19.3135 11.165 19.3135H8.25716C5.04524 19.3225 2.43366 16.7374 2.42457 13.5389C2.41548 10.3403 5.01131 7.73952 8.22324 7.73047C8.73816 7.76908 9.19917 7.41254 9.28943 6.90639C9.74196 3.74459 12.6831 1.54684 15.8581 1.9981C18.4139 2.36127 20.4227 4.36115 20.7868 6.90639C20.8916 7.39323 21.3272 7.73831 21.827 7.73047C25.0389 7.73047 27.6426 10.3234 27.6426 13.522C27.6426 16.7206 25.0389 19.3135 21.827 19.3135H18.9191C18.3836 19.3135 17.9499 19.7454 17.9499 20.2787C17.9499 20.812 18.3836 21.2439 18.9191 21.2439H21.827C26.1093 21.1993 29.5442 17.7063 29.4994 13.4417C29.4582 9.5198 26.471 6.25122 22.5539 5.8428V5.8422Z" fill="#4B4B4E"/>
<path d="M19.2031 14.2041C19.5884 14.5745 20.202 14.5637 20.5734 14.1806C20.9362 13.8066 20.9362 13.2135 20.5734 12.8395L15.727 8.01326C15.3484 7.63621 14.7347 7.63621 14.3567 8.01326L9.51036 12.8395C9.1384 13.2232 9.1493 13.8343 9.53398 14.2041C9.90957 14.5655 10.5051 14.5655 10.8807 14.2041L14.0726 11.0254V23.1743C14.0726 23.7076 14.5063 24.1395 15.0419 24.1395C15.5774 24.1395 16.0111 23.7076 16.0111 23.1743V11.0254L19.2031 14.2041Z" fill="#4B4B4E"/>
</g>
<defs>
<clipPath id="clip0_9511_55152">
<rect width="29" height="24.1397" fill="white" transform="translate(0.5)"/>
</clipPath>
</defs>
</svg>
