<svg width="24" height="24" viewBox="0 0 24 24" fill="none" xmlns="http://www.w3.org/2000/svg">
<g clip-path="url(#clip0_9343_49660)">
<path d="M12.5036 13.0027C12.4937 13.0036 12.4844 13.0055 12.4747 13.007C12.4629 13.0085 12.4515 13.0101 12.4397 13.0122C12.4285 13.0144 12.4179 13.0174 12.4067 13.0202C12.3968 13.0227 12.3866 13.0248 12.3766 13.0279C12.3658 13.0309 12.3555 13.0349 12.345 13.0389C12.335 13.0423 12.3251 13.0457 12.3152 13.0497C12.3055 13.0536 12.2959 13.0582 12.2866 13.0629C12.2767 13.0675 12.2664 13.0721 12.2565 13.0773C12.2475 13.0822 12.2388 13.0877 12.2298 13.0929C12.2201 13.0988 12.2102 13.104 12.2009 13.1104C12.191 13.1169 12.182 13.1242 12.1723 13.131C12.1646 13.1368 12.1565 13.1423 12.1487 13.1485C12.132 13.162 12.1158 13.1764 12.1006 13.1914C12.1006 13.1914 12.1006 13.1914 12.1003 13.1917C12.1 13.192 12.1003 13.1917 12.1 13.192C12.0848 13.2071 12.0702 13.223 12.0565 13.2396C12.0503 13.2473 12.0447 13.2552 12.0388 13.2629C12.0317 13.2721 12.0245 13.2813 12.018 13.2911C12.0118 13.3003 12.0062 13.3102 12.0003 13.3197C11.995 13.3286 11.9895 13.3372 11.9845 13.3461C11.9792 13.3559 11.9749 13.3657 11.9699 13.3758C11.9656 13.3853 11.9606 13.3945 11.9565 13.404C11.9525 13.4139 11.9491 13.4237 11.9457 13.4335C11.942 13.4439 11.9379 13.4541 11.9348 13.4645C11.9317 13.4743 11.9295 13.4844 11.9271 13.4943C11.9243 13.505 11.9212 13.5157 11.919 13.5265C11.9168 13.5381 11.9153 13.5495 11.9137 13.5611C11.9125 13.5707 11.9106 13.5802 11.9094 13.5897C11.9072 13.6112 11.9062 13.6326 11.9062 13.6544L11.9062 18.2363C11.9062 18.5978 12.2028 18.8908 12.5685 18.8908C12.9343 18.8908 13.2308 18.5978 13.2308 18.2363L13.2308 15.2346L18.0613 20.0083C18.3199 20.2638 18.7394 20.2638 18.998 20.0083C19.2566 19.7527 19.2566 19.3381 18.998 19.0826L14.1675 14.3089L17.205 14.3089C17.5707 14.3089 17.8672 14.0159 17.8672 13.6544C17.8672 13.293 17.5707 13 17.205 13L12.5688 13C12.5471 13 12.525 13.0012 12.5033 13.0033L12.5036 13.0027Z" fill="#64646C"/>
<path d="M3.19693 6.13794L8.11668 10.9998L5.0231 10.9998C4.65059 10.9998 4.3486 11.2983 4.3486 11.6664C4.3486 12.0345 4.65059 12.3333 5.0231 12.3333L9.74522 12.3333C9.76735 12.3333 9.78949 12.332 9.81194 12.3298C9.82206 12.3289 9.83154 12.327 9.84135 12.3258C9.85336 12.3242 9.86538 12.3226 9.87708 12.3204C9.88846 12.3183 9.89921 12.3151 9.91028 12.3123C9.9204 12.3098 9.93084 12.3076 9.94096 12.3045C9.95171 12.3014 9.96246 12.2973 9.97289 12.2936C9.98301 12.2898 9.99313 12.2867 10.0033 12.2826C10.0134 12.2786 10.0229 12.2739 10.0323 12.2692C10.0425 12.2645 10.0529 12.2598 10.063 12.2545C10.0722 12.2495 10.081 12.2439 10.0902 12.2386C10.1 12.2326 10.1101 12.2273 10.1196 12.2208C10.1297 12.2142 10.1389 12.2067 10.1487 12.1998C10.1566 12.1939 10.1648 12.1883 10.1727 12.182C10.1898 12.1683 10.2063 12.1536 10.2218 12.1383C10.2218 12.1383 10.2218 12.1383 10.2221 12.1379C10.2221 12.1379 10.2221 12.1379 10.2224 12.1376C10.2379 12.1223 10.2527 12.1061 10.2667 12.0892C10.273 12.0814 10.2787 12.0733 10.2847 12.0654C10.292 12.0561 10.2992 12.0467 10.3059 12.0367C10.3122 12.0273 10.3179 12.0173 10.3239 12.0076C10.3293 11.9986 10.335 11.9901 10.34 11.9808C10.3454 11.9708 10.3498 11.9604 10.3549 11.9504C10.3593 11.9408 10.3644 11.9314 10.3685 11.9217C10.3726 11.912 10.3758 11.9017 10.3796 11.8917C10.3833 11.8811 10.3875 11.8708 10.3909 11.8598C10.3941 11.8498 10.3963 11.8395 10.3988 11.8295C10.4017 11.8186 10.4049 11.8076 10.4071 11.7964C10.4093 11.7845 10.4109 11.7729 10.4124 11.7611C10.4137 11.7514 10.4156 11.7417 10.4169 11.732C10.4191 11.7101 10.4203 11.6883 10.4203 11.6664L10.4203 6.99981C10.4203 6.63169 10.1184 6.33325 9.74585 6.33325C9.37334 6.33325 9.07135 6.63169 9.07135 6.99981L9.07135 10.057L4.15159 5.19513C3.88818 4.93481 3.46097 4.93481 3.19756 5.19513C2.93415 5.45544 2.93415 5.87763 3.19756 6.13794L3.19693 6.13794Z" fill="#64646C"/>
</g>
<defs>
<clipPath id="clip0_9343_49660">
<rect width="17" height="16" fill="white" transform="translate(3 5)"/>
</clipPath>
</defs>
</svg>
