<svg width="20" height="20" viewBox="0 0 20 20" fill="none" xmlns="http://www.w3.org/2000/svg">
<path d="M15.8542 10.3538C16.0491 10.1582 16.0485 9.8416 15.8529 9.6467C15.6573 9.4518 15.3408 9.4524 15.1459 9.648L10 14.8125L4.8541 9.648C4.6592 9.4524 4.3427 9.4518 4.1471 9.6467C3.9515 9.8416 3.9509 10.1582 4.1458 10.3538L9.6104 15.8382C9.8254 16.0539 10.1746 16.0539 10.3896 15.8382L15.8542 10.3538ZM15.8542 5.3529C16.0491 5.1573 16.0485 4.8407 15.8529 4.6458C15.6573 4.4509 15.3408 4.4515 15.1459 4.6471L10 9.8116L4.8541 4.6471C4.6592 4.4515 4.3427 4.4509 4.1471 4.6458C3.9515 4.8407 3.9509 5.1573 4.1458 5.3529L9.6104 10.8373C9.8254 11.053 10.1746 11.053 10.3896 10.8373L15.8542 5.3529Z" fill="white"/>
</svg>
