<svg xmlns="http://www.w3.org/2000/svg" width="21" height="20" viewBox="0 0 21 20" fill="none">
  <path d="M10.0404 18.8331C9.11538 18.8331 8.25704 18.4415 7.61538 17.7415L1.89871 11.4581C1.09038 10.5748 0.840376 9.01647 1.32371 7.9248L3.45705 3.1248C4.04039 1.81647 5.01538 1.1748 6.44872 1.1748H13.607V1.7998V1.1748C15.0404 1.1748 16.0154 1.80814 16.5987 3.11647L18.732 7.91647C19.2154 9.00814 18.9737 10.5665 18.1654 11.4498L12.457 17.7415C11.832 18.4415 10.9654 18.8331 10.0404 18.8331ZM13.6154 2.41647H6.45705C5.36538 2.41647 4.92371 2.8998 4.60704 3.6248L2.47371 8.4248C2.19038 9.06647 2.35705 10.0915 2.82371 10.6081L8.54038 16.8915C8.94038 17.3331 9.47371 17.5748 10.0404 17.5748C10.607 17.5748 11.1404 17.3331 11.5404 16.8915L17.2487 10.5998C17.7237 10.0748 17.8904 9.05814 17.5987 8.41647L15.4654 3.61647C15.1487 2.8998 14.707 2.41647 13.6154 2.41647Z" fill="white"/>
  <path d="M2.95703 7.29154C2.61536 7.29154 2.33203 7.0082 2.33203 6.66654C2.33203 6.32487 2.61536 6.04154 2.95703 6.04154L17.1237 6.0332C17.4654 6.0332 17.7487 6.31654 17.7487 6.6582C17.7487 6.99987 17.4654 7.2832 17.1237 7.2832L2.95703 7.29154Z" fill="white"/>
</svg>
