<svg xmlns="http://www.w3.org/2000/svg" width="21" height="20" viewBox="0 0 21 20" fill="none">
  <path d="M10.9154 18.8331C9.99038 18.8331 9.13204 18.4415 8.49038 17.7415L2.77371 11.4581C1.96538 10.5748 1.71538 9.01647 2.19871 7.9248L4.33205 3.1248C4.91539 1.81647 5.89038 1.1748 7.32372 1.1748H14.482V1.7998V1.1748C15.9154 1.1748 16.8904 1.80814 17.4737 3.11647L19.607 7.91647C20.0904 9.00814 19.8487 10.5665 19.0404 11.4498L13.332 17.7415C12.707 18.4415 11.8404 18.8331 10.9154 18.8331ZM14.4904 2.41647H7.33205C6.24038 2.41647 5.79871 2.8998 5.48204 3.6248L3.34871 8.4248C3.06538 9.06647 3.23205 10.0915 3.69871 10.6081L9.41538 16.8915C9.81538 17.3331 10.3487 17.5748 10.9154 17.5748C11.482 17.5748 12.0154 17.3331 12.4154 16.8915L18.1237 10.5998C18.5987 10.0748 18.7654 9.05814 18.4737 8.41647L16.3404 3.61647C16.0237 2.8998 15.582 2.41647 14.4904 2.41647Z" fill="#292D32"/>
  <path d="M3.83008 7.29154C3.48841 7.29154 3.20508 7.0082 3.20508 6.66654C3.20508 6.32487 3.48841 6.04154 3.83008 6.04154L17.9967 6.0332C18.3384 6.0332 18.6217 6.31654 18.6217 6.6582C18.6217 6.99987 18.3384 7.2832 17.9967 7.2832L3.83008 7.29154Z" fill="#292D32"/>
</svg>
