<svg width="28" height="37" viewBox="0 0 28 37" fill="none" xmlns="http://www.w3.org/2000/svg">
<g clip-path="url(#clip0_12397_54674)">
<path d="M0 3.66667C0 1.64162 1.64162 0 3.66667 0H15.8667L28 12.025V33.3333C28 35.3584 26.3584 37 24.3333 37H3.66667C1.64162 37 0 35.3584 0 33.3333V3.66667Z" fill="#2E90FA"/>
<path d="M18.3333 11.9167H27.4999L15.5833 0V9.16667C15.5833 10.6854 16.8145 11.9167 18.3333 11.9167Z" fill="white" fill-opacity="0.5"/>
</g>
<path d="M10.0833 25.2084H14.2083M10.0833 19.7084H17.4166M10.0833 22.4584H17.4166M8.08815 16.9584H19.4117C19.8286 16.9584 20.1666 17.2662 20.1666 17.6459V30.0209C20.1666 30.4006 19.8286 30.7084 19.4117 30.7084H8.08815C7.67123 30.7084 7.33325 30.4006 7.33325 30.0209V17.6459C7.33325 17.2662 7.67123 16.9584 8.08815 16.9584Z" stroke="white" stroke-width="1.375" stroke-linecap="round" stroke-linejoin="round"/>
<defs>
<clipPath id="clip0_12397_54674">
<rect width="27.5" height="36.6667" fill="white"/>
</clipPath>
</defs>
</svg>
