<svg width="24" height="24" viewBox="0 0 24 24" fill="none" xmlns="http://www.w3.org/2000/svg">
<path d="M12 8V2H6C4.89543 2 4 2.89543 4 4V10.6684C3.40876 10.9493 3 11.5519 3 12.25V17.75C3 18.4481 3.40876 19.0507 4 19.3316V20C4 21.1046 4.89543 22 6 22H18C19.1046 22 20 21.1046 20 20V19.3316C20.5912 19.0507 21 18.4481 21 17.75V12.25C21 11.5519 20.5912 10.9493 20 10.6684V10H14C12.8954 10 12 9.10457 12 8ZM4.75 12H19.25C19.3881 12 19.5 12.1119 19.5 12.25V17.75C19.5 17.8881 19.3881 18 19.25 18H4.75C4.61193 18 4.5 17.8881 4.5 17.75V12.25C4.5 12.1119 4.61193 12 4.75 12ZM13.5 8V2.5L19.5 8.5H14C13.7239 8.5 13.5 8.27614 13.5 8Z" fill="#33311B"/>
<path d="M7.5 13H6.5C6.36739 13 6.24021 13.0527 6.14645 13.1464C6.05268 13.2402 6 13.3674 6 13.5V16.5C6 16.6326 6.05268 16.7598 6.14645 16.8536C6.24021 16.9473 6.36739 17 6.5 17H7.5C8.03043 17 8.53914 16.7893 8.91421 16.4142C9.28929 16.0391 9.5 15.5304 9.5 15C9.5 14.4696 9.28929 13.9609 8.91421 13.5858C8.53914 13.2107 8.03043 13 7.5 13ZM7.5 16H7V14H7.5C7.76522 14 8.01957 14.1054 8.20711 14.2929C8.39464 14.4804 8.5 14.7348 8.5 15C8.5 15.2652 8.39464 15.5196 8.20711 15.7071C8.01957 15.8946 7.76522 16 7.5 16Z" fill="#33311B"/>
<path d="M12 17C12.3956 17 12.7822 16.8827 13.1111 16.6629C13.44 16.4432 13.6964 16.1308 13.8478 15.7654C13.9991 15.3999 14.0387 14.9978 13.9616 14.6098C13.8844 14.2219 13.6939 13.8655 13.4142 13.5858C13.1345 13.3061 12.7781 13.1156 12.3902 13.0384C12.0022 12.9613 11.6001 13.0009 11.2346 13.1522C10.8692 13.3036 10.5568 13.56 10.3371 13.8889C10.1173 14.2178 10 14.6044 10 15C10 15.5304 10.2107 16.0391 10.5858 16.4142C10.9609 16.7893 11.4696 17 12 17ZM12 14C12.1978 14 12.3911 14.0586 12.5556 14.1685C12.72 14.2784 12.8482 14.4346 12.9239 14.6173C12.9996 14.8 13.0194 15.0011 12.9808 15.1951C12.9422 15.3891 12.847 15.5673 12.7071 15.7071C12.5673 15.847 12.3891 15.9422 12.1951 15.9808C12.0011 16.0194 11.8 15.9996 11.6173 15.9239C11.4346 15.8482 11.2784 15.72 11.1685 15.5556C11.0586 15.3911 11 15.1978 11 15C11 14.7348 11.1054 14.4804 11.2929 14.2929C11.4804 14.1054 11.7348 14 12 14Z" fill="#33311B"/>
<path d="M16.5 17C16.9921 17.0004 17.467 16.8189 17.8335 16.4905C17.8831 16.4469 17.9236 16.3939 17.9526 16.3346C17.9816 16.2752 17.9986 16.2107 18.0026 16.1448C18.0065 16.0789 17.9974 16.0128 17.9756 15.9504C17.9539 15.8881 17.92 15.8306 17.876 15.7814C17.8319 15.7322 17.7786 15.6922 17.7189 15.6637C17.6593 15.6353 17.5947 15.6189 17.5287 15.6155C17.4628 15.6122 17.3968 15.622 17.3346 15.6443C17.2724 15.6666 17.2153 15.701 17.1665 15.7455C17.0226 15.8742 16.8446 15.9584 16.6538 15.9881C16.4631 16.0178 16.2679 15.9916 16.0917 15.9128C15.9155 15.834 15.7658 15.7059 15.6609 15.5439C15.5559 15.3819 15.5 15.193 15.5 15C15.5 14.807 15.5559 14.6181 15.6609 14.4561C15.7658 14.2941 15.9155 14.166 16.0917 14.0872C16.2679 14.0084 16.4631 13.9822 16.6538 14.0119C16.8446 14.0416 17.0226 14.1258 17.1665 14.2545C17.2153 14.299 17.2724 14.3334 17.3346 14.3557C17.3968 14.378 17.4628 14.3878 17.5287 14.3845C17.5947 14.3811 17.6593 14.3647 17.7189 14.3363C17.7786 14.3078 17.8319 14.2678 17.876 14.2186C17.92 14.1694 17.9539 14.1119 17.9756 14.0496C17.9974 13.9872 18.0065 13.9211 18.0026 13.8552C17.9986 13.7893 17.9816 13.7248 17.9526 13.6654C17.9236 13.6061 17.8831 13.5531 17.8335 13.5095C17.5919 13.2933 17.3013 13.1391 16.9869 13.0602C16.6724 12.9812 16.3435 12.9799 16.0284 13.0564C15.7134 13.1328 15.4216 13.2847 15.1783 13.4989C14.9349 13.7132 14.7473 13.9834 14.6316 14.2862C14.5159 14.5891 14.4756 14.9155 14.5141 15.2375C14.5526 15.5594 14.6688 15.8671 14.8526 16.1342C15.0365 16.4012 15.2825 16.6195 15.5695 16.7704C15.8564 16.9212 16.1758 17 16.5 17Z" fill="#33311B"/>
</svg>
