<svg width="18" height="18" viewBox="0 0 18 18" fill="none" xmlns="http://www.w3.org/2000/svg">
<path d="M8 4.49988C8 2.1836 9.75002 0.276066 12 0.0273438V3.79277L11.3536 3.14633C11.1583 2.95106 10.8417 2.95106 10.6464 3.14633C10.4512 3.34159 10.4512 3.65817 10.6464 3.85343L12.1464 5.35343C12.3417 5.5487 12.6583 5.5487 12.8536 5.35343L14.3536 3.85343C14.5488 3.65817 14.5488 3.34159 14.3536 3.14633C14.1583 2.95106 13.8417 2.95106 13.6464 3.14633L13 3.79277V0.0273438C15.25 0.276066 17 2.1836 17 4.49988C17 6.98516 14.9853 8.99988 12.5 8.99988C10.0147 8.99988 8 6.98516 8 4.49988ZM10 6.49988C10 6.77602 10.2239 6.99988 10.5 6.99988H14.5C14.7761 6.99988 15 6.77602 15 6.49988C15 6.22374 14.7761 5.99988 14.5 5.99988H10.5C10.2239 5.99988 10 6.22374 10 6.49988ZM16 8.74284C15.6929 8.99647 15.3578 9.21739 15 9.40029L15 10H11.5C11.2239 10 11 10.2239 11 10.5C11 11.6046 10.1046 12.5 9 12.5C7.89543 12.5 7 11.6046 7 10.5C7 10.2239 6.77614 10 6.5 10H3V7H7.59971C7.43777 6.68321 7.30564 6.34864 7.20703 6H3C3 4.89543 3.89543 4 5 4H7.02242C7.05337 3.65659 7.11588 3.32228 7.20703 3H5C3.34315 3 2 4.34315 2 6V14C2 15.6569 3.34315 17 5 17H13C14.6569 17 16 15.6569 16 14V8.74284ZM15 14C15 15.1046 14.1046 16 13 16H5C3.89543 16 3 15.1046 3 14V11H6.04148C6.27952 12.4189 7.5135 13.5 9 13.5C10.4865 13.5 11.7205 12.4189 11.9585 11H15V14Z" fill="#418C61"/>
</svg>
