<svg width="226" height="190" viewBox="0 0 226 190" fill="none" xmlns="http://www.w3.org/2000/svg">
<g clip-path="url(#clip0_9479_28992)">
<g clip-path="url(#clip1_9479_28992)">
<rect x="166" y="130" width="59" height="49" rx="5" fill="white"/>
<path d="M216.747 149.49H207.639C207.301 149.49 207.023 149.209 207.023 148.867C207.023 148.524 207.301 148.244 207.639 148.244H216.747C217.086 148.244 217.363 148.524 217.363 148.867C217.363 149.209 217.086 149.49 216.747 149.49Z" fill="#6DE9A1"/>
<path d="M216.747 164.673H207.639C207.301 164.673 207.023 164.393 207.023 164.051C207.023 163.708 207.301 163.428 207.639 163.428H216.747C217.086 163.428 217.363 163.708 217.363 164.051C217.363 164.393 217.086 164.673 216.747 164.673Z" fill="#6DE9A1"/>
<path d="M223.331 180H167.669C166.745 180 166 179.24 166 178.312V131.198C166 130.264 166.751 129.51 167.669 129.51H223.331C224.255 129.51 225 130.27 225 131.198V178.312C225 179.246 224.249 180 223.331 180ZM167.669 130.756C167.429 130.756 167.232 130.955 167.232 131.198V178.312C167.232 178.555 167.429 178.754 167.669 178.754H223.331C223.571 178.754 223.768 178.555 223.768 178.312V131.198C223.768 130.955 223.571 130.756 223.331 130.756H167.669Z" fill="white"/>
<path opacity="0.66" d="M223.331 180H167.669C166.745 180 166 179.24 166 178.312V131.198C166 130.264 166.751 129.51 167.669 129.51H223.331C224.255 129.51 225 130.27 225 131.198V178.312C225 179.246 224.249 180 223.331 180ZM167.669 130.756C167.429 130.756 167.232 130.955 167.232 131.198V178.312C167.232 178.555 167.429 178.754 167.669 178.754H223.331C223.571 178.754 223.768 178.555 223.768 178.312V131.198C223.768 130.955 223.571 130.756 223.331 130.756H167.669Z" fill="white"/>
<path d="M216.748 142.121H173.346C173.008 142.121 172.73 141.841 172.73 141.499C172.73 141.156 173.008 140.876 173.346 140.876H216.748C217.087 140.876 217.364 141.156 217.364 141.499C217.364 141.841 217.087 142.121 216.748 142.121Z" fill="#6DE9A1"/>
<path d="M216.748 156.857H173.346C173.008 156.857 172.73 156.577 172.73 156.234C172.73 155.892 173.008 155.611 173.346 155.611H216.748C217.087 155.611 217.364 155.892 217.364 156.234C217.364 156.577 217.087 156.857 216.748 156.857Z" fill="#6DE9A1"/>
<path d="M196.747 149.49H173.346C173.008 149.49 172.73 149.209 172.73 148.867C172.73 148.524 173.008 148.244 173.346 148.244H196.747C197.085 148.244 197.363 148.524 197.363 148.867C197.363 149.209 197.085 149.49 196.747 149.49Z" fill="#6DE9A1"/>
<path d="M196.747 164.673H173.346C173.008 164.673 172.73 164.393 172.73 164.051C172.73 163.708 173.008 163.428 173.346 163.428H196.747C197.085 163.428 197.363 163.708 197.363 164.051C197.363 164.393 197.085 164.673 196.747 164.673Z" fill="#6DE9A1"/>
<path d="M189.129 171.704H173.346C173.008 171.704 172.73 171.424 172.73 171.082C172.73 170.739 173.008 170.459 173.346 170.459H189.129C189.468 170.459 189.745 170.739 189.745 171.082C189.745 171.424 189.468 171.704 189.129 171.704Z" fill="#6DE9A1"/>
</g>
<g clip-path="url(#clip2_9479_28992)">
<rect x="10" y="62" width="59" height="49" rx="5" fill="white"/>
<path d="M60.747 81.4897H51.6392C51.3005 81.4897 51.0234 81.2095 51.0234 80.8669C51.0234 80.5244 51.3005 80.2441 51.6392 80.2441H60.747C61.0856 80.2441 61.3628 80.5244 61.3628 80.8669C61.3628 81.2095 61.0856 81.4897 60.747 81.4897Z" fill="#6DE9A1"/>
<path d="M60.747 96.6733H51.6392C51.3005 96.6733 51.0234 96.3931 51.0234 96.0505C51.0234 95.708 51.3005 95.4277 51.6392 95.4277H60.747C61.0856 95.4277 61.3628 95.708 61.3628 96.0505C61.3628 96.3931 61.0856 96.6733 60.747 96.6733Z" fill="#6DE9A1"/>
<path d="M67.3312 112H11.6688C10.7451 112 10 111.24 10 110.312V63.1978C10 62.2636 10.7513 61.51 11.6688 61.51H67.3312C68.2549 61.51 69 62.2698 69 63.1978V110.312C69 111.246 68.2487 112 67.3312 112ZM11.6688 62.7556C11.4287 62.7556 11.2316 62.9549 11.2316 63.1978V110.312C11.2316 110.555 11.4287 110.754 11.6688 110.754H67.3312C67.5713 110.754 67.7684 110.555 67.7684 110.312V63.1978C67.7684 62.9549 67.5713 62.7556 67.3312 62.7556H11.6688Z" fill="white"/>
<path opacity="0.66" d="M67.3312 112H11.6688C10.7451 112 10 111.24 10 110.312V63.1978C10 62.2636 10.7513 61.51 11.6688 61.51H67.3312C68.2549 61.51 69 62.2698 69 63.1978V110.312C69 111.246 68.2487 112 67.3312 112ZM11.6688 62.7556C11.4287 62.7556 11.2316 62.9549 11.2316 63.1978V110.312C11.2316 110.555 11.4287 110.754 11.6688 110.754H67.3312C67.5713 110.754 67.7684 110.555 67.7684 110.312V63.1978C67.7684 62.9549 67.5713 62.7556 67.3312 62.7556H11.6688Z" fill="white"/>
<path d="M60.748 74.1213H17.3463C17.0076 74.1213 16.7305 73.8411 16.7305 73.4985C16.7305 73.156 17.0076 72.8757 17.3463 72.8757H60.748C61.0867 72.8757 61.3638 73.156 61.3638 73.4985C61.3638 73.8411 61.0867 74.1213 60.748 74.1213Z" fill="#6DE9A1"/>
<path d="M60.748 88.8569H17.3463C17.0076 88.8569 16.7305 88.5767 16.7305 88.2341C16.7305 87.8916 17.0076 87.6113 17.3463 87.6113H60.748C61.0867 87.6113 61.3638 87.8916 61.3638 88.2341C61.3638 88.5767 61.0867 88.8569 60.748 88.8569Z" fill="#6DE9A1"/>
<path d="M40.7468 81.4897H17.3463C17.0076 81.4897 16.7305 81.2095 16.7305 80.8669C16.7305 80.5244 17.0076 80.2441 17.3463 80.2441H40.7468C41.0854 80.2441 41.3626 80.5244 41.3626 80.8669C41.3626 81.2095 41.0854 81.4897 40.7468 81.4897Z" fill="#6DE9A1"/>
<path d="M40.7468 96.6733H17.3463C17.0076 96.6733 16.7305 96.3931 16.7305 96.0505C16.7305 95.708 17.0076 95.4277 17.3463 95.4277H40.7468C41.0854 95.4277 41.3626 95.708 41.3626 96.0505C41.3626 96.3931 41.0854 96.6733 40.7468 96.6733Z" fill="#6DE9A1"/>
<path d="M33.1293 103.704H17.3463C17.0076 103.704 16.7305 103.424 16.7305 103.082C16.7305 102.739 17.0076 102.459 17.3463 102.459H33.1293C33.468 102.459 33.7451 102.739 33.7451 103.082C33.7451 103.424 33.468 103.704 33.1293 103.704Z" fill="#6DE9A1"/>
</g>
<path d="M222.681 60.4683H194.819C193.573 60.4683 192.464 61.3824 192.055 62.7442L191.131 65.8162C190.722 67.178 189.613 68.0921 188.367 68.0921H148.48C146.863 68.0921 145.555 69.6094 145.555 71.4812V116.783C145.555 118.655 146.863 120.172 148.48 120.172H222.675C224.398 120.172 225.799 118.655 225.799 116.783V63.8573C225.799 61.9856 224.398 60.4683 222.675 60.4683H222.681Z" fill="#F79009"/>
<path d="M194.22 68.5708L195.205 65.4989C195.639 64.137 196.829 63.2229 198.155 63.2229H222.682C224.405 63.2229 225.806 64.7402 225.806 66.612V119.538C225.806 121.409 224.405 122.927 222.682 122.927H148.686C146.963 122.927 145.562 121.409 145.562 119.538V74.2358C145.562 72.3641 146.963 70.8468 148.686 70.8468H191.269C192.602 70.8468 193.786 69.9326 194.22 68.5708Z" fill="#F79009"/>
<path opacity="0.12" d="M196.027 71.6929L196.957 68.795C197.366 67.514 198.482 66.6497 199.74 66.6497H222.86C224.484 66.6497 225.804 68.0799 225.804 69.8397V119.724C225.804 121.491 224.484 122.915 222.86 122.915H153.116C151.492 122.915 150.172 121.484 150.172 119.724V77.0221C150.172 75.256 151.492 73.832 153.116 73.832H193.25C194.502 73.832 195.618 72.9739 196.033 71.6866L196.027 71.6929Z" fill="white"/>
<path d="M217.353 119.103H199.05C198.709 119.103 198.43 118.823 198.43 118.481C198.43 118.139 198.709 117.859 199.05 117.859H217.353C218.537 117.859 219.498 116.895 219.498 115.707V101.137C219.498 100.795 219.777 100.516 220.118 100.516C220.459 100.516 220.738 100.795 220.738 101.137V115.707C220.738 117.579 219.219 119.103 217.353 119.103Z" fill="white"/>
<path d="M4.14256 111.995H32.1839C33.436 111.995 34.5517 113.021 34.9669 114.55L35.8967 118.008C36.3058 119.538 37.4277 120.564 38.6798 120.564H78.8203C80.4442 120.564 81.7645 122.267 81.7645 124.376V175.336C81.7645 177.438 80.4442 179.148 78.8203 179.148H4.14256C2.40702 179.148 1 177.444 1 175.336V115.8C1 113.698 2.40702 111.988 4.14256 111.988V111.995Z" fill="#F79009"/>
<path opacity="0.12" d="M32.7913 121.105L31.7996 117.647C31.3595 116.117 30.1694 115.091 28.8306 115.091H4.14256C2.40702 115.091 1 116.795 1 118.903V178.439C1 180.541 2.40702 182.251 4.14256 182.251H78.6157C80.3512 182.251 81.7583 180.547 81.7583 178.439V127.479C81.7583 125.377 80.3512 123.667 78.6157 123.667H35.7603C34.4215 123.667 33.2314 122.641 32.7913 121.111V121.105Z" fill="white"/>
<path opacity="0.12" d="M30.9628 124.618L30.0269 121.36C29.6116 119.917 28.4897 118.947 27.2252 118.947H3.96281C2.32645 118.947 1 120.558 1 122.541V178.657C1 180.641 2.32645 182.251 3.96281 182.251H74.1591C75.7955 182.251 77.1219 180.641 77.1219 178.657V130.625C77.1219 128.642 75.7955 127.031 74.1591 127.031H33.7645C32.5 127.031 31.3781 126.061 30.9628 124.618Z" fill="white"/>
<path d="M6.72743 133.871C6.42371 133.871 6.17578 133.592 6.17578 133.25V124.618C6.17578 123.449 7.02495 122.498 8.06628 122.498H19.62C19.9237 122.498 20.1716 122.778 20.1716 123.12C20.1716 123.462 19.9237 123.742 19.62 123.742H8.06628C7.63239 123.742 7.28529 124.133 7.28529 124.618V133.25C7.28529 133.592 7.03735 133.871 6.73363 133.871H6.72743Z" fill="white"/>
<path d="M127.273 68.2359L42.7745 96.2392C40.7071 96.9243 39.5848 99.1611 40.2677 101.235L68.1803 186.008C68.8632 188.083 71.0927 189.208 73.16 188.523L157.659 160.52C159.726 159.835 160.848 157.598 160.166 155.524L132.253 70.7508C131.57 68.6768 129.341 67.5508 127.273 68.2359Z" fill="white"/>
<path d="M125.716 77.4672L49.3984 102.759L74.6086 179.325L150.927 154.033L125.716 77.4672Z" fill="#6DE9A1"/>
<path opacity="0.47" d="M73.9704 179.969L68.2617 162.632L76.6109 142.441C77.7638 139.648 80.8072 138.212 83.6894 139.114L99.1481 143.933C100.059 144.219 101.045 143.84 101.534 143.019L114.402 121.534C117.136 116.97 122.875 115.117 127.747 117.218L141.923 123.337L142.053 123.735L152.051 154.094L151.171 154.386L73.9704 179.975V179.969ZM70.2452 162.707L75.1543 177.612L149.702 152.9L140.417 124.712L127.016 118.928C122.987 117.187 118.258 118.723 116.001 122.492L103.134 143.977C102.198 145.537 100.338 146.253 98.6026 145.712L83.144 140.892C81.1853 140.283 79.115 141.253 78.334 143.156L70.2514 162.707H70.2452Z" fill="white"/>
<path opacity="0.47" d="M99.4398 120.266C95.2869 120.266 91.4129 117.623 90.0431 113.457C88.3323 108.264 91.1526 102.637 96.3344 100.92C101.51 99.2039 107.12 102.033 108.83 107.232C110.541 112.431 107.721 118.052 102.539 119.768C101.51 120.11 100.469 120.272 99.446 120.272L99.4398 120.266ZM99.4274 102.282C98.5968 102.282 97.7476 102.413 96.9109 102.692C92.7084 104.085 90.415 108.65 91.8034 112.872C93.1919 117.088 97.7476 119.389 101.95 117.996C106.153 116.603 108.446 112.039 107.058 107.817C105.942 104.434 102.799 102.288 99.4274 102.288V102.282Z" fill="white"/>
</g>
<defs>
<clipPath id="clip0_9479_28992">
<rect width="225" height="190" fill="white" transform="translate(0.5)"/>
</clipPath>
<clipPath id="clip1_9479_28992">
<rect x="166" y="130" width="59" height="49" rx="5" fill="white"/>
</clipPath>
<clipPath id="clip2_9479_28992">
<rect x="10" y="62" width="59" height="49" rx="5" fill="white"/>
</clipPath>
</defs>
</svg>
