<svg width="225" height="130" viewBox="0 0 225 130" fill="none" xmlns="http://www.w3.org/2000/svg">
<g clip-path="url(#clip0_9389_51878)">
<rect x="165" y="70" width="59" height="49" rx="5" fill="white"/>
<path d="M215.749 89.4897H206.641C206.303 89.4897 206.025 89.2095 206.025 88.8669C206.025 88.5244 206.303 88.2441 206.641 88.2441H215.749C216.088 88.2441 216.365 88.5244 216.365 88.8669C216.365 89.2095 216.088 89.4897 215.749 89.4897Z" fill="#2C5D40"/>
<path d="M215.749 104.673H206.641C206.303 104.673 206.025 104.393 206.025 104.051C206.025 103.708 206.303 103.428 206.641 103.428H215.749C216.088 103.428 216.365 103.708 216.365 104.051C216.365 104.393 216.088 104.673 215.749 104.673Z" fill="#2C5D40"/>
<path d="M222.331 120H166.669C165.745 120 165 119.24 165 118.312V71.1978C165 70.2636 165.751 69.51 166.669 69.51H222.331C223.255 69.51 224 70.2698 224 71.1978V118.312C224 119.246 223.249 120 222.331 120ZM166.669 70.7556C166.429 70.7556 166.232 70.9549 166.232 71.1978V118.312C166.232 118.555 166.429 118.754 166.669 118.754H222.331C222.571 118.754 222.768 118.555 222.768 118.312V71.1978C222.768 70.9549 222.571 70.7556 222.331 70.7556H166.669Z" fill="white"/>
<path opacity="0.66" d="M222.331 120H166.669C165.745 120 165 119.24 165 118.312V71.1978C165 70.2636 165.751 69.51 166.669 69.51H222.331C223.255 69.51 224 70.2698 224 71.1978V118.312C224 119.246 223.249 120 222.331 120ZM166.669 70.7556C166.429 70.7556 166.232 70.9549 166.232 71.1978V118.312C166.232 118.555 166.429 118.754 166.669 118.754H222.331C222.571 118.754 222.768 118.555 222.768 118.312V71.1978C222.768 70.9549 222.571 70.7556 222.331 70.7556H166.669Z" fill="white"/>
<path d="M215.746 82.1213H172.344C172.006 82.1213 171.729 81.8411 171.729 81.4985C171.729 81.156 172.006 80.8757 172.344 80.8757H215.746C216.085 80.8757 216.362 81.156 216.362 81.4985C216.362 81.8411 216.085 82.1213 215.746 82.1213Z" fill="#2C5D40"/>
<path d="M215.746 96.8569H172.344C172.006 96.8569 171.729 96.5767 171.729 96.2341C171.729 95.8916 172.006 95.6113 172.344 95.6113H215.746C216.085 95.6113 216.362 95.8916 216.362 96.2341C216.362 96.5767 216.085 96.8569 215.746 96.8569Z" fill="#2C5D40"/>
<path d="M195.745 89.4897H172.344C172.006 89.4897 171.729 89.2095 171.729 88.8669C171.729 88.5244 172.006 88.2441 172.344 88.2441H195.745C196.083 88.2441 196.361 88.5244 196.361 88.8669C196.361 89.2095 196.083 89.4897 195.745 89.4897Z" fill="#2C5D40"/>
<path d="M195.745 104.673H172.344C172.006 104.673 171.729 104.393 171.729 104.051C171.729 103.708 172.006 103.428 172.344 103.428H195.745C196.083 103.428 196.361 103.708 196.361 104.051C196.361 104.393 196.083 104.673 195.745 104.673Z" fill="#2C5D40"/>
<path d="M188.127 111.704H172.344C172.006 111.704 171.729 111.424 171.729 111.082C171.729 110.739 172.006 110.459 172.344 110.459H188.127C188.466 110.459 188.743 110.739 188.743 111.082C188.743 111.424 188.466 111.704 188.127 111.704Z" fill="#2C5D40"/>
</g>
<g clip-path="url(#clip1_9389_51878)">
<rect x="9" y="2" width="59" height="49" rx="5" fill="white"/>
<path d="M59.7489 21.4897H50.6412C50.3025 21.4897 50.0254 21.2095 50.0254 20.8669C50.0254 20.5244 50.3025 20.2441 50.6412 20.2441H59.7489C60.0876 20.2441 60.3647 20.5244 60.3647 20.8669C60.3647 21.2095 60.0876 21.4897 59.7489 21.4897Z" fill="#2C5D40"/>
<path d="M59.7489 36.6733H50.6412C50.3025 36.6733 50.0254 36.3931 50.0254 36.0505C50.0254 35.708 50.3025 35.4277 50.6412 35.4277H59.7489C60.0876 35.4277 60.3647 35.708 60.3647 36.0505C60.3647 36.3931 60.0876 36.6733 59.7489 36.6733Z" fill="#2C5D40"/>
<path d="M66.3312 52H10.6688C9.74512 52 9 51.2402 9 50.3122V3.19779C9 2.2636 9.75128 1.51001 10.6688 1.51001H66.3312C67.2549 1.51001 68 2.26982 68 3.19779V50.3122C68 51.2464 67.2487 52 66.3312 52ZM10.6688 2.7556C10.4287 2.7556 10.2316 2.9549 10.2316 3.19779V50.3122C10.2316 50.5551 10.4287 50.7544 10.6688 50.7544H66.3312C66.5713 50.7544 66.7684 50.5551 66.7684 50.3122V3.19779C66.7684 2.9549 66.5713 2.7556 66.3312 2.7556H10.6688Z" fill="white"/>
<path opacity="0.66" d="M66.3312 52H10.6688C9.74512 52 9 51.2402 9 50.3122V3.19779C9 2.2636 9.75128 1.51001 10.6688 1.51001H66.3312C67.2549 1.51001 68 2.26982 68 3.19779V50.3122C68 51.2464 67.2487 52 66.3312 52ZM10.6688 2.7556C10.4287 2.7556 10.2316 2.9549 10.2316 3.19779V50.3122C10.2316 50.5551 10.4287 50.7544 10.6688 50.7544H66.3312C66.5713 50.7544 66.7684 50.5551 66.7684 50.3122V3.19779C66.7684 2.9549 66.5713 2.7556 66.3312 2.7556H10.6688Z" fill="white"/>
<path d="M59.7461 14.1213H16.3443C16.0056 14.1213 15.7285 13.8411 15.7285 13.4985C15.7285 13.156 16.0056 12.8757 16.3443 12.8757H59.7461C60.0847 12.8757 60.3619 13.156 60.3619 13.4985C60.3619 13.8411 60.0847 14.1213 59.7461 14.1213Z" fill="#2C5D40"/>
<path d="M59.7461 28.8569H16.3443C16.0056 28.8569 15.7285 28.5767 15.7285 28.2341C15.7285 27.8916 16.0056 27.6113 16.3443 27.6113H59.7461C60.0847 27.6113 60.3619 27.8916 60.3619 28.2341C60.3619 28.5767 60.0847 28.8569 59.7461 28.8569Z" fill="#2C5D40"/>
<path d="M39.7448 21.4897H16.3443C16.0056 21.4897 15.7285 21.2095 15.7285 20.8669C15.7285 20.5244 16.0056 20.2441 16.3443 20.2441H39.7448C40.0835 20.2441 40.3606 20.5244 40.3606 20.8669C40.3606 21.2095 40.0835 21.4897 39.7448 21.4897Z" fill="#2C5D40"/>
<path d="M39.7448 36.6733H16.3443C16.0056 36.6733 15.7285 36.3931 15.7285 36.0505C15.7285 35.708 16.0056 35.4277 16.3443 35.4277H39.7448C40.0835 35.4277 40.3606 35.708 40.3606 36.0505C40.3606 36.3931 40.0835 36.6733 39.7448 36.6733Z" fill="#2C5D40"/>
<path d="M32.1273 43.7043H16.3443C16.0056 43.7043 15.7285 43.4241 15.7285 43.0815C15.7285 42.739 16.0056 42.4587 16.3443 42.4587H32.1273C32.466 42.4587 32.7431 42.739 32.7431 43.0815C32.7431 43.4241 32.466 43.7043 32.1273 43.7043Z" fill="#2C5D40"/>
</g>
<path d="M221.679 0.468262H193.817C192.571 0.468262 191.462 1.38238 191.053 2.74423L190.129 5.81616C189.72 7.17801 188.611 8.09213 187.365 8.09213H147.478C145.861 8.09213 144.553 9.60944 144.553 11.4812V56.7829C144.553 58.6547 145.861 60.172 147.478 60.172H221.673C223.396 60.172 224.797 58.6547 224.797 56.7829V3.85734C224.797 1.98558 223.396 0.468262 221.673 0.468262H221.679Z" fill="#F79009"/>
<path d="M193.218 8.5708L194.203 5.49887C194.637 4.13702 195.827 3.2229 197.154 3.2229H221.68C223.404 3.2229 224.804 4.74021 224.804 6.61198V59.5375C224.804 61.4093 223.404 62.9266 221.68 62.9266H147.685C145.961 62.9266 144.561 61.4093 144.561 59.5375V14.2358C144.561 12.3641 145.961 10.8468 147.685 10.8468H190.267C191.6 10.8468 192.784 9.93265 193.218 8.5708Z" fill="#F79009"/>
<path opacity="0.12" d="M195.025 11.6929L195.955 8.79503C196.364 7.51403 197.48 6.64966 198.738 6.64966H221.858C223.482 6.64966 224.802 8.07991 224.802 9.83974V59.7244C224.802 61.4905 223.482 62.9145 221.858 62.9145H152.114C150.49 62.9145 149.17 61.4843 149.17 59.7244V17.0221C149.17 15.256 150.49 13.832 152.114 13.832H192.248C193.5 13.832 194.616 12.9739 195.031 11.6866L195.025 11.6929Z" fill="white"/>
<path d="M216.349 59.1027H198.046C197.705 59.1027 197.426 58.8229 197.426 58.4808C197.426 58.1388 197.705 57.859 198.046 57.859H216.349C217.533 57.859 218.494 56.8951 218.494 55.7074V41.1375C218.494 40.7955 218.773 40.5156 219.114 40.5156C219.455 40.5156 219.734 40.7955 219.734 41.1375V55.7074C219.734 57.5792 218.215 59.1027 216.349 59.1027Z" fill="white"/>
<path d="M3.14256 51.9945H31.1839C32.436 51.9945 33.5517 53.0206 33.9669 54.5503L34.8967 58.0078C35.3058 59.5375 36.4277 60.5636 37.6798 60.5636H77.8203C79.4442 60.5636 80.7645 62.2674 80.7645 64.3755V115.336C80.7645 117.438 79.4442 119.148 77.8203 119.148H3.14256C1.40702 119.148 0 117.444 0 115.336V55.8002C0 53.6984 1.40702 51.9883 3.14256 51.9883V51.9945Z" fill="#F79009"/>
<path opacity="0.12" d="M31.7913 61.1046L30.7996 57.6471C30.3595 56.1174 29.1694 55.0913 27.8306 55.0913H3.14256C1.40702 55.0913 0 56.7952 0 58.9032V118.439C0 120.541 1.40702 122.251 3.14256 122.251H77.6157C79.3512 122.251 80.7583 120.547 80.7583 118.439V67.4785C80.7583 65.3767 79.3512 63.6666 77.6157 63.6666H34.7603C33.4215 63.6666 32.2314 62.6405 31.7913 61.1108V61.1046Z" fill="white"/>
<path opacity="0.12" d="M29.9628 64.6183L29.0269 61.3598C28.6116 59.9171 27.4897 58.947 26.2252 58.947H2.96281C1.32645 58.947 0 60.5576 0 62.5413V118.657C0 120.641 1.32645 122.251 2.96281 122.251H73.1591C74.7955 122.251 76.1219 120.641 76.1219 118.657V70.6253C76.1219 68.6416 74.7955 67.0311 73.1591 67.0311H32.7645C31.5 67.0311 30.3781 66.061 29.9628 64.6183Z" fill="white"/>
<path d="M5.72743 73.8714C5.42371 73.8714 5.17578 73.5916 5.17578 73.2496V64.6183C5.17578 63.4492 6.02495 62.4978 7.06628 62.4978H18.62C18.9237 62.4978 19.1716 62.7776 19.1716 63.1197C19.1716 63.4617 18.9237 63.7415 18.62 63.7415H7.06628C6.63239 63.7415 6.28529 64.1333 6.28529 64.6183V73.2496C6.28529 73.5916 6.03735 73.8714 5.73363 73.8714H5.72743Z" fill="white"/>
<path d="M126.271 8.23593L41.7725 36.2392C39.7052 36.9243 38.5829 39.1611 39.2658 41.2351L67.1784 126.008C67.8613 128.083 70.0908 129.208 72.1581 128.523L156.657 100.52C158.724 99.8349 159.847 97.5982 159.164 95.5242L131.251 10.7508C130.568 8.67675 128.339 7.55081 126.271 8.23593Z" fill="white"/>
<path d="M124.714 17.4672L48.3965 42.7593L73.6067 119.325L149.925 94.033L124.714 17.4672Z" fill="#2C5D40"/>
<path opacity="0.47" d="M72.9665 119.969L67.2578 102.632L75.607 82.4406C76.7599 79.6485 79.8033 78.212 82.6855 79.1137L98.1442 83.933C99.0553 84.2191 100.041 83.8398 100.531 83.0189L113.398 61.534C116.132 56.9697 121.871 55.1166 126.743 57.2184L140.919 63.3374L141.049 63.7354L151.047 94.094L150.167 94.3863L72.9665 119.975V119.969ZM69.2413 102.707L74.1504 117.612L148.698 92.9001L139.413 64.7117L126.012 58.9285C121.983 57.1873 117.254 58.7233 114.997 62.4917L102.13 83.9766C101.194 85.5374 99.3343 86.2525 97.5987 85.7115L82.14 80.8922C80.1814 80.2828 78.1111 81.2529 77.3301 83.1557L69.2475 102.707H69.2413Z" fill="white"/>
<path opacity="0.47" d="M98.4398 60.2659C94.2869 60.2659 90.4129 57.6231 89.0431 53.4567C87.3323 48.2642 90.1526 42.6365 95.3344 40.9202C100.51 39.2039 106.12 42.0333 107.83 47.232C109.541 52.4306 106.721 58.0521 101.539 59.7684C100.51 60.1105 99.4687 60.2721 98.446 60.2721L98.4398 60.2659ZM98.4274 42.2821C97.5968 42.2821 96.7476 42.4126 95.9109 42.6925C91.7084 44.0854 89.415 48.6498 90.8034 52.8721C92.1919 57.0883 96.7476 59.3891 100.95 57.9962C105.153 56.6032 107.446 52.0389 106.058 47.8165C104.942 44.4337 101.799 42.2883 98.4274 42.2883V42.2821Z" fill="white"/>
<defs>
<clipPath id="clip0_9389_51878">
<rect x="165" y="70" width="59" height="49" rx="5" fill="white"/>
</clipPath>
<clipPath id="clip1_9389_51878">
<rect x="9" y="2" width="59" height="49" rx="5" fill="white"/>
</clipPath>
</defs>
</svg>
