<svg width="28" height="28" viewBox="0 0 28 28" fill="none" xmlns="http://www.w3.org/2000/svg">
<path d="M6.46332 22.7735C5.75165 22.7735 5.08665 22.5285 4.60832 22.0735C4.00165 21.5018 3.70998 20.6385 3.81498 19.7051L4.24665 15.9251C4.32832 15.2135 4.75998 14.2685 5.26165 13.7551L14.84 3.61681C17.2317 1.08514 19.7283 1.01514 22.26 3.40681C24.7917 5.79847 24.8617 8.29514 22.47 10.8268L12.8917 20.9651C12.4017 21.4901 11.4917 21.9801 10.78 22.0968L7.02332 22.7385C6.82498 22.7501 6.64998 22.7735 6.46332 22.7735ZM18.585 3.39514C17.6867 3.39514 16.905 3.95514 16.1117 4.79514L6.53332 14.9451C6.29998 15.1901 6.03165 15.7735 5.98498 16.1118L5.55332 19.8918C5.50665 20.2768 5.59998 20.5918 5.80998 20.7901C6.01998 20.9885 6.33498 21.0585 6.71998 21.0001L10.4767 20.3585C10.815 20.3001 11.375 19.9968 11.6083 19.7518L21.1867 9.61347C22.6333 8.07347 23.1583 6.65014 21.0467 4.66681C20.1133 3.76847 19.3083 3.39514 18.585 3.39514Z" fill="#242424"/>
<path d="M20.2299 12.7737C20.2066 12.7737 20.1716 12.7737 20.1483 12.7737C16.5083 12.412 13.5799 9.64702 13.0199 6.03035C12.9499 5.55202 13.2766 5.10869 13.7549 5.02702C14.2333 4.95702 14.6766 5.28369 14.7583 5.76202C15.2016 8.58535 17.4883 10.7554 20.3349 11.0354C20.8133 11.082 21.1633 11.5137 21.1166 11.992C21.0583 12.4354 20.6733 12.7737 20.2299 12.7737Z" fill="#242424"/>
<path d="M24.5 26.541H3.5C3.02167 26.541 2.625 26.1443 2.625 25.666C2.625 25.1877 3.02167 24.791 3.5 24.791H24.5C24.9783 24.791 25.375 25.1877 25.375 25.666C25.375 26.1443 24.9783 26.541 24.5 26.541Z" fill="#242424"/>
</svg>
