<svg width="14" height="14" viewBox="0 0 14 14" fill="none" xmlns="http://www.w3.org/2000/svg">
<path d="M5.35533 6.43329C5.12782 6.66114 5.00002 6.96997 5 7.29196V8.99996H6.71867C7.04067 8.99996 7.35 8.87196 7.578 8.64396L12.6447 3.57462C12.7575 3.46183 12.847 3.32791 12.908 3.18052C12.9691 3.03313 13.0005 2.87516 13.0005 2.71562C13.0005 2.55609 12.9691 2.39811 12.908 2.25073C12.847 2.10334 12.7575 1.96942 12.6447 1.85662L12.144 1.35596C12.0312 1.24304 11.8972 1.15345 11.7498 1.09233C11.6023 1.03121 11.4443 0.999756 11.2847 0.999756C11.1251 0.999756 10.967 1.03121 10.8195 1.09233C10.6721 1.15345 10.5381 1.24304 10.4253 1.35596L5.35533 6.43329Z" stroke="#6DE9A1" stroke-linecap="round" stroke-linejoin="round"/>
<path d="M13 7C13 9.82867 13 11.2427 12.1213 12.1213C11.2427 13 9.828 13 7 13C4.17133 13 2.75733 13 1.87867 12.1213C1 11.2427 1 9.828 1 7C1 4.17133 1 2.75733 1.87867 1.87867C2.75733 1 4.172 1 7 1" stroke="#6DE9A1" stroke-linecap="round" stroke-linejoin="round"/>
</svg>
