<svg xmlns="http://www.w3.org/2000/svg" width="21" height="21" viewBox="0 0 21 21" fill="none">
  <path d="M14.8565 17.0671H7.02314C6.40647 17.0671 5.78147 16.6254 5.57314 16.0504L2.12314 6.39206C1.69814 5.17539 2.00647 4.61706 2.33981 4.36706C2.67314 4.11706 3.29814 3.96706 4.34814 4.71706L7.59814 7.04206C7.69814 7.10039 7.78981 7.12539 7.85647 7.10872C7.93147 7.08372 7.98981 7.01706 8.03147 6.90039L9.49814 2.99206C9.93981 1.82539 10.5898 1.65039 10.9398 1.65039C11.2898 1.65039 11.9398 1.82539 12.3815 2.99206L13.8481 6.90039C13.8898 7.00872 13.9481 7.08372 14.0231 7.10872C14.0981 7.13372 14.1898 7.10872 14.2815 7.03372L17.3315 4.85872C18.4481 4.05872 19.0981 4.21706 19.4565 4.47539C19.8065 4.74206 20.1315 5.33372 19.6731 6.62539L16.3065 16.0504C16.0981 16.6254 15.4731 17.0671 14.8565 17.0671ZM3.17314 5.46706C3.18981 5.58372 3.22314 5.75039 3.30647 5.96706L6.75647 15.6254C6.78981 15.7087 6.93981 15.8171 7.02314 15.8171H14.8565C14.9481 15.8171 15.0981 15.7087 15.1231 15.6254L18.4898 6.20872C18.6065 5.89206 18.6398 5.67539 18.6481 5.55039C18.5231 5.59206 18.3315 5.68372 18.0565 5.88372L15.0065 8.05872C14.5898 8.35039 14.0981 8.44206 13.6565 8.30872C13.2148 8.17539 12.8565 7.82539 12.6731 7.35039L11.2065 3.44206C11.0981 3.15039 10.9981 3.00872 10.9398 2.94206C10.8815 3.00872 10.7815 3.15039 10.6731 3.43372L9.20647 7.34206C9.03147 7.81706 8.67314 8.16706 8.22314 8.30039C7.78147 8.43372 7.28147 8.34206 6.87314 8.05039L3.62314 5.72539C3.43147 5.59206 3.28147 5.50872 3.17314 5.46706Z" fill="#131117"/>
  <path d="M15.5221 19.583H6.35547C6.0138 19.583 5.73047 19.2997 5.73047 18.958C5.73047 18.6163 6.0138 18.333 6.35547 18.333H15.5221C15.8638 18.333 16.1471 18.6163 16.1471 18.958C16.1471 19.2997 15.8638 19.583 15.5221 19.583Z" fill="#131117"/>
  <path d="M13.0221 12.917H8.85547C8.5138 12.917 8.23047 12.6337 8.23047 12.292C8.23047 11.9503 8.5138 11.667 8.85547 11.667H13.0221C13.3638 11.667 13.6471 11.9503 13.6471 12.292C13.6471 12.6337 13.3638 12.917 13.0221 12.917Z" fill="#131117"/>
</svg>
