<svg width="24" height="24" viewBox="0 0 24 24" fill="none" xmlns="http://www.w3.org/2000/svg">
<path d="M12 8V2H6C4.89543 2 4 2.89543 4 4V10.6684C3.40876 10.9493 3 11.5519 3 12.25V17.75C3 18.4481 3.40876 19.0507 4 19.3316V20C4 21.1046 4.89543 22 6 22H18C19.1046 22 20 21.1046 20 20V19.3316C20.5912 19.0507 21 18.4481 21 17.75V12.25C21 11.5519 20.5912 10.9493 20 10.6684V10H14C12.8954 10 12 9.10457 12 8ZM4.75 12H19.25C19.3881 12 19.5 12.1119 19.5 12.25V17.75C19.5 17.8881 19.3881 18 19.25 18H4.75C4.61193 18 4.5 17.8881 4.5 17.75V12.25C4.5 12.1119 4.61193 12 4.75 12ZM13.5 8V2.5L19.5 8.5H14C13.7239 8.5 13.5 8.27614 13.5 8Z" fill="#33311B"/>
<path fill-rule="evenodd" clip-rule="evenodd" d="M8.86189 13C9.17619 13 9.45814 13.0632 9.70641 13.19C9.95374 13.3163 10.1454 13.4742 10.2798 13.664C10.4156 13.8558 10.4853 14.0418 10.4853 14.2217C10.4853 14.3343 10.4448 14.4355 10.3665 14.5203C10.2862 14.6073 10.185 14.6527 10.0694 14.6527C9.94877 14.6527 9.85104 14.6218 9.78109 14.5556C9.74256 14.5191 9.70348 14.4685 9.6629 14.4033L9.60078 14.2946C9.51133 14.1265 9.40812 14.0033 9.29197 13.9234C9.17942 13.846 9.03867 13.8067 8.86691 13.8067C8.59327 13.8067 8.38062 13.9081 8.21956 14.1144C8.05437 14.326 7.96985 14.6337 7.96985 15.0401C7.96985 15.3129 8.00768 15.5371 8.08189 15.7126C8.15411 15.8834 8.2541 16.008 8.38216 16.0895C8.51166 16.1719 8.66407 16.2133 8.8418 16.2133C9.03451 16.2133 9.1938 16.1666 9.32286 16.074C9.45258 15.9809 9.5516 15.8426 9.61866 15.6595C9.65399 15.5516 9.69864 15.4619 9.75345 15.3904C9.82257 15.3003 9.92969 15.2569 10.0644 15.2569C10.181 15.2569 10.2839 15.2987 10.3675 15.3801C10.4521 15.4624 10.4953 15.5671 10.4953 15.6878C10.4953 15.8203 10.4633 15.961 10.4002 16.1099C10.3373 16.2587 10.2393 16.4031 10.1072 16.5433C9.97278 16.6858 9.80232 16.8008 9.59674 16.8884C9.39025 16.9764 9.1518 17.02 8.88197 17.02C8.68002 17.02 8.4954 17.0008 8.32811 16.962C8.15841 16.9227 8.00361 16.8612 7.86412 16.7775C7.72424 16.6936 7.5962 16.5835 7.4795 16.4471C7.37656 16.3246 7.28885 16.1877 7.21638 16.0366C7.14403 15.8857 7.08983 15.7249 7.05378 15.5543C7.01789 15.3845 7 15.2047 7 15.015C7 14.7067 7.04512 14.4289 7.13587 14.1822C7.2271 13.9342 7.3584 13.7211 7.5296 13.5436C7.70074 13.3662 7.90164 13.231 8.13148 13.1383C8.36026 13.0461 8.60398 13 8.86189 13ZM12.1606 13C12.3976 13 12.6045 13.0297 12.7813 13.0898C12.9584 13.15 13.1072 13.231 13.2268 13.3332C13.3461 13.435 13.4348 13.5438 13.4919 13.6598C13.549 13.7761 13.5782 13.8917 13.5782 14.0058C13.5782 14.1211 13.537 14.2261 13.4572 14.3164C13.3742 14.4105 13.2668 14.4594 13.1422 14.4594C13.0312 14.4594 12.9397 14.4293 12.8734 14.3654C12.8375 14.3309 12.8015 14.2845 12.7641 14.2249L12.7068 14.1251C12.6462 13.9993 12.575 13.9033 12.4939 13.8359C12.4227 13.7768 12.2953 13.7439 12.1104 13.7439C11.9389 13.7439 11.8054 13.7803 11.7071 13.8507C11.6157 13.9161 11.5749 13.9865 11.5749 14.0686C11.5749 14.1196 11.5878 14.1606 11.6137 14.1951C11.6442 14.2358 11.6877 14.2721 11.7451 14.3035C11.809 14.3385 11.8733 14.3657 11.9381 14.3853L12.1742 14.4499L12.4922 14.5299C12.6243 14.5652 12.7477 14.6028 12.8624 14.6427C13.0396 14.7045 13.1917 14.7801 13.3184 14.8699C13.4503 14.9635 13.5538 15.0824 13.6277 15.2257C13.7023 15.37 13.7388 15.5436 13.7388 15.7455C13.7388 15.9885 13.6757 16.2087 13.5497 16.4037C13.4235 16.599 13.2397 16.7512 13.0008 16.8598C12.765 16.9669 12.4881 17.02 12.1707 17.02C11.7898 17.02 11.4718 16.9472 11.2175 16.7993C11.0356 16.6919 10.8872 16.5482 10.7736 16.369C10.6587 16.1879 10.6 16.0082 10.6 15.8309C10.6 15.7126 10.6423 15.6084 10.7245 15.524C10.8079 15.4384 10.9156 15.3949 11.041 15.3949C11.1461 15.3949 11.2387 15.4299 11.3132 15.4986C11.3583 15.5403 11.3977 15.5932 11.4319 15.6571L11.4794 15.761C11.5234 15.8711 11.5704 15.962 11.6199 16.0336C11.6639 16.0972 11.7269 16.1506 11.8107 16.1939C11.8925 16.2362 12.0058 16.2585 12.1506 16.2585C12.3498 16.2585 12.5069 16.2135 12.6251 16.1254C12.7369 16.042 12.7891 15.9449 12.7891 15.8259C12.7891 15.7307 12.762 15.6586 12.7079 15.6033C12.6457 15.5397 12.5639 15.4903 12.4613 15.4553L12.26 15.3949L11.9981 15.3302C11.727 15.2667 11.4989 15.1921 11.3134 15.1059C11.1192 15.0156 10.9634 14.8912 10.8478 14.733C10.7291 14.5706 10.6703 14.3707 10.6703 14.1364C10.6703 13.9121 10.7321 13.7107 10.8554 13.5351C10.9783 13.3601 11.1548 13.2265 11.3825 13.1346C11.6052 13.0446 11.8647 13 12.1606 13ZM16.5815 13C16.6641 13 16.7417 13.0209 16.8126 13.0623C16.8827 13.1033 16.9386 13.1587 16.9789 13.2273C17.0192 13.296 17.0401 13.3677 17.0401 13.441C17.0401 13.4865 17.034 13.5344 17.0222 13.5848L17.0036 13.6544L16.9355 13.8498L16.0448 16.2533L15.9485 16.5182C15.914 16.6082 15.8736 16.688 15.8272 16.7577C15.776 16.8343 15.7082 16.8971 15.6247 16.9454C15.5379 16.9956 15.4346 17.02 15.3163 17.02C15.1983 17.02 15.0953 16.9961 15.0087 16.9471C14.9247 16.8995 14.8561 16.836 14.804 16.7574C14.7569 16.6863 14.7162 16.6063 14.6817 16.5173L13.6635 13.7426C13.6457 13.6959 13.6309 13.6458 13.6189 13.5925C13.6064 13.5368 13.6 13.4883 13.6 13.446C13.6 13.3315 13.646 13.2273 13.7334 13.1377C13.8225 13.0465 13.9364 13 14.0686 13C14.2287 13 14.3525 13.0535 14.4272 13.1638C14.4718 13.2296 14.5153 13.3207 14.5586 13.4373L15.3334 15.7276L16.0991 13.4538C16.1285 13.3685 16.1516 13.3059 16.1692 13.2647C16.198 13.197 16.2448 13.1372 16.3079 13.0857C16.379 13.0276 16.4714 13 16.5815 13Z" fill="#33311B"/>
</svg>
