<svg width="28" height="37" viewBox="0 0 28 37" fill="none" xmlns="http://www.w3.org/2000/svg">
<g clip-path="url(#clip0_12397_54729)">
<path d="M0 3.66667C0 1.64162 1.64162 0 3.66667 0H15.8667L28 12.025V33.3333C28 35.3584 26.3584 37 24.3333 37H3.66667C1.64162 37 0 35.3584 0 33.3333V3.66667Z" fill="#0DB664"/>
<path d="M18.3333 11.9167H27.4999L15.5833 0V9.16667C15.5833 10.6854 16.8145 11.9167 18.3333 11.9167Z" fill="white" fill-opacity="0.5"/>
</g>
<path d="M6.875 21.7708H20.625M11 21.9999V29.7916M6.875 25.8958H20.625M19.9375 17.6458H7.5625C7.1828 17.6458 6.875 17.9536 6.875 18.3333V29.3333C6.875 29.713 7.1828 30.0208 7.5625 30.0208H19.9375C20.3172 30.0208 20.625 29.713 20.625 29.3333V18.3333C20.625 17.9536 20.3172 17.6458 19.9375 17.6458Z" stroke="white" stroke-width="1.375" stroke-linecap="round" stroke-linejoin="round"/>
<defs>
<clipPath id="clip0_12397_54729">
<rect width="27.5" height="36.6667" fill="white"/>
</clipPath>
</defs>
</svg>
