 <svg width="24" height="24" viewBox="0 0 24 24" fill="none" xmlns="http://www.w3.org/2000/svg">
<g clip-path="url(#clip0_9343_49660)">
<path d="M18.594 20.197C18.604 20.1961 18.6133 20.1942 18.6229 20.1927C18.6347 20.1912 18.6462 20.1896 18.658 20.1875C18.6692 20.1853 18.6797 20.1823 18.6909 20.1795C18.7008 20.1771 18.7111 20.1749 18.721 20.1718C18.7319 20.1688 18.7421 20.1648 18.7527 20.1608C18.7626 20.1574 18.7726 20.154 18.7825 20.15C18.7921 20.1461 18.8017 20.1415 18.8111 20.1369C18.821 20.1323 18.8312 20.1277 18.8412 20.1224C18.8502 20.1175 18.8589 20.112 18.8679 20.1068C18.8775 20.101 18.8874 20.0957 18.8968 20.0893C18.9067 20.0829 18.9157 20.0755 18.9253 20.0687C18.9331 20.0629 18.9412 20.0574 18.9489 20.0512C18.9657 20.0377 18.9818 20.0233 18.997 20.0083C18.997 20.0083 18.997 20.0083 18.9974 20.008C18.9977 20.0077 18.9974 20.008 18.9977 20.0077C19.0129 19.9926 19.0275 19.9767 19.0411 19.9601C19.0473 19.9525 19.0529 19.9445 19.0588 19.9368C19.066 19.9276 19.0731 19.9184 19.0796 19.9086C19.0858 19.8994 19.0914 19.8896 19.0973 19.88C19.1026 19.8711 19.1082 19.8625 19.1132 19.8537C19.1184 19.8438 19.1228 19.834 19.1278 19.8239C19.1321 19.8144 19.1371 19.8052 19.1411 19.7957C19.1451 19.7858 19.1486 19.776 19.152 19.7662C19.1557 19.7558 19.1597 19.7456 19.1628 19.7352C19.1659 19.7254 19.1681 19.7153 19.1706 19.7055C19.1734 19.6947 19.1765 19.684 19.1787 19.6732C19.1808 19.6616 19.1824 19.6502 19.184 19.6386C19.1852 19.6291 19.1871 19.6195 19.1883 19.61C19.1905 19.5886 19.1914 19.5671 19.1914 19.5453L19.1914 14.9634C19.1914 14.6019 18.8949 14.3089 18.5291 14.3089C18.1634 14.3089 17.8669 14.6019 17.8669 14.9634L17.8669 17.9651L13.0364 13.1914C12.7778 12.9359 12.3583 12.9359 12.0997 13.1914C11.841 13.447 11.841 13.8616 12.0997 14.1172L16.9302 18.8908L13.8927 18.8908C13.527 18.8908 13.2304 19.1838 13.2304 19.5453C13.2304 19.9067 13.527 20.1998 13.8927 20.1998L18.5288 20.1998C18.5506 20.1998 18.5726 20.1985 18.5943 20.1964L18.594 20.197Z" fill="#64646C"/>
<path d="M10.2249 11.1953L5.30519 6.33344L8.39878 6.33344C8.77128 6.33344 9.07327 6.035 9.07327 5.66687C9.07327 5.29875 8.77128 5 8.39878 5L3.67666 5C3.65452 5 3.63239 5.00125 3.60994 5.00344C3.59982 5.00437 3.59033 5.00625 3.58053 5.0075C3.56851 5.00906 3.5565 5.01062 3.5448 5.01281C3.53341 5.015 3.52266 5.01812 3.51159 5.02094C3.50147 5.02344 3.49104 5.02562 3.48092 5.02875C3.47017 5.03187 3.45942 5.03594 3.44898 5.03969C3.43886 5.04344 3.42874 5.04656 3.41862 5.05062C3.4085 5.05469 3.39902 5.05937 3.38953 5.06406C3.37941 5.06875 3.36898 5.07344 3.35886 5.07875C3.34969 5.08375 3.34083 5.08937 3.33166 5.09469C3.32186 5.10062 3.31174 5.10594 3.30226 5.1125C3.29214 5.11906 3.28297 5.12656 3.27316 5.13344C3.26526 5.13937 3.25704 5.145 3.24913 5.15125C3.23205 5.165 3.21561 5.17969 3.20012 5.195C3.20012 5.195 3.20012 5.195 3.1998 5.19531C3.1998 5.19531 3.1998 5.19531 3.19948 5.19562C3.18399 5.21094 3.16913 5.22719 3.15521 5.24406C3.14889 5.25187 3.1432 5.26 3.13719 5.26781C3.12992 5.27719 3.12264 5.28656 3.116 5.29656C3.10968 5.30594 3.10399 5.31594 3.09798 5.32562C3.0926 5.33469 3.08691 5.34312 3.08185 5.3525C3.07647 5.3625 3.07205 5.37281 3.06699 5.38281C3.06256 5.3925 3.0575 5.40187 3.05339 5.41156C3.04928 5.42125 3.04612 5.43156 3.04232 5.44156C3.03853 5.45219 3.03442 5.4625 3.03094 5.47344C3.02778 5.48344 3.02556 5.49375 3.02303 5.50375C3.02019 5.51469 3.01702 5.52562 3.01481 5.53687C3.0126 5.54875 3.01102 5.56031 3.00943 5.57219C3.00817 5.58187 3.00627 5.59156 3.00501 5.60125C3.00279 5.62312 3.00153 5.645 3.00153 5.66687L3.00153 10.3334C3.00153 10.7016 3.30352 11 3.67603 11C4.04854 11 4.35052 10.7016 4.35052 10.3334L4.35052 7.27625L9.27028 12.1381C9.53369 12.3984 9.9609 12.3984 10.2243 12.1381C10.4877 11.8778 10.4877 11.4556 10.2243 11.1953L10.2249 11.1953Z" fill="#64646C"/>
</g>
<defs>
<clipPath id="clip0_9343_49660">
<rect width="17" height="16" fill="white" transform="translate(3 5)"/>
</clipPath>
</defs>
</svg>
