<svg width="24" height="24" viewBox="0 0 24 24" fill="none" xmlns="http://www.w3.org/2000/svg">
<g clip-path="url(#clip0_9479_27663)">
<path d="M18.594 20.1972C18.604 20.1963 18.6133 20.1945 18.6229 20.1929C18.6347 20.1914 18.6462 20.1899 18.658 20.1877C18.6692 20.1856 18.6797 20.1825 18.6909 20.1797C18.7008 20.1773 18.7111 20.1751 18.721 20.1721C18.7319 20.169 18.7421 20.165 18.7527 20.161C18.7626 20.1577 18.7726 20.1543 18.7825 20.1503C18.7921 20.1463 18.8017 20.1417 18.8111 20.1371C18.821 20.1325 18.8312 20.1279 18.8412 20.1227C18.8502 20.1178 18.8589 20.1122 18.8679 20.107C18.8775 20.1012 18.8874 20.096 18.8968 20.0895C18.9067 20.0831 18.9157 20.0757 18.9253 20.069C18.9331 20.0632 18.9412 20.0576 18.9489 20.0515C18.9657 20.038 18.9818 20.0236 18.997 20.0085C18.997 20.0085 18.997 20.0085 18.9974 20.0082C18.9977 20.0079 18.9974 20.0082 18.9977 20.0079C19.0129 19.9929 19.0275 19.9769 19.0411 19.9604C19.0473 19.9527 19.0529 19.9447 19.0588 19.937C19.066 19.9278 19.0731 19.9186 19.0796 19.9088C19.0858 19.8996 19.0914 19.8898 19.0973 19.8803C19.1026 19.8714 19.1082 19.8628 19.1132 19.8539C19.1184 19.8441 19.1228 19.8343 19.1278 19.8241C19.1321 19.8146 19.1371 19.8054 19.1411 19.7959C19.1451 19.7861 19.1486 19.7763 19.152 19.7664C19.1557 19.756 19.1597 19.7459 19.1628 19.7355C19.1659 19.7256 19.1681 19.7155 19.1706 19.7057C19.1734 19.695 19.1765 19.6842 19.1787 19.6735C19.1808 19.6618 19.1824 19.6505 19.184 19.6388C19.1852 19.6293 19.1871 19.6198 19.1883 19.6103C19.1905 19.5888 19.1914 19.5673 19.1914 19.5455L19.1914 14.9636C19.1914 14.6022 18.8949 14.3092 18.5291 14.3092C18.1634 14.3092 17.8669 14.6022 17.8669 14.9636L17.8669 17.9654L13.0364 13.1917C12.7778 12.9361 12.3583 12.9361 12.0997 13.1917C11.841 13.4473 11.841 13.8618 12.0997 14.1174L16.9302 18.8911L13.8927 18.8911C13.527 18.8911 13.2304 19.1841 13.2304 19.5455C13.2304 19.907 13.527 20.2 13.8927 20.2L18.5288 20.2C18.5506 20.2 18.5726 20.1988 18.5943 20.1966L18.594 20.1972Z" fill="white"/>
<path d="M10.2249 11.1953L5.30519 6.33344L8.39878 6.33344C8.77128 6.33344 9.07327 6.035 9.07327 5.66687C9.07327 5.29875 8.77128 5 8.39878 5L3.67666 5C3.65452 5 3.63239 5.00125 3.60994 5.00344C3.59982 5.00437 3.59033 5.00625 3.58053 5.0075C3.56851 5.00906 3.5565 5.01062 3.5448 5.01281C3.53341 5.015 3.52266 5.01812 3.51159 5.02094C3.50147 5.02344 3.49104 5.02562 3.48092 5.02875C3.47017 5.03187 3.45942 5.03594 3.44898 5.03969C3.43886 5.04344 3.42874 5.04656 3.41862 5.05062C3.4085 5.05469 3.39902 5.05937 3.38953 5.06406C3.37941 5.06875 3.36898 5.07344 3.35886 5.07875C3.34969 5.08375 3.34083 5.08937 3.33166 5.09469C3.32186 5.10062 3.31174 5.10594 3.30226 5.1125C3.29214 5.11906 3.28297 5.12656 3.27316 5.13344C3.26526 5.13937 3.25704 5.145 3.24913 5.15125C3.23205 5.165 3.21561 5.17969 3.20012 5.195C3.20012 5.195 3.20012 5.195 3.1998 5.19531C3.1998 5.19531 3.1998 5.19531 3.19948 5.19562C3.18399 5.21094 3.16913 5.22719 3.15521 5.24406C3.14889 5.25187 3.1432 5.26 3.13719 5.26781C3.12992 5.27719 3.12264 5.28656 3.116 5.29656C3.10968 5.30594 3.10399 5.31594 3.09798 5.32562C3.0926 5.33469 3.08691 5.34312 3.08185 5.3525C3.07647 5.3625 3.07205 5.37281 3.06699 5.38281C3.06256 5.3925 3.0575 5.40187 3.05339 5.41156C3.04928 5.42125 3.04612 5.43156 3.04232 5.44156C3.03853 5.45219 3.03442 5.4625 3.03094 5.47344C3.02778 5.48344 3.02556 5.49375 3.02303 5.50375C3.02019 5.51469 3.01702 5.52562 3.01481 5.53687C3.0126 5.54875 3.01102 5.56031 3.00943 5.57219C3.00817 5.58187 3.00627 5.59156 3.00501 5.60125C3.00279 5.62312 3.00153 5.645 3.00153 5.66687L3.00153 10.3334C3.00153 10.7016 3.30352 11 3.67603 11C4.04854 11 4.35052 10.7016 4.35052 10.3334L4.35052 7.27625L9.27028 12.1381C9.53369 12.3984 9.9609 12.3984 10.2243 12.1381C10.4877 11.8778 10.4877 11.4556 10.2243 11.1953L10.2249 11.1953Z" fill="white"/>
</g>
<defs>
<clipPath id="clip0_9479_27663">
<rect width="17" height="16" fill="white" transform="translate(3 5)"/>
</clipPath>
</defs>
</svg>
