<svg xmlns="http://www.w3.org/2000/svg" width="90" height="91" viewBox="0 0 90 91" fill="none">
  <path fill-rule="evenodd" clip-rule="evenodd" d="M44.9625 8.00049C24.2625 8.00049 7.5 24.8005 7.5 45.5005C7.5 66.2005 24.2625 83.0005 44.9625 83.0005C65.7 83.0005 82.5 66.2005 82.5 45.5005C82.5 24.8005 65.7 8.00049 44.9625 8.00049ZM45 75.5005C28.425 75.5005 15 62.0755 15 45.5005C15 28.9255 28.425 15.5005 45 15.5005C61.575 15.5005 75 28.9255 75 45.5005C75 62.0755 61.575 75.5005 45 75.5005ZM44.175 26.7507H43.95C42.45 26.7507 41.25 27.9507 41.25 29.4507V47.1507C41.25 48.4632 41.925 49.7007 43.0875 50.3757L58.65 59.7132C59.925 60.4632 61.575 60.0882 62.325 58.8132C63.1125 57.5382 62.7 55.8507 61.3875 55.1007L46.875 46.4757V29.4507C46.875 27.9507 45.675 26.7507 44.175 26.7507Z" fill="#707070"/>
</svg>
