<svg width="21" height="20" viewBox="0 0 21 20" fill="none" xmlns="http://www.w3.org/2000/svg">
<path d="M8.65815 18.9585C8.49149 18.9585 8.35815 18.9252 8.25815 18.8835C7.92482 18.7585 7.35815 18.3502 7.35815 17.0585V11.6835H5.40815C4.29149 11.6835 3.89149 11.1585 3.74982 10.8502C3.60815 10.5335 3.48315 9.89186 4.21649 9.05019L10.5248 1.88352C11.3748 0.916855 12.0665 0.983522 12.3998 1.10852C12.7332 1.23352 13.2998 1.64185 13.2998 2.93352V8.30852H15.2498C16.3665 8.30852 16.7665 8.83352 16.9082 9.14186C17.0498 9.45852 17.1748 10.1002 16.4415 10.9419L10.1332 18.1085C9.54149 18.7835 9.02482 18.9585 8.65815 18.9585ZM11.9415 2.28352C11.9165 2.31686 11.7415 2.40019 11.4665 2.71685L5.15815 9.88352C4.92482 10.1502 4.89149 10.3169 4.89149 10.3502C4.90815 10.3585 5.05815 10.4419 5.40815 10.4419H7.98315C8.32482 10.4419 8.60815 10.7252 8.60815 11.0669V17.0669C8.60815 17.4835 8.68315 17.6669 8.71649 17.7169C8.74149 17.6835 8.91649 17.6002 9.19149 17.2835L15.4998 10.1169C15.7332 9.85019 15.7665 9.68352 15.7665 9.65019C15.7498 9.64186 15.5998 9.55852 15.2498 9.55852H12.6748C12.3332 9.55852 12.0498 9.27519 12.0498 8.93352V2.93352C12.0582 2.51685 11.9748 2.34186 11.9415 2.28352Z" fill="#292D32"/>
</svg>
