<svg width="20" height="20" viewBox="0 0 20 20" fill="none" xmlns="http://www.w3.org/2000/svg">
<path d="M1.66797 6.66667V5.20833C1.66797 3.71256 2.88053 2.5 4.3763 2.5H6.7752C7.27249 2.5 7.74939 2.69754 8.10103 3.04917L9.3763 4.32445L7.21714 6.48361C7.09994 6.60082 6.94096 6.66667 6.7752 6.66667H1.66797ZM1.66797 7.91667V14.7917C1.66797 16.2874 2.88053 17.5 4.3763 17.5H15.6263C17.1221 17.5 18.3346 16.2874 18.3346 14.7917V7.29167C18.3346 5.79589 17.1221 4.58333 15.6263 4.58333H10.8852L8.10103 7.36749C7.74939 7.71912 7.27249 7.91667 6.7752 7.91667H1.66797Z" fill="#6DE9A1"/>
</svg>
