<svg width="20" height="20" viewBox="0 0 20 20" fill="none" xmlns="http://www.w3.org/2000/svg">
<path d="M1.6665 6.66667V5.20833C1.6665 3.71256 2.87906 2.5 4.37484 2.5H6.77374C7.27102 2.5 7.74793 2.69754 8.09956 3.04917L9.37484 4.32445L7.21568 6.48361C7.09847 6.60082 6.9395 6.66667 6.77374 6.66667H1.6665ZM1.6665 7.91667V14.7917C1.6665 16.2874 2.87906 17.5 4.37484 17.5H15.6248C17.1206 17.5 18.3332 16.2874 18.3332 14.7917V7.29167C18.3332 5.79589 17.1206 4.58333 15.6248 4.58333H10.8838L8.09956 7.36749C7.74793 7.71912 7.27102 7.91667 6.77374 7.91667H1.6665Z" fill="#2C5D40"/>
</svg>
