<svg width="18" height="18" viewBox="0 0 18 18" fill="none" xmlns="http://www.w3.org/2000/svg">
<path d="M9 11.8125C5.895 11.8125 3.375 9.375 3.375 6.375C3.375 3.375 5.895 0.9375 9 0.9375C12.105 0.9375 14.625 3.375 14.625 6.375C14.625 9.375 12.105 11.8125 9 11.8125ZM9 2.0625C6.5175 2.0625 4.5 3.9975 4.5 6.375C4.5 8.7525 6.5175 10.6875 9 10.6875C11.4825 10.6875 13.5 8.7525 13.5 6.375C13.5 3.9975 11.4825 2.0625 9 2.0625Z" fill="white"/>
<path d="M11.7155 17.0631C11.5055 17.0631 11.2955 17.0105 11.078 16.913L9.06048 15.9606C9.03798 15.9531 8.95549 15.9531 8.92549 15.9606L6.923 16.9056C6.4805 17.1156 6.0155 17.1081 5.6555 16.8756C5.2805 16.6356 5.063 16.1931 5.0705 15.6681L5.07798 10.1331C5.07798 9.82556 5.31798 9.55556 5.64048 9.57056C5.94798 9.57056 6.20298 9.82556 6.20298 10.1331L6.1955 15.6681C6.1955 15.8331 6.2405 15.9156 6.263 15.9231C6.278 15.9306 6.3455 15.9381 6.4505 15.8856L8.46049 14.9331C8.78299 14.7831 9.2255 14.7831 9.548 14.9331L11.5655 15.8856C11.6705 15.9381 11.738 15.9306 11.753 15.9231C11.7755 15.9081 11.8205 15.8256 11.8205 15.6681V9.99805C11.8205 9.69055 12.0755 9.43555 12.383 9.43555C12.6905 9.43555 12.9455 9.69055 12.9455 9.99805V15.6681C12.9455 16.2006 12.728 16.6356 12.353 16.8756C12.158 17.0031 11.9405 17.0631 11.7155 17.0631Z" fill="white"/>
</svg>
