<svg width="20" height="20" viewBox="0 0 20 20" fill="none" xmlns="http://www.w3.org/2000/svg">
<path d="M7.63216 9.68317C7.60716 9.68317 7.5905 9.68317 7.5655 9.68317C7.52383 9.67484 7.46549 9.67484 7.41549 9.68317C4.99883 9.60817 3.17383 7.70817 3.17383 5.3665C3.17383 2.98317 5.11549 1.0415 7.49883 1.0415C9.88216 1.0415 11.8238 2.98317 11.8238 5.3665C11.8155 7.70817 9.98216 9.60817 7.65716 9.68317C7.64883 9.68317 7.64049 9.68317 7.63216 9.68317ZM7.49883 2.2915C5.80716 2.2915 4.42383 3.67484 4.42383 5.3665C4.42383 7.03317 5.72383 8.37484 7.38216 8.43317C7.43216 8.42484 7.5405 8.42484 7.64883 8.43317C9.28216 8.35817 10.5655 7.0165 10.5738 5.3665C10.5738 3.67484 9.1905 2.2915 7.49883 2.2915Z" fill="#4B4B4E"/>
<path d="M13.784 9.79183C13.759 9.79183 13.734 9.79183 13.709 9.7835C13.3673 9.81683 13.0173 9.57516 12.984 9.2335C12.9506 8.89183 13.159 8.5835 13.5006 8.54183C13.6006 8.5335 13.709 8.5335 13.8006 8.5335C15.0173 8.46683 15.9673 7.46683 15.9673 6.24183C15.9673 4.97516 14.9423 3.95016 13.6756 3.95016C13.334 3.9585 13.0506 3.67516 13.0506 3.3335C13.0506 2.99183 13.334 2.7085 13.6756 2.7085C15.6256 2.7085 17.2173 4.30016 17.2173 6.25016C17.2173 8.16683 15.7173 9.71683 13.809 9.79183C13.8006 9.79183 13.7923 9.79183 13.784 9.79183Z" fill="#4B4B4E"/>
<path d="M7.64036 18.7918C6.00703 18.7918 4.36536 18.3752 3.1237 17.5418C1.96536 16.7752 1.33203 15.7252 1.33203 14.5835C1.33203 13.4418 1.96536 12.3835 3.1237 11.6085C5.6237 9.95016 9.6737 9.95016 12.157 11.6085C13.307 12.3752 13.9487 13.4252 13.9487 14.5668C13.9487 15.7085 13.3154 16.7668 12.157 17.5418C10.907 18.3752 9.2737 18.7918 7.64036 18.7918ZM3.81536 12.6585C3.01536 13.1918 2.58203 13.8752 2.58203 14.5918C2.58203 15.3002 3.0237 15.9835 3.81536 16.5085C5.89036 17.9002 9.39036 17.9002 11.4654 16.5085C12.2654 15.9752 12.6987 15.2918 12.6987 14.5752C12.6987 13.8668 12.257 13.1835 11.4654 12.6585C9.39036 11.2752 5.89036 11.2752 3.81536 12.6585Z" fill="#4B4B4E"/>
<path d="M15.2825 17.2917C14.9908 17.2917 14.7325 17.0917 14.6742 16.7917C14.6075 16.45 14.8242 16.125 15.1575 16.05C15.6825 15.9417 16.1658 15.7333 16.5408 15.4417C17.0158 15.0833 17.2742 14.6333 17.2742 14.1583C17.2742 13.6833 17.0158 13.2333 16.5492 12.8833C16.1825 12.6 15.7242 12.4 15.1825 12.275C14.8492 12.2 14.6325 11.8667 14.7075 11.525C14.7825 11.1917 15.1158 10.975 15.4575 11.05C16.1742 11.2083 16.7992 11.4917 17.3075 11.8833C18.0825 12.4667 18.5242 13.2917 18.5242 14.1583C18.5242 15.025 18.0742 15.85 17.2992 16.4417C16.7825 16.8417 16.1325 17.1333 15.4158 17.275C15.3658 17.2917 15.3242 17.2917 15.2825 17.2917Z" fill="#292D32"/>
</svg>
