<svg width="16" height="18" viewBox="0 0 16 18" fill="none" xmlns="http://www.w3.org/2000/svg">
<path d="M12.9807 2.75035C12.6563 2.74989 12.3359 2.82224 12.0432 2.96207V2.43785C12.0434 1.91648 11.8574 1.41218 11.5186 1.01584C11.1799 0.619491 10.7108 0.357157 10.1957 0.276109C9.68071 0.195061 9.15367 0.30063 8.70959 0.573791C8.26551 0.846952 7.93359 1.26974 7.77366 1.76597C7.44053 1.58528 7.06618 1.49424 6.68729 1.50176C6.30839 1.50928 5.93795 1.6151 5.61226 1.80886C5.28656 2.00262 5.0168 2.27767 4.82939 2.60706C4.64198 2.93645 4.54336 3.30888 4.54319 3.68785V8.68785L4.24475 8.20894C3.95488 7.7087 3.47875 7.34356 2.92046 7.19333C2.36216 7.0431 1.76709 7.12001 1.26532 7.40723C0.763556 7.69445 0.395903 8.16864 0.242726 8.72614C0.0895491 9.28364 0.163306 9.8791 0.447875 10.3824C1.69787 13.0207 2.70803 14.8918 3.8635 16.0613C5.03069 17.2457 6.35569 17.7503 8.29319 17.7503C10.1159 17.7483 11.8634 17.0233 13.1523 15.7344C14.4411 14.4456 15.1661 12.6981 15.1682 10.8753V4.93785C15.1682 4.35769 14.9377 3.80129 14.5275 3.39105C14.1172 2.98082 13.5608 2.75035 12.9807 2.75035ZM13.9182 10.8753C13.9165 12.3667 13.3234 13.7965 12.2688 14.851C11.2143 15.9055 9.78452 16.4987 8.29319 16.5003C6.701 16.5003 5.67522 16.1191 4.75178 15.1839C3.71819 14.1363 2.76662 12.3597 1.56662 9.82691C1.55964 9.81139 1.55182 9.79627 1.54319 9.7816C1.41887 9.56621 1.3852 9.31026 1.44959 9.07006C1.51398 8.82985 1.67116 8.62506 1.88655 8.50074C2.10193 8.37642 2.35788 8.34275 2.59809 8.40714C2.8383 8.47154 3.04309 8.62871 3.16741 8.8441C3.17064 8.85033 3.1743 8.85633 3.17834 8.86207L4.63694 11.2058C4.70859 11.3214 4.816 11.4105 4.94288 11.4596C5.06975 11.5086 5.20916 11.5149 5.33994 11.4775C5.47073 11.4401 5.58574 11.3611 5.66754 11.2524C5.74934 11.1438 5.79346 11.0114 5.79319 10.8753V3.68785C5.79319 3.43921 5.89196 3.20075 6.06777 3.02493C6.24359 2.84912 6.48205 2.75035 6.73069 2.75035C6.97933 2.75035 7.21778 2.84912 7.3936 3.02493C7.56942 3.20075 7.66819 3.43921 7.66819 3.68785V8.37535C7.66819 8.54111 7.73404 8.70008 7.85125 8.81729C7.96846 8.9345 8.12743 9.00035 8.29319 9.00035C8.45895 9.00035 8.61792 8.9345 8.73513 8.81729C8.85234 8.70008 8.91819 8.54111 8.91819 8.37535V2.43785C8.91819 2.18921 9.01696 1.95075 9.19277 1.77493C9.36859 1.59912 9.60705 1.50035 9.85569 1.50035C10.1043 1.50035 10.3428 1.59912 10.5186 1.77493C10.6944 1.95075 10.7932 2.18921 10.7932 2.43785V8.37535C10.7932 8.54111 10.859 8.70008 10.9762 8.81729C11.0935 8.9345 11.2524 9.00035 11.4182 9.00035C11.5839 9.00035 11.7429 8.9345 11.8601 8.81729C11.9773 8.70008 12.0432 8.54111 12.0432 8.37535V4.93785C12.0432 4.68921 12.142 4.45075 12.3178 4.27493C12.4936 4.09912 12.732 4.00035 12.9807 4.00035C13.2293 4.00035 13.4678 4.09912 13.6436 4.27493C13.8194 4.45075 13.9182 4.68921 13.9182 4.93785V10.8753Z" fill="#333333"/>
</svg>
