<svg xmlns="http://www.w3.org/2000/svg" width="19" height="19" viewBox="0 0 19 19" fill="none">
  <path d="M7.93091 17.687C7.78091 17.687 7.66091 17.657 7.57091 17.6195C7.27091 17.507 6.76091 17.1395 6.76091 15.977V11.1395H5.00591C4.00091 11.1395 3.64091 10.667 3.51341 10.3895C3.38591 10.1045 3.27341 9.52699 3.93341 8.76949L9.61091 2.31949C10.3759 1.44949 10.9984 1.50949 11.2984 1.62199C11.5984 1.73449 12.1084 2.10199 12.1084 3.26449V8.10199H13.8634C14.8684 8.10199 15.2284 8.57449 15.3559 8.85199C15.4834 9.13699 15.5959 9.71449 14.9359 10.472L9.25841 16.922C8.72591 17.5295 8.26091 17.687 7.93091 17.687ZM10.8859 2.67949C10.8634 2.70949 10.7059 2.78449 10.4584 3.06949L4.78091 9.51949C4.57091 9.75949 4.54091 9.90949 4.54091 9.93949C4.55591 9.94699 4.69091 10.022 5.00591 10.022H7.32341C7.63091 10.022 7.88591 10.277 7.88591 10.5845V15.9845C7.88591 16.3595 7.95341 16.5245 7.98341 16.5695C8.00591 16.5395 8.16341 16.4645 8.41091 16.1795L14.0884 9.72949C14.2984 9.48949 14.3284 9.33949 14.3284 9.30949C14.3134 9.30199 14.1784 9.22699 13.8634 9.22699H11.5459C11.2384 9.22699 10.9834 8.97199 10.9834 8.66449V3.26449C10.9909 2.88949 10.9159 2.73199 10.8859 2.67949Z" fill="#292D32"/>
</svg>
