<svg xmlns="http://www.w3.org/2000/svg" width="88" height="88" viewBox="0 0 88 88" fill="none">
  <path fill-rule="evenodd" clip-rule="evenodd" d="M44.0003 84.3337C66.2758 84.3337 84.3337 66.2758 84.3337 44.0003C84.3337 21.7248 66.2758 3.66699 44.0003 3.66699C21.7248 3.66699 3.66699 21.7248 3.66699 44.0003C3.66699 66.2758 21.7248 84.3337 44.0003 84.3337ZM35.5931 41.2232C34.1611 39.7913 31.8395 39.7913 30.4076 41.2232C28.9757 42.6551 28.9757 44.9767 30.4076 46.4086L40.7785 56.7795L58.9276 38.6305C60.3595 37.1985 60.3595 34.8769 58.9276 33.445C57.4957 32.0131 55.1741 32.0131 53.7421 33.445L40.7785 46.4086L35.5931 41.2232Z" fill="#418C61"/>
</svg>
