<svg xmlns="http://www.w3.org/2000/svg" width="21" height="21" viewBox="0 0 21 21" fill="none">
  <g clip-path="url(#clip0_13142_69535)">
    <path d="M15.5781 5.6416C18.0615 5.6416 20.0781 7.62494 20.0781 10.1249C20.0781 12.5916 18.0615 14.5999 15.5781 14.5999C14.3698 14.5999 13.2448 14.1333 12.3948 13.2916L10.0781 11.2416L7.71979 13.3333C6.91146 14.1416 5.77812 14.6083 4.57812 14.6083C2.09479 14.6083 0.078125 12.5916 0.078125 10.1249C0.078125 7.65827 2.09479 5.6416 4.57812 5.6416C5.77812 5.6416 6.91146 6.10827 7.76146 6.95827L10.0781 9.00827L12.4365 6.9166C13.2448 6.10827 14.3781 5.6416 15.5781 5.6416ZM6.57812 12.1166L8.82812 10.1249L6.61146 8.1666C6.04479 7.59993 5.33646 7.30827 4.57812 7.30827C3.01979 7.30827 1.74479 8.5666 1.74479 10.1249C1.74479 11.6833 3.01979 12.9416 4.57812 12.9416C5.33646 12.9416 6.04479 12.6499 6.57812 12.1166ZM13.5781 8.13327L11.3281 10.1249L13.5448 12.0833C14.1115 12.6499 14.8281 12.9416 15.5781 12.9416C17.1365 12.9416 18.4115 11.6833 18.4115 10.1249C18.4115 8.5666 17.1365 7.30827 15.5781 7.30827C14.8198 7.30827 14.1115 7.59993 13.5781 8.13327Z" fill="#131117"/>
  </g>
  <defs>
    <clipPath id="clip0_13142_69535">
      <rect width="20" height="20" fill="white" transform="translate(0.078125 0.125)"/>
    </clipPath>
  </defs>
</svg>
