<svg xmlns="http://www.w3.org/2000/svg" width="20" height="20" viewBox="0 0 20 20" fill="none">
  <path d="M5.1506 18.9583C5.06727 18.9583 4.9756 18.95 4.9006 18.9416L3.09227 18.6916C2.2256 18.575 1.44227 17.8 1.30894 16.9166L1.05894 15.0916C0.975602 14.5083 1.2256 13.75 1.64227 13.325L5.3006 9.66664C4.70894 7.29998 5.39227 4.79998 7.13394 3.07498C9.83394 0.38331 14.2256 0.374977 16.9339 3.07498C18.2423 4.38331 18.9589 6.12498 18.9589 7.97498C18.9589 9.82498 18.2423 11.5666 16.9339 12.875C15.1839 14.6083 12.6923 15.2916 10.3423 14.6916L6.6756 18.35C6.3256 18.7166 5.7006 18.9583 5.1506 18.9583ZM12.0256 2.29998C10.5673 2.29998 9.11727 2.84998 8.00894 3.95831C6.50894 5.44998 5.96727 7.63331 6.59227 9.66664C6.65894 9.89164 6.6006 10.125 6.43394 10.2916L2.51727 14.2083C2.3756 14.35 2.25894 14.7166 2.28394 14.9083L2.53394 16.7333C2.58394 17.05 2.9256 17.4083 3.24227 17.45L5.05894 17.7C5.25894 17.7333 5.6256 17.6166 5.76727 17.475L9.7006 13.55C9.86727 13.3833 10.1089 13.3333 10.3256 13.4C12.3339 14.0333 14.5256 13.4916 16.0256 11.9916C17.0923 10.925 17.6839 9.49164 17.6839 7.97498C17.6839 6.44998 17.0923 5.02498 16.0256 3.95831C14.9423 2.85831 13.4839 2.29998 12.0256 2.29998Z" fill="#4B4B4E"/>
  <path d="M7.65677 17.1167C7.49844 17.1167 7.3401 17.0583 7.2151 16.9333L5.29844 15.0167C5.05677 14.775 5.05677 14.375 5.29844 14.1333C5.5401 13.8917 5.9401 13.8917 6.18177 14.1333L8.09844 16.05C8.3401 16.2917 8.3401 16.6917 8.09844 16.9333C7.97344 17.0583 7.8151 17.1167 7.65677 17.1167Z" fill="#4B4B4E"/>
  <path d="M12.082 9.79169C11.0487 9.79169 10.207 8.95002 10.207 7.91669C10.207 6.88335 11.0487 6.04169 12.082 6.04169C13.1154 6.04169 13.957 6.88335 13.957 7.91669C13.957 8.95002 13.1154 9.79169 12.082 9.79169ZM12.082 7.29169C11.7404 7.29169 11.457 7.57502 11.457 7.91669C11.457 8.25835 11.7404 8.54169 12.082 8.54169C12.4237 8.54169 12.707 8.25835 12.707 7.91669C12.707 7.57502 12.4237 7.29169 12.082 7.29169Z" fill="#4B4B4E"/>
</svg>