<svg xmlns="http://www.w3.org/2000/svg" width="16" height="16" viewBox="0 0 16 16" fill="none">
  <g clip-path="url(#clip0_4565_1430)">
    <path d="M13.7131 12.7168L13.3397 12.3371L13.1211 12.5504L13.1957 12.8459L13.7131 12.7179V12.7168ZM14.4 15.4667L14.2709 15.984C14.3602 16.0062 14.4537 16.005 14.5424 15.9804C14.6311 15.9558 14.7119 15.9087 14.7769 15.8436C14.842 15.7785 14.8891 15.6977 14.9137 15.6091C14.9383 15.5204 14.9396 15.4269 14.9173 15.3376L14.4 15.4656V15.4667ZM10.1333 14.4L9.75573 14.0224L9.09013 14.6891L10.0043 14.9173L10.1333 14.4ZM10.16 14.3733L10.5365 14.7509C10.6144 14.6734 10.6664 14.5737 10.6854 14.4655C10.7044 14.3573 10.6896 14.2459 10.6429 14.1464C10.5962 14.047 10.52 13.9644 10.4245 13.9099C10.3291 13.8555 10.2192 13.8318 10.1099 13.8421L10.16 14.3733ZM7.46667 0V2.66667H8.53333V0H7.46667ZM9.6 2.13333H6.4V3.2H9.6V2.13333ZM16 8.53333C16 6.83595 15.3257 5.20808 14.1255 4.00785C12.9253 2.80762 11.2974 2.13333 9.6 2.13333V3.2C10.3004 3.2 10.9939 3.33795 11.641 3.60598C12.288 3.874 12.876 4.26685 13.3712 4.7621C13.8665 5.25734 14.2593 5.84528 14.5274 6.49235C14.7954 7.13942 14.9333 7.83295 14.9333 8.53333H16ZM14.0864 13.0976C14.6933 12.5024 15.1753 11.792 15.5039 11.008C15.8325 10.2241 16.0012 9.38339 16 8.53333H14.9333C14.9345 9.2418 14.7941 9.94229 14.5202 10.5957C14.2463 11.2491 13.8457 11.8412 13.3397 12.3371L14.0864 13.0976ZM14.9184 15.3376L14.2293 12.5867L13.1947 12.8448L13.8816 15.5947L14.9163 15.3365L14.9184 15.3376ZM10.0043 14.9173L14.2709 15.984L14.5291 14.9493L10.2624 13.8827L10.0043 14.9173ZM9.7824 13.9968L9.75573 14.0224L10.5109 14.7765L10.5365 14.7509L9.7824 13.9968ZM9.6 14.9333C9.80587 14.9333 10.0096 14.9227 10.2101 14.9045L10.1099 13.8421C9.94039 13.8584 9.77025 13.8665 9.6 13.8667V14.9333ZM6.4 14.9333H9.6V13.8667H6.4V14.9333ZM0 8.53333C0 10.2307 0.674284 11.8586 1.87452 13.0588C3.07475 14.259 4.70261 14.9333 6.4 14.9333V13.8667C5.69962 13.8667 5.00609 13.7287 4.35902 13.4607C3.71195 13.1927 3.12401 12.7998 2.62876 12.3046C1.62857 11.3044 1.06667 9.94782 1.06667 8.53333H0ZM6.4 2.13333C4.70261 2.13333 3.07475 2.80762 1.87452 4.00785C0.674284 5.20808 0 6.83595 0 8.53333H1.06667C1.06667 7.11884 1.62857 5.76229 2.62876 4.7621C3.62896 3.7619 4.98551 3.2 6.4 3.2V2.13333ZM8 8.53333C7.57565 8.53333 7.16869 8.36476 6.86863 8.0647C6.56857 7.76465 6.4 7.35768 6.4 6.93333H5.33333C5.33333 7.64058 5.61428 8.31885 6.11438 8.81895C6.61448 9.31905 7.29276 9.6 8 9.6V8.53333ZM9.6 6.93333C9.6 7.35768 9.43143 7.76465 9.13137 8.0647C8.83131 8.36476 8.42435 8.53333 8 8.53333V9.6C8.70724 9.6 9.38552 9.31905 9.88562 8.81895C10.3857 8.31885 10.6667 7.64058 10.6667 6.93333H9.6ZM8 5.33333C8.42435 5.33333 8.83131 5.5019 9.13137 5.80196C9.43143 6.10202 9.6 6.50899 9.6 6.93333H10.6667C10.6667 6.22609 10.3857 5.54781 9.88562 5.04772C9.38552 4.54762 8.70724 4.26667 8 4.26667V5.33333ZM8 4.26667C7.29276 4.26667 6.61448 4.54762 6.11438 5.04772C5.61428 5.54781 5.33333 6.22609 5.33333 6.93333H6.4C6.4 6.50899 6.56857 6.10202 6.86863 5.80196C7.16869 5.5019 7.57565 5.33333 8 5.33333V4.26667ZM8 12.8C9.13493 12.8 10.1781 12.4053 11.0005 11.7472L10.3328 10.9152C9.6928 11.4272 8.8832 11.7333 8 11.7333V12.8ZM4.99947 11.7472C5.8208 12.4053 6.86613 12.8 8 12.8V11.7333C7.15181 11.7349 6.32861 11.4462 5.6672 10.9152L4.99947 11.7472Z" fill="#FF640D"/>
  </g>
  <defs>
    <clipPath id="clip0_4565_1430">
      <rect width="16" height="16" fill="white"/>
    </clipPath>
  </defs>
</svg>