<svg xmlns="http://www.w3.org/2000/svg" width="20" height="20" viewBox="0 0 20 20" fill="none">
  <path d="M12.917 15.9584H5.41699C2.63366 15.9584 1.04199 14.3667 1.04199 11.5834V7.08337C1.04199 4.30004 2.63366 2.70837 5.41699 2.70837H7.66699C7.86699 2.70837 8.05866 2.80842 8.17533 2.96676C8.29199 3.12509 8.32533 3.3417 8.25866 3.53337C8.16699 3.7917 8.12533 4.07504 8.12533 4.37504V7.62506C8.12533 8.25839 8.31699 8.78336 8.68366 9.15002C9.05033 9.51669 9.57533 9.70839 10.2087 9.70839C10.5503 9.70839 10.8337 9.99173 10.8337 10.3334V11.3334L13.1087 9.80839C13.2087 9.74172 13.3337 9.70005 13.4587 9.70005H15.6253C15.9253 9.70005 16.2087 9.65836 16.467 9.56669C16.6587 9.50002 16.867 9.53334 17.0337 9.65C17.2003 9.76667 17.292 9.95833 17.292 10.1583V11.5751C17.292 14.3667 15.7003 15.9584 12.917 15.9584ZM5.41699 3.95837C3.31699 3.95837 2.29199 4.98337 2.29199 7.08337V11.5834C2.29199 13.6834 3.31699 14.7084 5.41699 14.7084H12.917C15.017 14.7084 16.042 13.6834 16.042 11.5834V10.9334C15.9087 10.95 15.767 10.9584 15.6253 10.9584H13.6503L11.4003 12.4583C11.0337 12.6917 10.5753 12.7167 10.2003 12.5084C9.82533 12.3084 9.59199 11.9167 9.59199 11.4917V10.9083C8.89199 10.8 8.27533 10.4917 7.80866 10.0334C7.21699 9.44174 6.88366 8.58339 6.88366 7.62506V4.37504C6.88366 4.23337 6.89199 4.09171 6.90033 3.95837H5.41699Z" fill="#4B4B4E"/>
  <path d="M10.75 12.65C10.5583 12.65 10.3667 12.6 10.1917 12.5083C9.81667 12.3083 9.58333 11.9167 9.58333 11.4917V10.9083C8.88333 10.7999 8.26667 10.4917 7.8 10.0333C7.20833 9.44166 6.875 8.58331 6.875 7.62498V4.37496C6.875 3.93329 6.94167 3.51663 7.075 3.1333C7.54167 1.82497 8.70833 1.04163 10.2083 1.04163H15.625C17.5833 1.04163 18.9583 2.40829 18.9583 4.37496V7.62498C18.9583 9.12498 18.1833 10.2917 16.875 10.7583C16.475 10.8917 16.0583 10.9583 15.625 10.9583H13.65L11.4 12.4583C11.2 12.5916 10.975 12.65 10.75 12.65ZM10.2083 2.29163C9.25 2.29163 8.54167 2.74996 8.25833 3.54163C8.175 3.79163 8.125 4.07496 8.125 4.37496V7.62498C8.125 8.25831 8.31667 8.78328 8.68333 9.14994C9.05 9.51661 9.575 9.70831 10.2083 9.70831C10.55 9.70831 10.8333 9.99165 10.8333 10.3333V11.3333L13.1083 9.80831C13.2083 9.74164 13.3333 9.69997 13.4583 9.69997H15.625C15.925 9.69997 16.2083 9.65828 16.4667 9.56661C17.2583 9.28328 17.7083 8.57497 17.7083 7.61664V4.36662C17.7083 3.08328 16.9083 2.28328 15.625 2.28328H10.2083V2.29163Z" fill="#4B4B4E"/>
  <path d="M12.167 18.9584H6.16699C5.82533 18.9584 5.54199 18.675 5.54199 18.3334C5.54199 17.9917 5.82533 17.7084 6.16699 17.7084H12.167C12.5087 17.7084 12.792 17.9917 12.792 18.3334C12.792 18.675 12.5087 18.9584 12.167 18.9584Z" fill="#4B4B4E"/>
  <path d="M9.16699 18.9584C8.82533 18.9584 8.54199 18.675 8.54199 18.3334V15.3334C8.54199 14.9917 8.82533 14.7084 9.16699 14.7084C9.50866 14.7084 9.79199 14.9917 9.79199 15.3334V18.3334C9.79199 18.675 9.50866 18.9584 9.16699 18.9584Z" fill="#4B4B4E"/>
  <path d="M12.8662 6.66663C12.5162 6.66663 12.2412 6.38329 12.2412 6.04163C12.2412 5.69996 12.5245 5.41663 12.8662 5.41663C13.2079 5.41663 13.4912 5.69996 13.4912 6.04163C13.4912 6.38329 13.2079 6.66663 12.8662 6.66663Z" fill="#4B4B4E"/>
  <path d="M15.208 6.66663C14.858 6.66663 14.583 6.38329 14.583 6.04163C14.583 5.69996 14.8663 5.41663 15.208 5.41663C15.5497 5.41663 15.833 5.69996 15.833 6.04163C15.833 6.38329 15.5497 6.66663 15.208 6.66663Z" fill="#4B4B4E"/>
  <path d="M10.5166 6.66663C10.1666 6.66663 9.8916 6.38329 9.8916 6.04163C9.8916 5.69996 10.1749 5.41663 10.5166 5.41663C10.8583 5.41663 11.1416 5.69996 11.1416 6.04163C11.1416 6.38329 10.8666 6.66663 10.5166 6.66663Z" fill="#4B4B4E"/>
</svg>