<svg width="422" height="241" viewBox="0 0 422 241" fill="none" xmlns="http://www.w3.org/2000/svg">
<path fill-rule="evenodd" clip-rule="evenodd" d="M350.02 207.515C345.725 209.915 337.778 212.788 331.218 206.366C324.455 199.774 319.619 199.909 317.353 200.552C316.677 200.416 315.933 200.721 315.561 201.363L301.324 227.222C300.208 229.25 298.044 230.535 295.711 230.535H249.348C248.435 230.535 247.691 231.278 247.691 232.191C247.691 233.104 248.435 233.847 249.348 233.847H295.711C299.261 233.847 302.508 231.921 304.232 228.811L312.551 213.667C315.662 214.073 319.889 215.459 323.846 219.346C331.489 226.783 340.45 222.591 343.73 220.597C344.542 220.123 345.184 219.414 345.658 218.602L351.237 208.766C351.745 207.954 350.832 207.042 350.02 207.515Z" fill="#57BA81"/>
<path fill-rule="evenodd" clip-rule="evenodd" d="M119.932 177.6C119.729 177.161 119.188 176.992 118.782 177.228C118.647 177.296 117.227 178.175 111.038 181.251L108.198 182.637C94.7051 189.127 74.7872 197.375 66.7051 193.961C66.3669 193.825 65.9949 193.893 65.7582 194.163C65.7244 194.197 62.8162 197.341 56.4587 200.316C50.6085 203.054 40.5312 206.163 25.821 205.454C25.3138 205.42 24.8742 205.859 24.9756 206.4C25.0433 206.806 25.3814 207.076 25.7872 207.11C27.1061 207.178 28.3573 207.211 29.6085 207.211L30.2172 211.2C30.3524 212.079 31.536 212.316 31.9756 211.538L34.5457 207.076C36.3379 206.975 38.0626 206.806 39.7196 206.603L40.6664 210.051C40.9032 210.896 42.0867 210.997 42.4587 210.22L44.4877 205.859C45.8742 205.589 47.1592 205.285 48.3766 204.98L49.1544 207.854C49.3911 208.699 50.5747 208.8 50.9466 208.023L53.0433 203.561C54.5988 203.02 55.9515 202.445 57.1689 201.87L57.7099 203.865C57.9466 204.71 59.1302 204.811 59.5022 204.034L61.5988 199.504C64.3379 197.848 65.9611 196.394 66.6713 195.685C68.3959 196.293 70.4925 196.462 72.8597 196.327L74.28 199.842C74.6181 200.654 75.7341 200.62 76.0384 199.809L77.594 195.718C79.0819 195.448 80.6036 195.11 82.1592 194.67L82.8017 197.409C83.0046 198.287 84.1882 198.423 84.5602 197.611L86.7582 193.285C88.2462 192.811 89.7341 192.27 91.222 191.73L91.7969 194.197C91.9998 195.042 93.1157 195.211 93.5553 194.468L96.193 189.837C97.5118 189.296 98.8307 188.755 100.15 188.18L100.792 190.547C101.029 191.392 102.212 191.493 102.584 190.716L104.681 186.186C106.101 185.544 107.454 184.901 108.773 184.259L109.28 186.186C109.517 187.031 110.7 187.132 111.072 186.355L113 182.231C118.241 179.594 119.222 178.986 119.729 178.716C119.932 178.479 120.135 178.006 119.932 177.6Z" fill="#57BA81"/>
<path fill-rule="evenodd" clip-rule="evenodd" d="M160.207 165.668C159.869 165.532 159.497 165.6 159.26 165.871C159.226 165.904 156.318 169.048 149.961 172.023C144.11 174.761 134.033 177.871 119.323 177.161C118.816 177.127 118.376 177.566 118.478 178.107C118.545 178.513 118.883 178.783 119.289 178.817C120.608 178.885 121.859 178.918 123.11 178.918L123.685 182.84C123.821 183.752 125.038 183.989 125.511 183.178L128.014 178.783C129.806 178.682 131.531 178.513 133.188 178.31L134.101 181.69C134.337 182.569 135.555 182.671 135.927 181.859L137.922 177.566C139.308 177.296 140.594 176.992 141.811 176.687L142.893 179.932C143.197 180.811 144.415 180.845 144.753 179.966L146.478 175.268C148.033 174.727 149.386 174.152 150.603 173.578L151.11 175.504C151.347 176.383 152.565 176.485 152.937 175.673L154.999 171.245C157.738 169.589 159.362 168.135 160.072 167.425" fill="#57BA81"/>
<path fill-rule="evenodd" clip-rule="evenodd" d="M375.651 184.597C375.482 184.158 374.975 183.921 374.569 184.124C361.55 189.566 347.854 186.828 333.888 176.045C323.371 167.932 316.675 158.028 316.608 157.96C316.337 157.589 315.83 157.487 315.458 157.724C315.086 157.994 314.984 158.501 315.221 158.873C315.255 158.941 317.216 161.848 320.699 165.803L322.356 173.746C322.525 174.625 323.709 174.794 324.149 174.05L325.806 171.245C327.226 172.631 328.748 174.017 330.371 175.369L332.129 181.487C332.366 182.298 333.448 182.434 333.888 181.724L335.443 179.29C336.83 180.27 338.216 181.149 339.637 181.994L342.071 188.856C342.342 189.634 343.424 189.735 343.83 189.025L345.994 185.239C347.347 185.814 348.666 186.287 350.018 186.693L353.197 192.236C353.637 192.98 354.719 192.845 354.989 192.034L356.173 188.079C357.897 188.315 359.622 188.45 361.347 188.45C361.482 188.45 361.617 188.45 361.752 188.45L365.168 192.912C365.641 193.555 366.656 193.352 366.893 192.574L368.279 187.741C370.579 187.267 372.844 186.591 375.11 185.645C375.55 185.476 375.82 185.003 375.651 184.597Z" fill="#57BA81"/>
<path fill-rule="evenodd" clip-rule="evenodd" d="M25.6508 205.217C26.1909 205.217 26.6323 205.639 26.6632 206.171L26.6649 206.231V239.628C26.6649 240.188 26.2109 240.642 25.6508 240.642C25.1107 240.642 24.6693 240.22 24.6384 239.687L24.6367 239.628V206.231C24.6367 205.671 25.0907 205.217 25.6508 205.217Z" fill="#FE7624"/>
<path fill-rule="evenodd" clip-rule="evenodd" d="M66.3324 193.724C66.8725 193.724 67.314 194.146 67.3448 194.678L67.3465 194.738V239.087C67.3465 239.647 66.8925 240.101 66.3324 240.101C65.7924 240.101 65.3509 239.679 65.3201 239.146L65.3184 239.087V194.738C65.3184 194.178 65.7724 193.724 66.3324 193.724Z" fill="#FE7624"/>
<path fill-rule="evenodd" clip-rule="evenodd" d="M119.289 176.89C119.83 176.89 120.271 177.312 120.302 177.845L120.304 177.904V239.02C120.304 239.58 119.85 240.034 119.289 240.034C118.749 240.034 118.308 239.612 118.277 239.079L118.275 239.02V177.904C118.275 177.344 118.729 176.89 119.289 176.89Z" fill="#FE7624"/>
<path fill-rule="evenodd" clip-rule="evenodd" d="M374.975 183.718C375.515 183.718 375.957 184.14 375.987 184.673L375.989 184.732V239.628C375.989 240.188 375.535 240.642 374.975 240.642C374.435 240.642 373.994 240.22 373.963 239.688L373.961 239.628V184.732C373.961 184.172 374.415 183.718 374.975 183.718Z" fill="#FE7624"/>
<path fill-rule="evenodd" clip-rule="evenodd" d="M312.753 153.667L190.337 154.478C188.376 154.478 186.617 155.492 185.806 157.047L146.308 228.878L45.9411 228.946C45.9411 228.946 44.2164 239.019 58.656 239.628L275.081 239.357L317.352 160.09C318.975 157.081 316.472 153.633 312.753 153.667Z" fill="#FE7624"/>
<path fill-rule="evenodd" clip-rule="evenodd" d="M158.889 228.575L262.265 228.135L294.256 165.837C295.507 163.437 293.85 160.529 291.28 160.563L197.338 161.713L158.889 228.575Z" fill="white"/>
<path fill-rule="evenodd" clip-rule="evenodd" d="M302.632 153.735C307.063 153.695 310.082 157.829 308.226 161.538L308.168 161.65L266.304 239.836C266.039 240.33 265.424 240.516 264.93 240.251C264.455 239.997 264.265 239.418 264.487 238.934L264.515 238.879L306.377 160.698C307.589 158.403 305.67 155.736 302.65 155.763C302.09 155.768 301.632 155.318 301.627 154.758C301.622 154.198 302.072 153.74 302.632 153.735Z" fill="white"/>
<path fill-rule="evenodd" clip-rule="evenodd" d="M164.4 185.544L175.729 206.366C176.304 207.347 177.792 206.941 177.792 205.826L177.048 196.361C177.048 196.361 183.676 219.144 192.772 219.719C201.869 220.293 210.594 195.719 210.594 195.719L208.193 206.028C208.193 207.178 209.681 207.55 210.255 206.569L222.362 185.544" fill="#57BA81"/>
<path fill-rule="evenodd" clip-rule="evenodd" d="M150.231 105.026C150.231 105.026 123.212 141.6 126.695 174.321H186.313V104.248L150.231 105.026Z" fill="#57BA81"/>
<path fill-rule="evenodd" clip-rule="evenodd" d="M235.178 105.026C235.178 105.026 262.197 141.6 258.714 174.321H199.096V104.248L235.178 105.026Z" fill="#57BA81"/>
<path fill-rule="evenodd" clip-rule="evenodd" d="M217.019 174.321C239.913 133.183 237.411 100.53 230.749 78.1521C224.053 55.7746 208.362 30.8281 193.449 30.8281C178.536 30.8281 162.845 55.7746 156.15 78.1521C149.454 100.53 146.647 133.183 169.541 174.321L163.15 188.113H223.512L217.019 174.321Z" fill="white"/>
<path fill-rule="evenodd" clip-rule="evenodd" d="M193.448 29.8141C186.026 29.8141 178.198 35.544 170.899 45.4991C164.364 54.4122 158.646 66.2671 155.177 77.8615C151.22 91.0871 149.538 104.688 150.738 119.284L150.783 119.818C152.283 137.084 157.807 155 168.022 173.67L168.403 174.362L162.228 187.686C161.917 188.359 162.408 189.127 163.149 189.127H223.511L223.569 189.125C224.28 189.086 224.738 188.336 224.429 187.681L218.157 174.358L218.543 173.658C228.871 154.783 234.461 136.688 235.977 119.289C237.253 104.648 235.633 91.0047 231.72 77.8629C228.251 66.2671 222.533 54.4122 215.998 45.4991C208.699 35.544 200.871 29.8141 193.448 29.8141ZM193.448 31.8424C200.07 31.8424 207.406 37.2123 214.362 46.6982C220.754 55.4172 226.371 67.0629 229.776 78.4429C233.618 91.349 235.209 104.739 233.956 119.114C232.434 136.578 226.731 154.782 216.132 173.828L216.1 173.89C215.972 174.162 215.972 174.479 216.101 174.753L221.912 187.099H164.737L170.461 174.748C170.597 174.453 170.585 174.112 170.427 173.828C159.839 154.802 154.197 136.609 152.76 119.119C151.582 104.788 153.233 91.4374 157.121 78.4429C160.526 67.0629 166.143 55.4172 172.535 46.6982C179.491 37.2123 186.827 31.8424 193.448 31.8424Z" fill="#418C61"/>
<path fill-rule="evenodd" clip-rule="evenodd" d="M193.448 115.47C202.861 115.47 210.491 106.39 210.491 95.1883C210.491 83.987 202.861 74.9066 193.448 74.9066C184.035 74.9066 176.404 83.987 176.404 95.1883C176.404 106.39 184.035 115.47 193.448 115.47Z" fill="#57BA81"/>
<path fill-rule="evenodd" clip-rule="evenodd" d="M193.448 124.597C195.017 124.597 196.289 123.084 196.289 121.217C196.289 119.35 195.017 117.837 193.448 117.837C191.879 117.837 190.607 119.35 190.607 121.217C190.607 123.084 191.879 124.597 193.448 124.597Z" fill="#57BA81"/>
<path fill-rule="evenodd" clip-rule="evenodd" d="M204.405 124.597C205.974 124.597 207.246 123.084 207.246 121.217C207.246 119.35 205.974 117.837 204.405 117.837C202.836 117.837 201.564 119.35 201.564 121.217C201.564 123.084 202.836 124.597 204.405 124.597Z" fill="#57BA81"/>
<path fill-rule="evenodd" clip-rule="evenodd" d="M181.647 124.597C183.216 124.597 184.488 123.084 184.488 121.217C184.488 119.35 183.216 117.837 181.647 117.837C180.078 117.837 178.807 119.35 178.807 121.217C178.807 123.084 180.078 124.597 181.647 124.597Z" fill="#57BA81"/>
<path fill-rule="evenodd" clip-rule="evenodd" d="M193.449 108.507C200.564 108.507 206.333 101.651 206.333 93.1943C206.333 84.7373 200.564 77.8816 193.449 77.8816C186.333 77.8816 180.564 84.7373 180.564 93.1943C180.564 101.651 186.333 108.507 193.449 108.507Z" fill="white"/>
<path fill-rule="evenodd" clip-rule="evenodd" d="M193.447 76.8674C185.729 76.8674 179.549 84.2123 179.549 93.1942C179.549 102.176 185.729 109.521 193.447 109.521C201.166 109.521 207.346 102.176 207.346 93.1942C207.346 84.2123 201.166 76.8674 193.447 76.8674ZM193.448 78.8959C199.96 78.8959 205.317 85.2625 205.317 93.1945C205.317 101.127 199.96 107.493 193.448 107.493C186.935 107.493 181.578 101.127 181.578 93.1945C181.578 85.2625 186.935 78.8959 193.448 78.8959Z" fill="#418C61"/>
<path fill-rule="evenodd" clip-rule="evenodd" d="M196.459 30.2538V6.28761C196.459 6.22001 196.459 6.1524 196.459 6.05099C196.899 5.44254 197.169 4.66508 197.169 3.85381C197.169 1.79184 195.512 0.135498 193.45 0.135498C191.387 0.135498 189.73 1.79184 189.73 3.85381C189.73 4.66508 190 5.44254 190.44 6.05099C190.44 6.1186 190.44 6.1862 190.44 6.28761V30.22C184.184 31.5045 177.928 36.7439 172.213 43.7749C178.672 42.2876 186.213 41.4763 194.87 41.9496C202.614 42.389 209.512 43.4707 215.566 44.9242C209.648 37.3524 203.02 31.6735 196.459 30.2538Z" fill="#57BA81"/>
<path fill-rule="evenodd" clip-rule="evenodd" d="M221.211 57.3634C213.738 54.862 205.148 52.6649 193.617 52.2254C181.849 51.786 172.921 54.4226 165.583 57.2958C162.371 63.2451 159.834 69.1268 157.771 75.448C166.564 71.155 177.351 66.6254 193.887 66.9296C209.612 67.2001 220.433 70.6818 228.651 74.3325C226.656 68.417 224.221 62.9747 221.211 57.3634Z" fill="#57BA81"/>
<path fill-rule="evenodd" clip-rule="evenodd" d="M216.14 174.153C217.222 172.192 218.27 170.265 219.251 168.338C214.077 166.243 206.637 164.485 193.415 164.62C180.057 164.519 172.584 166.31 167.41 168.44C168.391 170.333 169.405 172.26 170.454 174.186C170.454 174.186 182.188 171.888 193.381 171.989C204.405 171.888 216.14 174.153 216.14 174.153Z" fill="#57BA81"/>
<path fill-rule="evenodd" clip-rule="evenodd" d="M278.497 228.135H225.338C225.338 228.135 217.695 221.273 221.212 215.662C224.729 210.051 233.961 208.699 236.971 214.378C236.971 214.378 238.29 203.527 249.415 204.372C260.575 205.217 259.695 216.811 259.695 216.811C259.695 216.811 273.797 206.839 273.425 222.423C273.391 222.389 274.27 228.135 278.497 228.135Z" fill="white"/>
<path fill-rule="evenodd" clip-rule="evenodd" d="M225.338 229.149H278.497L278.566 229.147C279.827 229.081 279.827 227.189 278.566 227.123L278.497 227.121C277.085 227.121 276.036 226.286 275.263 224.799C274.974 224.241 274.749 223.634 274.588 223.037C274.541 222.861 274.502 222.696 274.473 222.553L274.446 222.412L274.44 222.379L274.439 222.447C274.618 214.939 271.477 211.926 266.392 212.796C264.962 213.04 263.462 213.582 261.947 214.331L261.676 214.466C261.408 214.603 261.146 214.743 260.892 214.885L260.678 215.005L260.677 214.99C260.658 214.754 260.634 214.51 260.603 214.257C260.432 212.856 260.09 211.473 259.534 210.169C257.889 206.314 254.684 203.807 249.672 203.375L249.492 203.36C244.074 202.949 240.293 205.069 237.971 208.817L237.835 209.04C237.304 209.936 236.885 210.872 236.565 211.817L236.488 212.048L236.398 211.96C232.192 207.969 223.891 209.477 220.352 215.123C219.745 216.092 219.4 217.133 219.302 218.225C219.075 220.741 220.128 223.333 221.994 225.878C222.574 226.669 223.193 227.398 223.813 228.051L223.968 228.213C224.269 228.524 224.508 228.753 224.66 228.889C224.846 229.057 225.087 229.149 225.338 229.149ZM249.338 205.383C253.669 205.711 256.29 207.736 257.667 210.965C258.143 212.08 258.439 213.281 258.589 214.503C258.684 215.279 258.709 215.963 258.694 216.503L258.688 216.652L258.684 216.735C258.62 217.572 259.538 218.111 260.234 217.671L260.414 217.548L260.65 217.393C260.753 217.327 260.864 217.257 260.983 217.183C261.553 216.831 262.181 216.478 262.846 216.149C264.199 215.481 265.523 215.003 266.735 214.795C268.434 214.505 269.76 214.769 270.684 215.655L270.747 215.717C271.834 216.814 272.445 218.863 272.417 222.029L272.411 222.339L272.41 222.373L272.411 222.493L272.418 222.568L272.425 222.622C272.431 222.668 272.44 222.723 272.451 222.784L272.463 222.847C272.502 223.057 272.558 223.303 272.629 223.565C272.825 224.294 273.1 225.035 273.463 225.734L273.524 225.849C273.739 226.251 273.977 226.623 274.236 226.962L274.362 227.121H225.742L225.657 227.037C225.54 226.921 225.416 226.793 225.284 226.655C224.721 226.061 224.156 225.396 223.631 224.68C222.029 222.495 221.15 220.33 221.323 218.408C221.393 217.63 221.636 216.896 222.072 216.201C225.306 211.041 233.402 210.139 235.997 214.712L236.074 214.853C236.53 215.712 237.804 215.495 237.969 214.56L237.989 214.422C237.999 214.355 238.015 214.259 238.039 214.138C238.1 213.823 238.183 213.469 238.293 213.087C238.608 211.993 239.067 210.9 239.696 209.885C241.634 206.756 244.71 205.032 249.338 205.383Z" fill="#418C61"/>
<path fill-rule="evenodd" clip-rule="evenodd" d="M109.246 228.236H162.406C162.406 228.236 170.048 221.374 166.531 215.763C163.014 210.152 153.782 208.8 150.773 214.478C150.773 214.478 149.454 203.628 138.328 204.473C127.169 205.318 128.048 216.912 128.048 216.912C128.048 216.912 113.947 206.94 114.319 222.524C114.352 222.49 113.473 228.202 109.246 228.236Z" fill="white"/>
<path fill-rule="evenodd" clip-rule="evenodd" d="M109.247 229.251H162.406C162.657 229.251 162.898 229.158 163.084 228.991L163.167 228.915C163.347 228.748 163.61 228.491 163.931 228.152C164.551 227.5 165.171 226.77 165.75 225.98C167.616 223.434 168.669 220.843 168.442 218.327C168.344 217.234 167.999 216.193 167.392 215.225L167.269 215.034C163.665 209.545 155.504 208.116 151.346 212.061L151.255 212.15L151.179 211.919C150.832 210.895 150.37 209.881 149.773 208.919C147.478 205.214 143.756 203.1 138.439 203.449L138.252 203.462C133.137 203.849 129.874 206.37 128.21 210.271C127.654 211.575 127.312 212.958 127.141 214.358L127.119 214.546C127.105 214.671 127.093 214.793 127.082 214.913L127.066 215.107L126.852 214.986C126.513 214.797 126.16 214.612 125.797 214.432C124.282 213.684 122.782 213.142 121.352 212.897L121.2 212.872C116.255 212.096 113.19 215.055 113.301 222.324L113.304 222.48L113.288 222.569C113.258 222.728 113.213 222.922 113.156 223.133C112.996 223.726 112.771 224.331 112.481 224.887L112.423 224.997C111.675 226.376 110.673 227.17 109.344 227.22L109.239 227.223C107.892 227.233 107.9 229.251 109.247 229.251ZM148.049 209.987C148.677 211.001 149.137 212.094 149.451 213.188C149.561 213.57 149.645 213.924 149.705 214.239L149.75 214.487L149.767 214.601C149.884 215.567 151.152 215.821 151.641 215.006L151.67 214.954C154.178 210.222 162.406 211.09 165.672 216.302C166.108 216.997 166.351 217.731 166.421 218.509C166.595 220.431 165.715 222.596 164.114 224.781C163.588 225.497 163.024 226.162 162.46 226.756L162.363 226.858L162.177 227.049C162.116 227.109 162.058 227.167 162.002 227.222L113.369 227.222L113.377 227.213C113.713 226.801 114.014 226.335 114.281 225.823C114.644 225.127 114.919 224.388 115.115 223.662C115.186 223.401 115.242 223.157 115.281 222.947L115.303 222.826C115.309 222.789 115.315 222.754 115.319 222.723L115.326 222.67L115.333 222.594L115.334 222.478L115.332 222.438L115.328 222.13C115.299 218.904 115.934 216.837 117.06 215.756C117.984 214.87 119.31 214.606 121.01 214.896C122.221 215.104 123.545 215.582 124.898 216.251C125.563 216.579 126.191 216.932 126.761 217.284L126.989 217.427C127.025 217.45 127.06 217.472 127.094 217.494L127.33 217.65L127.463 217.741C128.148 218.225 129.083 217.715 129.063 216.893L129.054 216.717C129.032 216.162 129.054 215.435 129.155 214.604C129.305 213.382 129.602 212.181 130.077 211.066C131.435 207.881 134.004 205.868 138.229 205.499L138.406 205.484C143.034 205.133 146.11 206.857 148.049 209.987Z" fill="#418C61"/>
<path fill-rule="evenodd" clip-rule="evenodd" d="M420.831 238.614C421.391 238.614 421.845 239.068 421.845 239.628C421.845 240.168 421.423 240.61 420.89 240.64L420.831 240.642H1.16879C0.608501 240.642 0.154297 240.188 0.154297 239.628C0.154297 239.088 0.576637 238.647 1.10918 238.616L1.16879 238.614H420.831Z" fill="#418C61"/>
</svg>
