<svg width="28" height="28" viewBox="0 0 28 28" fill="none" xmlns="http://www.w3.org/2000/svg">
<path d="M0 14C0 6.26801 6.26801 0 14 0C21.732 0 28 6.26801 28 14C28 21.732 21.732 28 14 28C6.26801 28 0 21.732 0 14Z" fill="#162F20"/>
<path fill-rule="evenodd" clip-rule="evenodd" d="M11.7467 7.08789C12.0448 7.08789 12.2864 7.33063 12.2864 7.63006C12.2864 9.77234 12.7433 11.1563 13.6046 12.0159C14.4667 12.8763 15.8454 13.3228 17.9537 13.3228C18.2518 13.3228 18.4934 13.5656 18.4934 13.865C18.4934 14.1644 18.2518 14.4072 17.9537 14.4072C15.849 14.4072 14.4693 14.8652 13.6059 15.7325C12.7425 16.5998 12.2864 17.9858 12.2864 20.0999C12.2864 20.3993 12.0448 20.6421 11.7467 20.6421C11.4486 20.6421 11.207 20.3993 11.207 20.0999C11.207 17.9867 10.7481 16.6005 9.88293 15.7328C9.01763 14.865 7.63741 14.4072 5.53974 14.4072C5.24165 14.4072 5 14.1644 5 13.865C5 13.5656 5.24165 13.3228 5.53974 13.3228C7.64099 13.3228 9.02019 12.8765 9.88418 12.0156C10.7473 11.1557 11.207 9.77144 11.207 7.63006C11.207 7.33063 11.4486 7.08789 11.7467 7.08789ZM11.7455 11.0687C11.4841 11.7367 11.1216 12.31 10.6444 12.7855C10.1719 13.2563 9.60537 13.6127 8.94947 13.8699C9.60625 14.1308 10.1731 14.4916 10.6456 14.9655C11.122 15.4433 11.4842 16.0176 11.7455 16.6845C12.0058 16.0179 12.3669 15.4436 12.8426 14.9658C13.3145 14.4917 13.8811 14.1309 14.5382 13.8699C13.882 13.6127 13.3157 13.2561 12.8438 12.7852C12.3674 12.3097 12.0059 11.7365 11.7455 11.0687Z" fill="#F3F7F5"/>
<path d="M8.5 14L11.5 11H12L15.5 14L12 17L8.5 14Z" fill="#F3F7F5"/>
<path d="M17 8.5L19 8L19.5 6L20 8L22.5 8.5L20 9.5L19.5 12L19 9.5L17 8.5Z" fill="#F3F7F5"/>
<path d="M15.5 20L17 19L18 17.5V19L20.5 19.5L19 20L18 22.5L17 20.5L15.5 20Z" fill="#F3F7F5"/>
<path fill-rule="evenodd" clip-rule="evenodd" d="M19.3027 5C19.556 5 19.7614 5.20633 19.7614 5.46084C19.7614 6.55828 19.9962 7.22298 20.3969 7.62287C20.7982 8.02337 21.4607 8.25301 22.5411 8.25301C22.7945 8.25301 22.9999 8.45933 22.9999 8.71385C22.9999 8.96836 22.7945 9.17469 22.5411 9.17469C21.4638 9.17469 20.8004 9.40983 20.3979 9.81406C19.9955 10.2183 19.7614 10.8847 19.7614 11.9669C19.7614 12.2214 19.556 12.4277 19.3027 12.4277C19.0493 12.4277 18.8439 12.2214 18.8439 11.9669C18.8439 10.8854 18.6084 10.2189 18.2051 9.81433C17.8016 9.40966 17.1378 9.17469 16.0642 9.17469C15.8109 9.17469 15.6055 8.96836 15.6055 8.71385C15.6055 8.45933 15.8109 8.25301 16.0642 8.25301C17.1408 8.25301 17.8038 8.02354 18.2061 7.62261C18.6078 7.22244 18.8439 6.55752 18.8439 5.46084C18.8439 5.20633 19.0493 5 19.3027 5ZM19.3018 7.67511C19.1798 7.89795 19.0309 8.09904 18.8523 8.27699C18.6767 8.45193 18.4792 8.5977 18.2613 8.71733C18.4797 8.83848 18.6776 8.98579 18.8534 9.16207C19.0314 9.34064 19.18 9.54204 19.3018 9.76473C19.4233 9.54217 19.5714 9.34086 19.7491 9.16233C19.9248 8.98592 20.1225 8.83853 20.341 8.71733C20.1231 8.59765 19.9256 8.4518 19.7502 8.27672C19.5719 8.09883 19.4235 7.89782 19.3018 7.67511Z" fill="#F3F7F5"/>
<path fill-rule="evenodd" clip-rule="evenodd" d="M17.9543 16.6562C18.2077 16.6562 18.4131 16.8626 18.4131 17.1171C18.4131 18.0229 18.6072 18.552 18.9201 18.8643C19.2336 19.1772 19.7612 19.3671 20.653 19.3671C20.9064 19.3671 21.1118 19.5734 21.1118 19.8279C21.1118 20.0824 20.9064 20.2888 20.653 20.2888C19.7642 20.2888 19.2358 20.483 18.9211 20.7991C18.6065 21.1151 18.4131 21.646 18.4131 22.5388C18.4131 22.7933 18.2077 22.9996 17.9543 22.9996C17.701 22.9996 17.4956 22.7933 17.4956 22.5388C17.4956 21.6467 17.3011 21.1157 16.9857 20.7994C16.6701 20.4829 16.1412 20.2888 15.2557 20.2888C15.0023 20.2888 14.7969 20.0824 14.7969 19.8279C14.7969 19.5734 15.0023 19.3671 15.2557 19.3671C16.1443 19.3671 16.6723 19.1773 16.9867 18.864C17.3004 18.5515 17.4956 18.0221 17.4956 17.1171C17.4956 16.8626 17.701 16.6562 17.9543 16.6562ZM17.9535 19.1142C17.8623 19.2608 17.7559 19.3958 17.6329 19.5184C17.5125 19.6383 17.3806 19.7421 17.2378 19.8311C17.3811 19.9213 17.5134 20.0262 17.6339 20.1471C17.7565 20.27 17.8626 20.4051 17.9535 20.5516C18.0442 20.4052 18.15 20.2702 18.2723 20.1474C18.3928 20.0263 18.5251 19.9214 18.6683 19.8311C18.5256 19.742 18.3936 19.6382 18.2734 19.5181C18.1506 19.3956 18.0445 19.2607 17.9535 19.1142Z" fill="#F3F7F5"/>
</svg>
