<svg width="18" height="18" viewBox="0 0 18 18" fill="none" xmlns="http://www.w3.org/2000/svg">
<path d="M12.21 16.5749H9.36002C8.94002 16.5749 8.02502 16.4474 7.53752 15.9599L5.26502 14.2049L5.95502 13.3124L8.28002 15.1124C8.46752 15.2924 8.94002 15.4424 9.36002 15.4424H12.21C12.885 15.4424 13.6125 14.9024 13.7625 14.2949L15.5775 8.78237C15.6975 8.45237 15.675 8.15237 15.5175 7.93487C15.3525 7.70237 15.0525 7.56737 14.685 7.56737H11.685C11.295 7.56737 10.935 7.40237 10.6875 7.11737C10.4325 6.82487 10.32 6.43487 10.38 6.02987L10.755 3.62237C10.845 3.20237 10.56 2.72987 10.155 2.59487C9.78752 2.45987 9.31502 2.65487 9.15002 2.89487L6.07502 7.46987L5.14502 6.84737L8.22002 2.27237C8.69252 1.56737 9.72752 1.22987 10.5375 1.53737C11.475 1.84487 12.075 2.87987 11.865 3.83987L11.4975 6.20237C11.49 6.25487 11.49 6.32987 11.5425 6.38987C11.58 6.42737 11.6325 6.44987 11.6925 6.44987H14.6925C15.4275 6.44987 16.065 6.75737 16.44 7.28987C16.8075 7.80737 16.8825 8.48987 16.6425 9.14987L14.85 14.6099C14.5725 15.6974 13.4175 16.5749 12.21 16.5749Z" fill="#242424"/>
<path d="M4.03491 15.7498H3.28491C1.89741 15.7498 1.22241 15.0973 1.22241 13.7623V6.4123C1.22241 5.0773 1.89741 4.4248 3.28491 4.4248H4.03491C5.42241 4.4248 6.09741 5.0773 6.09741 6.4123V13.7623C6.09741 15.0973 5.42241 15.7498 4.03491 15.7498ZM3.28491 5.5498C2.46741 5.5498 2.34741 5.7448 2.34741 6.4123V13.7623C2.34741 14.4298 2.46741 14.6248 3.28491 14.6248H4.03491C4.85241 14.6248 4.97241 14.4298 4.97241 13.7623V6.4123C4.97241 5.7448 4.85241 5.5498 4.03491 5.5498H3.28491Z" fill="#242424"/>
</svg>
