<svg xmlns="http://www.w3.org/2000/svg" width="148" height="72" viewBox="0 0 148 72" fill="none">
  <path d="M6.17835 47.7763C5.23681 46.4609 5.27835 44.7232 5.05681 43.1863C4.81451 41.4486 4.46835 39.7248 4.15681 38.0009C3.99066 37.094 4.21912 36.1663 4.77297 35.4324L30.6376 1.19092C30.8314 0.948612 31.0668 0.789378 31.3022 0.733994C31.5999 0.609378 32.043 0.789377 32.2853 0.948607C32.3891 1.01784 32.4791 1.10092 32.5553 1.19092C31.4476 3.45477 30.3399 5.72553 29.2322 7.98937C27.0584 12.7109 24.2337 17.7578 23.2645 22.9155C23.133 23.6078 23.0222 24.2932 22.946 24.9994C22.6899 24.6948 22.413 24.3832 22.1845 24.1132C21.8107 23.5801 20.8899 23.4417 20.3984 24.044C20.0037 24.5148 19.9137 25.214 19.8791 25.7471C19.8237 26.5155 19.7614 27.4086 19.6991 28.3224C19.3391 27.2978 19.0207 26.4048 18.9099 26.1071C18.3422 24.3694 16.2653 24.8471 15.8084 26.384C15.6907 26.6955 15.6837 27.0348 15.663 27.3463C15.4137 31.4586 15.206 35.5917 15.0745 39.7109C13.773 42.2932 12.4784 44.8825 11.2114 47.4855C10.4707 48.9948 8.44912 49.3478 7.06451 48.5655C6.72528 48.3717 6.42758 48.1155 6.1922 47.7901L6.17835 47.7763ZM16.6737 26.8686C16.6322 26.7925 16.646 26.7786 16.6737 26.8686V26.8686ZM28.2353 13.3686C26.3384 17.5501 24.6976 21.8632 24.5868 26.4809C24.5037 27.6094 23.4237 28.3017 22.5099 27.4086C22.2191 27.1109 21.9976 26.7578 21.7553 26.4324C21.7553 26.4671 21.7553 26.5017 21.7553 26.5363C21.7207 27.3809 21.6237 29.6517 21.5891 30.524L21.5337 31.8532C21.513 32.0886 21.5337 32.6632 21.4507 32.8917C21.1807 33.9855 19.6299 34.304 19.1453 33.134L19.1176 33.0578L17.9476 30.0948C17.7953 33.3971 17.5668 36.8032 17.3384 40.0917C17.3245 40.244 17.283 40.3894 17.2137 40.5209C16.1684 42.4109 15.1368 44.3009 14.0707 46.1771C13.0114 48.0601 11.9107 49.9155 10.8653 51.8055C8.53912 56.0148 6.46912 59.864 3.83835 64.4401C2.88297 66.1017 1.64374 68.3101 0.785276 70.0132C0.626045 70.3317 0.667581 70.7332 0.923735 70.9755C1.31143 71.3424 1.89989 71.2455 2.16297 70.8371L9.84066 58.8601C10.5814 57.704 11.5645 56.7278 12.7276 55.994C15.0122 54.6855 16.7637 53.5571 18.5984 52.5878C20.073 51.8055 21.603 50.9125 23.0222 50.0194C25.6599 48.3648 26.6014 47.3955 26.8091 45.9071C27.0445 44.2455 27.2591 42.584 27.4876 40.9225C27.8199 38.4578 28.1522 35.9932 28.4914 33.5286C28.8445 30.9324 29.1976 28.3363 29.5437 25.7401C29.6684 24.8194 29.793 23.8986 29.9176 22.9778C29.9176 22.9709 29.9176 22.9571 29.9176 22.9501C30.0976 21.6417 30.2707 20.3401 30.4507 19.0317C30.4645 18.9071 30.4853 18.7825 30.4991 18.6578C30.6376 17.6401 30.7761 16.6294 30.9076 15.6117C30.9145 15.5494 30.9214 15.4871 30.9353 15.4248C30.9907 15.0301 31.053 14.6286 31.1222 14.234C31.1222 14.2063 31.1291 14.1855 31.1361 14.1578C31.1637 13.9986 31.1845 13.8394 31.1707 13.694C31.233 13.2094 31.3022 12.7248 31.3645 12.2471C31.5168 11.1255 31.6691 10.004 31.8214 8.88246C32.043 7.23477 32.2645 5.59399 32.4861 3.9463C31.053 7.13092 29.6268 10.2948 28.2491 13.3825L28.2353 13.3686Z" fill="white"/>
  <path d="M56.9739 37.7314L49.5455 20.0499L49.5039 19.9668H44.3047V44.6199H48.3478V26.7999L55.9147 44.5299L55.9493 44.6199H57.9985L65.6001 26.7999V44.6199H69.6432V19.9668H64.617L56.9739 37.7314Z" fill="white"/>
  <path d="M85.5335 27.8175C84.3566 27.2567 82.8127 26.9729 80.9366 26.9729C77.0943 26.9729 74.6366 28.1152 73.6327 30.3652C73.3004 31.0506 73.1343 31.8952 73.1343 32.8783V33.0168H77.2812V32.8783C77.2812 32.5529 77.3573 32.186 77.5096 31.7983C77.745 31.2791 78.1535 30.8983 78.7143 30.6629C79.2889 30.4206 80.0504 30.296 80.9712 30.296C82.7435 30.296 83.8858 30.8291 84.3635 31.8744C84.495 32.1583 84.585 32.4421 84.6266 32.7191C84.6681 32.996 84.6958 33.356 84.6958 33.7852V34.0968H81.3173C79.1227 34.0968 77.3089 34.3391 75.9243 34.8098C74.5119 35.2944 73.4943 36.1944 72.9058 37.4891C72.6219 38.126 72.4766 38.8875 72.4766 39.7529C72.4766 40.6183 72.6289 41.4075 72.9404 42.086C73.3696 43.0552 74.1242 43.8029 75.1835 44.2944C76.2358 44.786 77.5304 45.0352 79.0396 45.0352C81.5458 45.0352 83.4496 44.336 84.6958 42.9652V44.6198H88.8081V34.5744C88.8081 32.8852 88.5727 31.5075 88.1089 30.4829C87.5896 29.2852 86.7243 28.3852 85.5404 27.8244L85.5335 27.8175ZM84.6958 37.1291V37.1983C84.6958 38.0775 84.5573 38.846 84.2942 39.4898C83.9619 40.2167 83.4427 40.7775 82.7366 41.1514C82.0235 41.5321 81.1166 41.7191 80.0435 41.7191C79.2819 41.7191 78.6173 41.6083 78.0566 41.3867C77.5166 41.1721 77.1358 40.8329 76.9281 40.3898C76.7966 40.0921 76.7343 39.7598 76.7343 39.4067C76.7343 39.0537 76.7966 38.756 76.9281 38.4998C77.1635 37.9944 77.6758 37.6344 78.4581 37.4406C79.2681 37.2398 80.3135 37.136 81.5666 37.136H84.7096L84.6958 37.1291Z" fill="white"/>
  <path d="M104.542 29.1814C103.932 28.5029 103.192 27.9767 102.34 27.6029C101.371 27.1806 100.263 26.9729 99.0585 26.9729C97.3831 26.9729 95.9362 27.3468 94.7523 28.0806C93.5685 28.8144 92.6616 29.8806 92.0593 31.2306C91.457 32.5737 91.1523 34.166 91.1523 35.9521C91.1523 37.7383 91.457 39.2891 92.0593 40.6321C92.6685 41.9821 93.5754 43.0483 94.7731 43.8029C95.9639 44.5506 97.4039 44.9314 99.0585 44.9314C100.242 44.9314 101.329 44.7237 102.292 44.3152C103.136 43.9552 103.87 43.4429 104.479 42.7852V44.5506C104.479 45.3814 104.341 46.1014 104.078 46.7037C103.482 48.0883 102.132 48.7944 100.062 48.7944C98.6085 48.7944 97.4731 48.4552 96.6977 47.7906C96.4139 47.5552 96.1923 47.2644 96.047 46.9252C95.8946 46.5791 95.7908 46.2191 95.7493 45.8452L95.7354 45.7206H91.4846L91.5054 45.8798C91.7131 47.6106 92.3777 49.0091 93.4854 50.0406C94.9531 51.3491 97.1685 52.0067 100.069 52.0067C104.022 52.0067 106.612 50.6914 107.754 48.0952C108.315 46.9529 108.599 45.5544 108.599 43.9275V27.4229H104.555V29.1814H104.542ZM103.282 31.7983C104.071 32.6637 104.472 33.9237 104.472 35.5368V36.3675C104.472 37.9806 104.071 39.2475 103.282 40.1198C102.499 40.9921 101.399 41.4352 100.021 41.4352C99.0862 41.4352 98.2624 41.2344 97.57 40.8329C96.8847 40.4314 96.3585 39.8498 96.0054 39.1091C95.6662 38.2575 95.4931 37.1914 95.4931 35.9521C95.4931 34.6437 95.6662 33.5914 95.9985 32.8367C96.3516 32.0614 96.8708 31.4729 97.5493 31.0852C98.2277 30.6975 99.0585 30.4968 100.014 30.4968C101.392 30.4968 102.492 30.9329 103.275 31.7983H103.282Z" fill="white"/>
  <path d="M121.186 26.9729C118.964 26.9729 117.233 27.6721 116.042 29.0637V27.4229H111.93V44.6198H116.042V34.9552C116.042 33.4806 116.388 32.3591 117.074 31.6183C117.759 30.8775 118.77 30.5037 120.078 30.5037C121.317 30.5037 122.245 30.8498 122.84 31.5283C123.436 32.2137 123.74 33.3075 123.74 34.7821V44.6198H127.818V34.0206C127.818 31.7429 127.237 29.9775 126.087 28.7798C124.938 27.5821 123.29 26.9729 121.186 26.9729Z" fill="white"/>
  <path d="M145.817 30.476C145.298 29.2783 144.432 28.3783 143.248 27.8175C142.071 27.2567 140.528 26.9729 138.651 26.9729C134.809 26.9729 132.351 28.1152 131.348 30.3652C131.015 31.0506 130.849 31.8952 130.849 32.8783V33.0168H134.996V32.8783C134.996 32.5529 135.072 32.186 135.224 31.7983C135.46 31.2791 135.868 30.8983 136.429 30.6629C137.004 30.4206 137.765 30.296 138.686 30.296C140.458 30.296 141.601 30.8291 142.078 31.8744C142.21 32.1583 142.3 32.4421 142.341 32.7191C142.383 33.0029 142.411 33.356 142.411 33.7852V34.0968H139.032C136.838 34.0968 135.024 34.3391 133.639 34.8098C132.227 35.2944 131.209 36.1944 130.621 37.4891C130.337 38.126 130.191 38.8875 130.191 39.7529C130.191 40.6183 130.344 41.4075 130.655 42.086C131.084 43.0552 131.839 43.8029 132.898 44.2944C133.951 44.786 135.245 45.0352 136.754 45.0352C139.261 45.0352 141.164 44.336 142.418 42.9652V44.6198H146.53V34.5744C146.53 32.8852 146.294 31.5075 145.831 30.4829L145.817 30.476ZM142.411 37.1291V37.1983C142.411 38.0706 142.272 38.846 142.009 39.4898C141.677 40.2167 141.158 40.7775 140.451 41.1514C139.738 41.5321 138.831 41.7191 137.758 41.7191C136.997 41.7191 136.332 41.6083 135.771 41.3867C135.231 41.1721 134.851 40.8329 134.643 40.3898C134.511 40.0852 134.449 39.7598 134.449 39.4067C134.449 39.0537 134.511 38.756 134.643 38.4998C134.878 37.9944 135.391 37.6344 136.173 37.4406C136.983 37.2398 138.035 37.136 139.281 37.136H142.424L142.411 37.1291Z" fill="white"/>
</svg>