<svg width="148" height="72" viewBox="0 0 148 72" fill="none" xmlns="http://www.w3.org/2000/svg">
<g id="Magna_Horizontal lockup">
<path id="Vector" d="M57.3285 37.6544L49.8931 19.9728L49.8585 19.8828H44.6523V44.5359H48.6954V26.7159L56.2624 44.4528L56.297 44.5359H58.3462L65.9547 26.7159V44.5359H69.9977V19.8828H64.9647L57.3285 37.6544Z" fill="#0E1417"/>
<path id="Vector_2" d="M85.8811 27.7338C84.7042 27.173 83.1604 26.8892 81.2842 26.8892C77.4419 26.8892 74.9842 28.0315 73.9804 30.2815C73.6481 30.9669 73.4819 31.8115 73.4819 32.7945V32.933H77.6288V32.7945C77.6288 32.4692 77.705 32.1022 77.8573 31.7145C78.0927 31.1953 78.5011 30.8145 79.0619 30.5792C79.6365 30.3369 80.3981 30.2122 81.3188 30.2122C83.0911 30.2122 84.2335 30.7453 84.7111 31.7907C84.8427 32.0745 84.9327 32.3584 84.9742 32.6353C85.0158 32.9122 85.0435 33.2722 85.0435 33.7015V34.013H81.665C79.4704 34.013 77.6565 34.2553 76.2719 34.7261C74.8596 35.2107 73.8419 36.1107 73.2534 37.4053C72.9696 38.0422 72.8242 38.8038 72.8242 39.6692C72.8242 40.5345 72.9765 41.3238 73.2881 42.0022C73.7173 42.9715 74.4719 43.7192 75.5311 44.2107C76.5835 44.7022 77.8781 44.9515 79.3873 44.9515C81.8935 44.9515 83.7973 44.2522 85.0435 42.8815V44.5361H89.1558V34.4907C89.1558 32.8015 88.9204 31.4238 88.4565 30.3992C87.9373 29.2015 87.0719 28.3015 85.8881 27.7407L85.8811 27.7338ZM85.0435 37.0453V37.1145C85.0435 37.9938 84.905 38.7622 84.6419 39.4061C84.3096 40.133 83.7904 40.6938 83.0842 41.0676C82.3711 41.4484 81.4642 41.6353 80.3911 41.6353C79.6296 41.6353 78.965 41.5246 78.4042 41.303C77.8642 41.0884 77.4834 40.7492 77.2758 40.3061C77.1442 40.0084 77.0819 39.6761 77.0819 39.323C77.0819 38.9699 77.1442 38.6722 77.2758 38.4161C77.5111 37.9107 78.0235 37.5507 78.8058 37.3569C79.6158 37.1561 80.6611 37.0522 81.9142 37.0522H85.0573L85.0435 37.0453Z" fill="#0E1417"/>
<path id="Vector_3" d="M104.893 29.1044C104.284 28.426 103.543 27.8998 102.692 27.526C101.722 27.1037 100.615 26.896 99.4101 26.896C97.7347 26.896 96.2878 27.2698 95.1039 28.0037C93.9201 28.7375 93.0131 29.8037 92.4108 31.1537C91.8085 32.4968 91.5039 34.0891 91.5039 35.8752C91.5039 37.6614 91.8085 39.2121 92.4108 40.5552C93.0201 41.9052 93.927 42.9714 95.1247 43.726C96.3154 44.4737 97.7554 44.8544 99.4101 44.8544C100.594 44.8544 101.681 44.6468 102.643 44.2383C103.488 43.8783 104.222 43.366 104.831 42.7083V44.4737C104.831 45.3045 104.692 46.0245 104.429 46.6268C103.834 48.0114 102.484 48.7175 100.414 48.7175C98.9601 48.7175 97.8247 48.3783 97.0493 47.7137C96.7654 47.4783 96.5439 47.1875 96.3985 46.8483C96.2462 46.5021 96.1424 46.1421 96.1008 45.7683L96.087 45.6437H91.8362L91.857 45.8029C92.0647 47.5337 92.7293 48.9321 93.837 49.9637C95.3047 51.2721 97.5201 51.9298 100.421 51.9298C104.374 51.9298 106.963 50.6145 108.105 48.0183C108.666 46.876 108.95 45.4775 108.95 43.8506V27.346H104.907V29.1044H104.893ZM103.633 31.7214C104.422 32.5868 104.824 33.8468 104.824 35.4598V36.2906C104.824 37.9037 104.422 39.1706 103.633 40.0429C102.851 40.9152 101.75 41.3583 100.372 41.3583C99.4378 41.3583 98.6139 41.1575 97.9216 40.756C97.2362 40.3545 96.7101 39.7729 96.357 39.0321C96.0178 38.1806 95.8447 37.1145 95.8447 35.8752C95.8447 34.5668 96.0178 33.5145 96.3501 32.7598C96.7031 31.9845 97.2224 31.396 97.9008 31.0083C98.5793 30.6206 99.4101 30.4198 100.365 30.4198C101.743 30.4198 102.844 30.856 103.626 31.7214H103.633Z" fill="#0E1417"/>
<path id="Vector_4" d="M121.534 26.8892C119.311 26.8892 117.58 27.5884 116.39 28.9799V27.3392H112.277V44.5361H116.39V34.8715C116.39 33.3969 116.736 32.2753 117.421 31.5345C118.107 30.7938 119.117 30.4199 120.426 30.4199C121.665 30.4199 122.593 30.7661 123.188 31.4445C123.784 32.1299 124.088 33.2238 124.088 34.6984V44.5361H128.166V33.9369C128.166 31.6592 127.584 29.8938 126.435 28.6961C125.286 27.4984 123.638 26.8892 121.534 26.8892Z" fill="#0E1417"/>
<path id="Vector_5" d="M146.172 30.3922C145.653 29.1945 144.788 28.2945 143.604 27.7338C142.427 27.173 140.883 26.8892 139.007 26.8892C135.165 26.8892 132.707 28.0315 131.703 30.2815C131.371 30.9669 131.205 31.8115 131.205 32.7945V32.933H135.351V32.7945C135.351 32.4692 135.428 32.1022 135.58 31.7145C135.815 31.1953 136.224 30.8145 136.785 30.5792C137.359 30.3369 138.121 30.2122 139.041 30.2122C140.814 30.2122 141.956 30.7453 142.434 31.7907C142.565 32.0745 142.655 32.3584 142.697 32.6353C142.738 32.9192 142.766 33.2722 142.766 33.7015V34.013H139.388C137.193 34.013 135.379 34.2553 133.995 34.7261C132.582 35.2107 131.565 36.1107 130.976 37.4053C130.692 38.0422 130.547 38.8038 130.547 39.6692C130.547 40.5345 130.699 41.3238 131.011 42.0022C131.44 42.9715 132.195 43.7192 133.254 44.2107C134.306 44.7022 135.601 44.9515 137.11 44.9515C139.616 44.9515 141.52 44.2522 142.773 42.8815V44.5361H146.885V34.4907C146.885 32.8015 146.65 31.4238 146.186 30.3992L146.172 30.3922ZM142.766 37.0453V37.1145C142.766 37.9869 142.628 38.7622 142.365 39.4061C142.032 40.133 141.513 40.6938 140.807 41.0676C140.094 41.4484 139.187 41.6353 138.114 41.6353C137.352 41.6353 136.688 41.5246 136.127 41.303C135.587 41.0884 135.206 40.7492 134.991 40.3061C134.86 40.0015 134.798 39.6761 134.798 39.323C134.798 38.9699 134.86 38.6722 134.991 38.4161C135.227 37.9107 135.739 37.5507 136.521 37.3569C137.331 37.1561 138.384 37.0522 139.63 37.0522H142.773L142.766 37.0453Z" fill="#0E1417"/>
<path id="Vector_6" d="M6.16181 47.9975C5.20642 46.6613 5.24796 44.8959 5.02642 43.3383C4.77719 41.5729 4.43104 39.8283 4.1195 38.0767C3.95334 37.1629 4.18181 36.2144 4.74258 35.4736L30.9741 0.747481C31.1749 0.49825 31.4103 0.345943 31.6457 0.283636C31.9503 0.152097 32.3934 0.339015 32.6426 0.505169C32.7534 0.574399 32.8364 0.6644 32.9126 0.7544C31.791 3.05286 30.6626 5.35133 29.541 7.64979C27.3326 12.4336 24.4734 17.5567 23.4834 22.7906C23.3449 23.4967 23.241 24.189 23.1649 24.9021C22.9087 24.5906 22.6249 24.279 22.3895 24.0021C22.0087 23.4621 21.0741 23.3236 20.5757 23.9329C20.1741 24.4106 20.0841 25.1167 20.0495 25.6567C19.9941 26.4321 19.9318 27.339 19.8626 28.2667C19.4957 27.2283 19.1703 26.3213 19.0595 26.0167C18.4849 24.2513 16.3733 24.7359 15.9164 26.2936C15.7987 26.6121 15.7918 26.9583 15.771 27.2698C15.5149 31.4444 15.3072 35.6329 15.1757 39.8075C13.8533 42.4244 12.5449 45.0552 11.2572 47.6929C10.5095 49.2229 8.45335 49.5829 7.04796 48.7867C6.70181 48.5929 6.40412 48.3298 6.16181 47.9975ZM16.8095 26.799C16.768 26.7229 16.7818 26.709 16.8095 26.799V26.799ZM28.5372 13.1052C26.6126 17.3421 24.951 21.7244 24.8334 26.4044C24.7503 27.5467 23.6495 28.2529 22.7287 27.3459C22.438 27.0413 22.2095 26.6813 21.9603 26.3559C21.9603 26.3906 21.9603 26.4252 21.9603 26.4598C21.9326 27.2975 21.8287 29.6167 21.7941 30.5029L21.7387 31.8529C21.718 32.0882 21.7387 32.6767 21.6557 32.9052C21.3787 34.0198 19.8072 34.3313 19.3157 33.1544L19.288 33.0783L18.1041 30.0667C17.9518 33.4175 17.7372 36.8998 17.5087 40.2298C17.4949 40.3821 17.3772 40.5482 17.308 40.6798C16.2487 42.5906 15.2518 44.4736 14.1718 46.3706C13.0987 48.2813 11.9841 50.1644 10.9249 52.0752C8.56412 56.3467 6.46643 60.2444 3.79412 64.8898C2.82489 66.579 1.57181 68.8152 0.692574 70.5459C0.52642 70.8713 0.567957 71.2729 0.831034 71.5221C1.22565 71.8959 1.82104 71.799 2.08411 71.3767L9.87258 59.2267C10.6203 58.0567 11.6241 57.0598 12.801 56.319C15.1203 54.9898 16.8926 53.8475 18.7549 52.8644C20.2503 52.0752 21.808 51.1613 23.241 50.2613C25.9134 48.5859 26.8687 47.6029 27.0834 46.0936C27.3187 44.4113 27.5403 42.7221 27.7687 41.0398C28.108 38.5406 28.4472 36.0413 28.7864 33.5421C29.1464 30.9113 29.4995 28.2736 29.8595 25.6429C29.9841 24.7082 30.1157 23.7736 30.2403 22.839C30.2403 22.8321 30.2403 22.8182 30.2403 22.8113C30.4203 21.489 30.6003 20.1598 30.7803 18.8375C30.7941 18.7129 30.8149 18.5813 30.8287 18.4567C30.9672 17.4252 31.1057 16.3936 31.2441 15.369C31.251 15.3067 31.258 15.2375 31.2718 15.1752C31.3341 14.7736 31.3895 14.3652 31.4587 13.9706C31.4587 13.9429 31.4657 13.9221 31.4726 13.8944C31.5003 13.7283 31.5211 13.569 31.5072 13.4236C31.5764 12.9321 31.6387 12.4406 31.708 11.9559C31.8603 10.8206 32.0126 9.67825 32.1718 8.54286C32.4003 6.8744 32.6218 5.20594 32.8503 3.53748C31.3964 6.77056 29.9495 9.97594 28.551 13.1121L28.5372 13.1052Z" fill="url(#paint0_linear_7511_28148)"/>
<path id="Vector_7" d="M14.2756 46.1697L19.0802 41.4274L19.4679 33.4451C19.4402 33.4105 19.4194 33.3828 19.3917 33.3343C19.3433 33.2513 19.3086 33.1751 19.274 33.0851C19.2533 33.0367 19.2325 32.9813 19.2117 32.9328L18.0833 30.0667L17.9725 32.3236L17.7994 35.522C17.7994 35.522 17.5017 40.1813 17.481 40.2644C17.4602 40.3544 17.4117 40.4513 17.384 40.5067C16.3248 42.4313 15.2794 44.349 14.2617 46.1628L14.2756 46.1697Z" fill="url(#paint1_linear_7511_28148)"/>
<path id="Vector_8" d="M21.2734 33.5423C21.2734 33.5423 22.5957 33.3484 23.0042 32.5177C23.4127 31.6869 23.295 27.713 23.295 27.713C23.1911 27.6646 22.9557 27.6092 22.6442 27.263C22.2219 26.7438 21.9588 26.363 21.9588 26.363C21.9311 27.1107 21.8896 28.2877 21.848 29.0007C21.8065 30.3161 21.7304 31.7146 21.7234 31.9984C21.7027 32.6215 21.7442 33.0646 21.2734 33.5423Z" fill="url(#paint2_linear_7511_28148)"/>
<path id="Vector_9" d="M17.6797 24.8881C17.6797 24.8881 20.1097 24.6873 20.0128 26.1135C19.902 27.7958 19.8674 28.2597 19.8674 28.2597C19.8051 28.0658 19.7358 27.8858 19.6666 27.692C19.5282 27.2973 19.362 26.8266 19.2166 26.425C19.1474 26.2381 19.0782 26.0235 18.9951 25.8366C18.8358 25.4489 18.5105 25.0197 17.9289 24.9158C17.8528 24.902 17.7558 24.8812 17.6797 24.895V24.8881Z" fill="url(#paint3_linear_7511_28148)"/>
<path id="Vector_10" d="M21.3984 23.5243C21.3984 23.5243 22.6654 23.2128 23.3092 23.7666C23.3092 23.7666 23.233 24.2859 23.2054 24.5143C23.1846 24.6736 23.1638 24.8882 23.1638 24.8882L23.143 24.8674C23.1223 24.8466 23.1015 24.8189 23.0807 24.7982C23.0046 24.7082 22.8869 24.5628 22.8246 24.5005C22.7 24.362 22.5823 24.2166 22.4646 24.0782C22.4092 24.0089 22.3538 23.9397 22.2915 23.8705C22.2292 23.8012 22.1669 23.7528 22.0977 23.7113C21.973 23.6351 21.8623 23.5936 21.7446 23.5589C21.6338 23.5313 21.523 23.5174 21.4054 23.5243H21.3984Z" fill="url(#paint4_linear_7511_28148)"/>
</g>
<defs>
<linearGradient id="paint0_linear_7511_28148" x1="8.32873" y1="57.6275" x2="31.6526" y2="6.05747" gradientUnits="userSpaceOnUse">
<stop offset="0.14" stop-color="#5CD0E0"/>
<stop offset="0.25" stop-color="#5DD2D3"/>
<stop offset="0.75" stop-color="#65DDA0"/>
<stop offset="1" stop-color="#69E28C"/>
</linearGradient>
<linearGradient id="paint1_linear_7511_28148" x1="16.5732" y1="44.7135" x2="17.9306" y2="33.5195" gradientUnits="userSpaceOnUse">
<stop offset="0.1" stop-color="#5ED2D8"/>
<stop offset="0.56" stop-color="#61D5C8"/>
<stop offset="0.97" stop-color="#4FAF9C"/>
</linearGradient>
<linearGradient id="paint2_linear_7511_28148" x1="22.2682" y1="34.353" x2="22.3553" y2="26.1347" gradientUnits="userSpaceOnUse">
<stop offset="0.13" stop-color="#62D9B6"/>
<stop offset="0.58" stop-color="#4FAF9C"/>
</linearGradient>
<linearGradient id="paint3_linear_7511_28148" x1="19.5799" y1="28.1273" x2="18.4783" y2="24.0363" gradientUnits="userSpaceOnUse">
<stop offset="0.07" stop-color="#64DBAD"/>
<stop offset="0.62" stop-color="#4FAF9C"/>
</linearGradient>
<linearGradient id="paint4_linear_7511_28148" x1="22.7537" y1="24.7478" x2="22.1277" y2="23.0384" gradientUnits="userSpaceOnUse">
<stop offset="0.07" stop-color="#65DCA7"/>
<stop offset="0.62" stop-color="#4FAF9C"/>
</linearGradient>
</defs>
</svg>
