<svg width="21" height="20" viewBox="0 0 21 20" fill="none" xmlns="http://www.w3.org/2000/svg">
<g clip-path="url(#clip0_9565_30697)">
<path d="M14.2053 7.89323L15.1484 6.03229C15.2478 5.83604 15.21 5.59948 15.0541 5.44448C14.8987 5.28979 14.6634 5.25323 14.4684 5.35292L12.6203 6.29979L11.1534 4.82479C10.9987 4.66917 10.7634 4.63135 10.5678 4.73073C10.3716 4.8301 10.2628 5.04323 10.2972 5.26073L10.6222 7.32354L8.77219 8.27135C8.57687 8.37135 8.46906 8.58448 8.50344 8.80135C8.53781 9.01791 8.70625 9.18667 8.92281 9.22135L9.81562 9.36354L2.77469 16.4001C2.5975 16.5773 2.5 16.8126 2.5 17.0629C2.5 17.3132 2.5975 17.5489 2.77469 17.7257C2.9575 17.9085 3.1975 17.9998 3.43781 17.9998C3.67812 17.9998 3.91812 17.9085 4.10094 17.7257L7.81344 14.0154C7.93562 13.8935 7.93562 13.6954 7.81344 13.5735C7.69156 13.4514 7.49344 13.4514 7.37156 13.5735L3.65906 17.2839C3.53719 17.4057 3.33844 17.4057 3.21656 17.2839C3.1575 17.2248 3.125 17.1464 3.125 17.0629C3.125 16.9795 3.1575 16.901 3.21656 16.842L10.5781 9.48417L10.9725 9.54698L11.0306 9.91635L9.13969 11.806C9.0175 11.9279 9.0175 12.126 9.13969 12.2479C9.20062 12.3089 9.28062 12.3395 9.36062 12.3395C9.44062 12.3395 9.52062 12.3089 9.58156 12.2479L11.1509 10.6795L11.2972 11.6085C11.3316 11.826 11.5003 11.9951 11.7172 12.0295C11.7437 12.0335 11.7703 12.0357 11.7966 12.0357C11.9844 12.0357 12.1587 11.9307 12.2459 11.7589L13.1881 9.89948L15.2369 10.2257C15.4531 10.2601 15.6653 10.152 15.7653 9.95698C15.8656 9.76104 15.8287 9.52479 15.6737 9.36916L14.2053 7.8926V7.89323ZM13.1994 9.26917C12.9825 9.23479 12.7697 9.34323 12.67 9.53979L11.8566 11.1448L11.5759 9.36448C11.5419 9.14729 11.3734 8.97823 11.1566 8.94385L9.38125 8.66104L10.9837 7.8401C11.1788 7.7401 11.2866 7.5276 11.2525 7.31073L10.9719 5.52854L12.2391 6.8026C12.3944 6.95885 12.6303 6.99635 12.8262 6.89604L14.4244 6.07729L13.6087 7.68698C13.5097 7.88229 13.5469 8.11792 13.7012 8.27323L14.9728 9.55166L13.1994 9.26917Z" fill="white"/>
<path d="M17.2296 3.2574C17.1071 3.13584 16.9093 3.13615 16.7878 3.25865L15.7003 4.35209C15.5787 4.47459 15.579 4.6724 15.7015 4.79397C15.7625 4.85459 15.8421 4.8849 15.9218 4.8849C16.0015 4.8849 16.0825 4.85428 16.1434 4.79272L17.2309 3.69928C17.3525 3.57678 17.3521 3.37897 17.2296 3.2574Z" fill="white"/>
<path d="M13.2463 3.53518C13.2628 3.53768 13.2791 3.53893 13.2953 3.53893C13.4466 3.53893 13.5794 3.42893 13.6035 3.27518L13.7238 2.51143C13.7507 2.34112 13.6341 2.18112 13.4638 2.15424C13.2935 2.12737 13.1335 2.24393 13.1066 2.41424L12.9863 3.17799C12.9594 3.34831 13.076 3.50831 13.2463 3.53518Z" fill="white"/>
<path d="M9.73037 3.83201C9.78537 3.94076 9.89537 4.00326 10.0094 4.00326C10.0569 4.00326 10.1051 3.99232 10.1504 3.96951C10.3044 3.89138 10.366 3.70357 10.2879 3.54951L9.58943 2.17138C9.51131 2.01732 9.32349 1.95576 9.16943 2.03388C9.01537 2.11201 8.95381 2.29982 9.03193 2.45388L9.73006 3.83201H9.73037Z" fill="white"/>
<path d="M7.47084 5.71414L8.15616 6.06508C8.20178 6.08852 8.25053 6.09946 8.29834 6.09946C8.41178 6.09946 8.52147 6.03727 8.57678 5.92946C8.65553 5.77571 8.59459 5.58758 8.44116 5.50883L7.75584 5.15789C7.60241 5.07946 7.41397 5.13977 7.33522 5.29352C7.25647 5.44696 7.31741 5.63539 7.47084 5.71414Z" fill="white"/>
<path d="M14.9937 12.0977C14.9156 11.9436 14.7278 11.882 14.5737 11.9602C14.4197 12.0383 14.3581 12.2261 14.4362 12.3802L14.7853 13.0692C14.8403 13.178 14.9503 13.2405 15.0644 13.2405C15.1119 13.2405 15.16 13.2295 15.2053 13.2067C15.3594 13.1286 15.4209 12.9408 15.3428 12.7867L14.9937 12.0977Z" fill="white"/>
<path d="M18.3293 10.9711L16.959 10.2689C16.8055 10.1901 16.6171 10.2507 16.5383 10.4045C16.4596 10.5582 16.5205 10.7464 16.674 10.8251L18.0443 11.5273C18.0899 11.5507 18.1387 11.5617 18.1865 11.5617C18.2999 11.5617 18.4096 11.4995 18.4649 11.3917C18.5437 11.2379 18.4827 11.0498 18.3293 10.9711Z" fill="white"/>
<path d="M16.9512 7.26338C16.9756 7.41713 17.1084 7.52682 17.2593 7.52682C17.2756 7.52682 17.2921 7.52557 17.309 7.52276L18.0687 7.40182C18.239 7.37463 18.3553 7.21463 18.3281 7.04401C18.3009 6.87369 18.1406 6.75776 17.9703 6.78463L17.2106 6.90557C17.0403 6.93276 16.924 7.09307 16.9512 7.26338Z" fill="white"/>
<path d="M8.4707 13.2207C8.64329 13.2207 8.7832 13.0808 8.7832 12.9082C8.7832 12.7356 8.64329 12.5957 8.4707 12.5957C8.29811 12.5957 8.1582 12.7356 8.1582 12.9082C8.1582 13.0808 8.29811 13.2207 8.4707 13.2207Z" fill="white"/>
</g>
<defs>
<clipPath id="clip0_9565_30697">
<rect width="16" height="16" fill="white" transform="translate(2.5 2)"/>
</clipPath>
</defs>
</svg>
