<svg width="28" height="28" viewBox="0 0 28 28" fill="none" xmlns="http://www.w3.org/2000/svg">
    <path
        d="M22.7945 15.7823C22.7039 15.6915 22.5903 15.6271 22.466 15.596C22.3416 15.5649 22.2111 15.5683 22.0885 15.6058C20.7423 16.0128 19.3109 16.0469 17.9469 15.7045C16.5828 15.3621 15.3372 14.6559 14.3428 13.6613C13.3483 12.6666 12.6423 11.4207 12.2999 10.0564C11.9576 8.69208 11.9917 7.26041 12.3987 5.91395C12.4364 5.79126 12.44 5.66059 12.4091 5.536C12.3782 5.4114 12.3139 5.2976 12.2231 5.20682C12.1324 5.11605 12.0186 5.05174 11.894 5.02081C11.7695 4.98987 11.6388 4.99349 11.5162 5.03127C9.655 5.60152 8.02107 6.74437 6.84688 8.29718C5.82001 9.66079 5.19365 11.2838 5.03817 12.9838C4.88268 14.6839 5.20423 16.3936 5.96668 17.9209C6.72913 19.4483 7.90229 20.7327 9.35434 21.6299C10.8064 22.5271 12.4798 23.0016 14.1866 23C16.1778 23.0061 18.116 22.3586 19.704 21.1569C21.2565 19.9825 22.3991 18.3482 22.9692 16.4867C23.0065 16.3644 23.01 16.2344 22.9792 16.1103C22.9484 15.9863 22.8846 15.8729 22.7945 15.7823ZM18.855 20.0289C17.3596 21.1554 15.5078 21.7037 13.6403 21.5729C11.7728 21.4421 10.0154 20.641 8.69159 19.3171C7.36779 17.9931 6.5667 16.2354 6.43578 14.3675C6.30487 12.4997 6.85294 10.6474 7.97912 9.15161C8.71283 8.18249 9.66139 7.39689 10.7502 6.85665C10.6881 7.29201 10.6569 7.7312 10.6566 8.17096C10.6592 10.6048 11.627 12.9383 13.3476 14.6593C15.0683 16.3803 17.4012 17.3482 19.8346 17.3508C20.2751 17.3507 20.7151 17.3194 21.1513 17.2572C20.6106 18.3464 19.8246 19.2952 18.855 20.0289Z"
        fill="#D5D5D5" />
</svg>