<svg width="28" height="37" viewBox="0 0 28 37" fill="none" xmlns="http://www.w3.org/2000/svg">
<g clip-path="url(#clip0_12397_54743)">
<path d="M0 3.66667C0 1.64162 1.64162 0 3.66667 0H15.8667L28 12.025V33.3333C28 35.3584 26.3584 37 24.3333 37H3.66667C1.64162 37 0 35.3584 0 33.3333V3.66667Z" fill="#F04438"/>
<path d="M18.3333 11.9167H27.4999L15.5833 0V9.16667C15.5833 10.6855 16.8145 11.9167 18.3333 11.9167Z" fill="white" fill-opacity="0.5"/>
</g>
<path d="M5.82135 30.0834V23.4167H8.45156C8.9572 23.4167 9.38798 23.5133 9.74388 23.7064C10.0998 23.8974 10.3711 24.1632 10.5577 24.5039C10.7465 24.8425 10.8409 25.2331 10.8409 25.6758C10.8409 26.1185 10.7454 26.5092 10.5544 26.8477C10.3635 27.1862 10.0868 27.4499 9.72435 27.6387C9.36411 27.8275 8.92791 27.9219 8.41575 27.9219H6.73932V26.7924H8.18789C8.45916 26.7924 8.68268 26.7457 8.85846 26.6524C9.03641 26.5569 9.16879 26.4256 9.2556 26.2585C9.34457 26.0892 9.38906 25.895 9.38906 25.6758C9.38906 25.4545 9.34457 25.2613 9.2556 25.0964C9.16879 24.9293 9.03641 24.8002 8.85846 24.709C8.68051 24.6157 8.45482 24.5691 8.18138 24.5691H7.23086V30.0834H5.82135ZM13.9364 30.0834H11.5731V23.4167H13.9559C14.6265 23.4167 15.2037 23.5502 15.6877 23.8171C16.1716 24.0819 16.5438 24.4627 16.8042 24.9597C17.0668 25.4566 17.1981 26.0513 17.1981 26.7435C17.1981 27.438 17.0668 28.0348 16.8042 28.5339C16.5438 29.033 16.1694 29.4161 15.6812 29.683C15.195 29.9499 14.6134 30.0834 13.9364 30.0834ZM12.9826 28.8757H13.8778C14.2944 28.8757 14.6449 28.8019 14.9292 28.6543C15.2157 28.5046 15.4305 28.2735 15.5737 27.961C15.7191 27.6463 15.7918 27.2405 15.7918 26.7435C15.7918 26.2509 15.7191 25.8483 15.5737 25.5358C15.4305 25.2233 15.2167 24.9933 14.9325 24.8457C14.6482 24.6982 14.2977 24.6244 13.881 24.6244H12.9826V28.8757ZM18.0589 30.0834V23.4167H22.4729V24.5788H19.4684V26.1674H22.18V27.3295H19.4684V30.0834H18.0589Z" fill="white"/>
<defs>
<clipPath id="clip0_12397_54743">
<rect width="27.5" height="36.6667" fill="white"/>
</clipPath>
</defs>
</svg>
