<svg width="602" height="243" viewBox="0 0 602 243" fill="none" xmlns="http://www.w3.org/2000/svg">
<rect x="166" y="1" width="288" height="240" fill="white"/>
<path d="M114.5 195L117 191.5L165.5 191L166 241H125L114.5 195Z" fill="white"/>
<g clip-path="url(#clip0_9321_33377)">
<path fill-rule="evenodd" clip-rule="evenodd" d="M74.7693 63.5659C79.691 57.9775 87.2235 56.728 94.302 59.9056C101.387 63.086 106.841 70.1314 108.648 79.1462L108.827 80.0605L108.889 80.3723C110.386 87.8028 111.827 91.0836 114.88 94.37L114.986 94.4821C116.603 96.1627 123.613 102.423 124.628 103.374C125.086 103.803 125.11 104.523 124.68 104.982C124.251 105.44 123.531 105.463 123.073 105.034L122.093 104.14C119.805 102.067 114.58 97.3641 113.265 95.9737L113.213 95.9184C109.837 92.2839 108.232 88.6295 106.659 80.8214C106.596 80.5061 106.532 80.1826 106.468 79.8491C103.166 62.6015 85.5963 54.7142 76.4765 65.0694C72.5394 69.5398 72.143 76.2834 74.5698 84.3403C76.3189 90.1475 79.6099 96.4388 82.0099 99.4485L82.1167 99.5811C83.2992 101.035 83.8092 103.615 84.3904 109.624L84.9504 115.711L85.0694 116.945C85.2405 118.68 85.4094 120.23 85.5978 121.762C86.1882 126.565 86.9342 130.836 87.9524 134.887C88.1187 135.548 88.2918 136.201 88.4719 136.846C88.641 137.451 88.2876 138.078 87.6825 138.247C87.0775 138.416 86.45 138.063 86.281 137.458C86.0954 136.794 85.9173 136.122 85.7462 135.441C84.7026 131.29 83.941 126.929 83.3399 122.04L83.2532 121.322C83.0966 120.002 82.9519 118.652 82.8057 117.17L82.6534 115.581C82.5249 114.2 82.2449 111.099 82.1888 110.501L82.1265 109.848C81.6019 104.449 81.1177 101.958 80.3526 101.017C77.7552 97.8309 74.2518 91.1725 72.3916 84.9964C69.7616 76.2647 70.2033 68.7504 74.7693 63.5659Z" fill="#FE7624"/>
<path fill-rule="evenodd" clip-rule="evenodd" d="M56.7428 118.744C63.2513 118.163 70.1813 121.097 75.2708 126.977L75.7631 127.553C78.6087 130.867 80.6085 132.746 82.5583 133.957C84.1719 134.959 85.792 135.559 88.5058 136.214L88.8961 136.306C89.8807 136.528 94.7601 137.606 96.7595 138.096L97.5879 138.301C101.323 139.239 105.175 140.361 109.578 141.836C116.104 144.011 122.238 148.371 128.062 154.653C128.489 155.114 128.462 155.833 128.001 156.261C127.54 156.688 126.821 156.66 126.394 156.2C120.81 150.178 114.983 146.035 108.857 143.993C104.349 142.483 100.434 141.35 96.626 140.406L95.6042 140.158C93.1949 139.587 88.5806 138.571 88.2158 138.484C85.1414 137.754 83.263 137.073 81.358 135.889C79.0928 134.482 76.861 132.359 73.6976 128.637C64.2286 117.497 48.433 118.907 46.1807 130.025C45.1924 134.828 47.6797 139.868 52.7496 144.729C56.4051 148.234 61.3727 151.468 64.3282 152.677L64.4767 152.737C65.9984 153.333 67.4743 155.059 70.4221 159.266L73.8382 164.176L74.4524 165.048C76.1079 167.377 77.6106 169.385 79.1535 171.297C84.2393 177.598 89.3478 182.296 94.978 185.367C98.4269 187.256 101.647 188.031 104.853 187.926C107.259 187.848 109.383 187.345 112.404 186.288L114.639 185.489L115.17 185.304C115.676 185.13 116.108 184.991 116.525 184.869C117.944 184.453 119.111 184.265 120.216 184.326C122.9 184.472 124.983 186.112 126.727 189.568C127.01 190.129 126.784 190.813 126.224 191.096C125.663 191.379 124.979 191.154 124.696 190.593C123.316 187.859 121.929 186.736 120.191 186.603L119.986 186.592C118.832 186.536 118.246 186.653 115.3 187.68L113.441 188.335C110.07 189.529 107.691 190.11 104.927 190.2C101.312 190.318 97.6899 189.446 93.8869 187.363C87.9574 184.129 82.6407 179.239 77.3833 172.726C75.9006 170.889 74.4585 168.97 72.8931 166.779L72.1923 165.791L68.5638 160.578L68.2055 160.07C65.8687 156.768 64.5503 155.242 63.6869 154.872L63.6441 154.854C60.4281 153.584 55.1036 150.137 51.1752 146.371C45.5993 141.024 42.7731 135.298 43.9518 129.57C45.205 123.384 50.2131 119.327 56.7428 118.744Z" fill="#FE7624"/>
<path fill-rule="evenodd" clip-rule="evenodd" d="M135.784 46.6138C139.987 38.5104 146.818 34.4708 156.563 35.3936C160.667 35.7772 163.952 36.9258 166.464 38.7991C166.968 39.1747 167.071 39.8874 166.696 40.3909C166.32 40.8945 165.608 40.9983 165.104 40.6227C162.948 39.015 160.061 38.0053 156.35 37.6585C147.56 36.8261 141.593 40.3544 137.803 47.6612C134.736 53.5747 133.222 61.6337 132.813 71.6914L132.797 72.0948C132.685 75.1019 132.678 77.4874 132.74 81.3193L132.787 84.2069C132.841 88.0103 132.8 89.6094 132.583 91.5692L132.571 91.6727C132.23 94.6869 131.456 97.1725 130.03 99.5801C128.929 101.44 127.428 103.261 125.421 105.164L125.196 105.376C121.481 108.846 121.555 112.752 124.498 118.986L124.794 119.602C125.157 120.349 125.553 121.12 126.17 122.298L127.06 124.004C128.277 126.352 128.784 127.436 129.336 128.887C130.251 131.296 130.609 133.359 130.321 135.274L130.265 135.614C130.044 136.883 129.416 140.055 129.349 140.418C128.237 146.462 127.896 151.987 128.632 158.877C129.623 168.141 132.569 178.508 137.966 190.329C138.227 190.9 137.975 191.575 137.403 191.836C136.832 192.097 136.157 191.845 135.896 191.273C130.401 179.237 127.388 168.634 126.37 159.119C125.624 152.136 125.948 146.486 127.042 140.388L127.145 139.833C127.313 138.957 127.957 135.693 128.072 134.935C128.285 133.517 128.017 131.883 127.286 129.902L127.142 129.521C126.629 128.193 126.111 127.11 124.866 124.715L123.818 122.709C123.269 121.654 122.906 120.933 122.535 120.156C120.977 116.894 120.162 114.32 120.091 111.843C120.004 108.829 121.085 106.168 123.499 103.85L123.643 103.714C125.613 101.873 127.048 100.151 128.073 98.421C129.284 96.3761 129.958 94.2719 130.279 91.6858L130.332 91.2223C130.528 89.4196 130.564 87.8612 130.512 84.2054L130.452 80.4836C130.407 77.2955 130.417 75.0864 130.507 72.4748L130.524 72.0095C130.92 61.4571 132.487 52.9694 135.784 46.6138Z" fill="#FE7624"/>
<path fill-rule="evenodd" clip-rule="evenodd" d="M164.965 131.891C158.734 138.393 154.186 147.601 151.035 159.122C148.482 168.457 146.93 178.927 146.073 190.719C146.025 191.378 146.547 191.938 147.208 191.938H165.786C166.414 191.938 166.923 191.429 166.923 190.801V132.678C166.923 131.653 165.674 131.151 164.965 131.891ZM164.649 135.674V189.664H148.434L148.437 189.617C149.302 178.477 150.812 168.562 153.229 159.722C155.933 149.837 159.673 141.752 164.6 135.733L164.649 135.674Z" fill="#FE7624"/>
</g>
<path fill-rule="evenodd" clip-rule="evenodd" d="M165.441 189.664C166.069 189.664 166.578 190.173 166.578 190.801C166.578 191.407 166.104 191.902 165.507 191.937L165.441 191.938H119.564C116.838 191.938 114.824 194.346 115.344 196.897L125.148 240.714C125.285 241.327 124.899 241.935 124.286 242.072C123.695 242.204 123.108 241.85 122.944 241.275L122.928 241.211L113.147 197.501C112.231 193.518 115.295 189.74 119.438 189.665L119.564 189.664H165.441Z" fill="#2C5D40"/>
<path fill-rule="evenodd" clip-rule="evenodd" d="M455.177 0.0141602H165.774C165.146 0.0141602 164.637 0.52341 164.637 1.1516V240.545C164.637 241.173 165.146 241.682 165.774 241.682H455.177C455.805 241.682 456.314 241.173 456.314 240.545V1.1516C456.314 0.52341 455.805 0.0141602 455.177 0.0141602ZM454.04 2.28867V239.408H166.912V2.28867H454.04Z" fill="#2C5D40"/>
<path fill-rule="evenodd" clip-rule="evenodd" d="M346.556 178.896H330.329C329.701 178.896 329.191 179.405 329.191 180.033V205.36C329.191 205.988 329.701 206.497 330.329 206.497H346.556C347.185 206.497 347.694 205.988 347.694 205.36V180.033C347.694 179.405 347.185 178.896 346.556 178.896ZM345.419 181.17V204.223H331.466V181.17H345.419Z" fill="#2C5D40"/>
<path fill-rule="evenodd" clip-rule="evenodd" d="M372.033 168.242H355.805C355.177 168.242 354.668 168.751 354.668 169.379V205.36C354.668 205.988 355.177 206.498 355.805 206.498H372.033C372.661 206.498 373.17 205.988 373.17 205.36V169.379C373.17 168.751 372.661 168.242 372.033 168.242ZM370.895 170.517V204.223H356.943V170.517H370.895Z" fill="#2C5D40"/>
<path fill-rule="evenodd" clip-rule="evenodd" d="M397.474 151.408H381.247C380.619 151.408 380.109 151.917 380.109 152.545V205.36C380.109 205.989 380.619 206.498 381.247 206.498H397.474C398.102 206.498 398.612 205.989 398.612 205.36V152.545C398.612 151.917 398.102 151.408 397.474 151.408ZM396.337 153.683V204.223H382.384V153.683H396.337Z" fill="#2C5D40"/>
<rect x="406.688" y="137.986" width="16.2275" height="67.3744" fill="#FE7624"/>
<path fill-rule="evenodd" clip-rule="evenodd" d="M428.411 103.408C428.146 103.18 427.804 103.104 427.501 103.142L416.885 104.848C416.278 104.962 415.823 105.531 415.937 106.137C416.051 106.744 416.619 107.161 417.226 107.085L424.165 105.986L403.463 130.024L395.008 121.91C394.781 121.682 394.477 121.569 394.174 121.607C393.871 121.607 393.567 121.758 393.378 121.986L365.624 154.213L357.586 148.185C357.131 147.844 356.525 147.881 356.108 148.261L331.198 172.147C330.743 172.564 330.743 173.284 331.16 173.739C331.387 173.967 331.691 174.081 331.994 174.081C332.259 174.081 332.563 173.967 332.79 173.777L357.018 150.535L365.169 156.64C365.662 156.981 366.307 156.943 366.724 156.488L394.364 124.374L402.819 132.488C403.046 132.716 403.349 132.829 403.653 132.791C403.956 132.791 404.259 132.64 404.449 132.412L426.553 106.744L426.401 115.73C426.401 116.374 426.894 116.867 427.539 116.867C428.146 116.867 428.676 116.374 428.676 115.73L428.866 104.242C428.828 103.976 428.676 103.635 428.411 103.408Z" fill="#FE7624"/>
<path fill-rule="evenodd" clip-rule="evenodd" d="M264.733 178.023C265.361 178.023 265.87 178.533 265.87 179.161C265.87 179.767 265.396 180.262 264.799 180.296L264.733 180.298H194.969C194.341 180.298 193.832 179.789 193.832 179.161C193.832 178.555 194.306 178.06 194.903 178.025L194.969 178.023H264.733Z" fill="#2C5D40"/>
<path fill-rule="evenodd" clip-rule="evenodd" d="M246.344 188.64C246.972 188.64 247.481 189.149 247.481 189.777C247.481 190.383 247.008 190.878 246.411 190.913L246.344 190.915H194.969C194.341 190.915 193.832 190.405 193.832 189.777C193.832 189.171 194.306 188.676 194.903 188.642L194.969 188.64H246.344Z" fill="#2C5D40"/>
<path fill-rule="evenodd" clip-rule="evenodd" d="M229.852 200.545C230.48 200.545 230.989 201.054 230.989 201.682C230.989 202.288 230.516 202.783 229.919 202.818L229.852 202.82H193.454C192.826 202.82 192.316 202.311 192.316 201.682C192.316 201.077 192.79 200.581 193.387 200.547L193.454 200.545H229.852Z" fill="#2C5D40"/>
<path fill-rule="evenodd" clip-rule="evenodd" d="M302.875 178.023C303.503 178.023 304.012 178.533 304.012 179.161C304.012 179.767 303.538 180.262 302.941 180.296L302.875 180.298H272.77C272.142 180.298 271.633 179.789 271.633 179.161C271.633 178.555 272.106 178.06 272.703 178.025L272.77 178.023H302.875Z" fill="#2C5D40"/>
<path fill-rule="evenodd" clip-rule="evenodd" d="M228.07 155.957L236.108 163.54V148.26L228.07 155.957Z" fill="#FE7624"/>
<path fill-rule="evenodd" clip-rule="evenodd" d="M216.504 163.919L224.769 155.995L216.504 148.222V163.919Z" fill="#FE7624"/>
<path fill-rule="evenodd" clip-rule="evenodd" d="M257.492 145.568H238.914L248.279 154.402L257.492 145.568Z" fill="#FE7624"/>
<path fill-rule="evenodd" clip-rule="evenodd" d="M226.403 157.549L217 166.611H236.033L226.403 157.549Z" fill="#FE7624"/>
<path fill-rule="evenodd" clip-rule="evenodd" d="M238.383 163.919L246.648 155.995L238.383 148.222V163.919Z" fill="#FE7624"/>
<path fill-rule="evenodd" clip-rule="evenodd" d="M193.453 147.161V165.018L202.856 155.995L193.453 147.161Z" fill="#FE7624"/>
<path fill-rule="evenodd" clip-rule="evenodd" d="M204.524 157.549L195.121 166.611H214.154L204.524 157.549Z" fill="#FE7624"/>
<path fill-rule="evenodd" clip-rule="evenodd" d="M213.699 145.568H195.121L204.524 154.402L213.699 145.568Z" fill="#FE7624"/>
<path fill-rule="evenodd" clip-rule="evenodd" d="M257.983 163.54V148.26L249.945 155.957L257.983 163.54Z" fill="#FE7624"/>
<path fill-rule="evenodd" clip-rule="evenodd" d="M206.191 155.957L214.229 163.54V148.26L206.191 155.957Z" fill="#FE7624"/>
<path fill-rule="evenodd" clip-rule="evenodd" d="M248.317 157.549L238.914 166.611H257.947L248.317 157.549Z" fill="#FE7624"/>
<path fill-rule="evenodd" clip-rule="evenodd" d="M235.578 145.568H217L226.403 154.402L235.578 145.568Z" fill="#FE7624"/>
<path fill-rule="evenodd" clip-rule="evenodd" d="M279.86 145.568H260.258V166.611H279.86V145.568Z" fill="#FE7624"/>
<path fill-rule="evenodd" clip-rule="evenodd" d="M302.876 145.568H282.137V166.611H302.876V145.568Z" fill="#FE7624"/>
<path fill-rule="evenodd" clip-rule="evenodd" d="M257.909 166.611C257.947 166.649 257.947 166.649 257.985 166.649V166.611H257.909Z" fill="#FE7624"/>
<path fill-rule="evenodd" clip-rule="evenodd" d="M412.411 67.3125H400.657C400.029 67.3125 399.52 67.8217 399.52 68.4499V80.2035C399.52 80.8317 400.029 81.3409 400.657 81.3409H412.411C413.039 81.3409 413.548 80.8317 413.548 80.2035V68.4499C413.548 67.8217 413.039 67.3125 412.411 67.3125ZM411.273 69.587V79.0657H401.794V69.587H411.273Z" fill="#2C5D40"/>
<path fill-rule="evenodd" clip-rule="evenodd" d="M414.723 46.0049H369.794C369.165 46.0049 368.656 46.5141 368.656 47.1423V60.6779C368.656 61.3061 369.165 61.8153 369.794 61.8153H414.723C415.351 61.8153 415.86 61.3061 415.86 60.6779V47.1423C415.86 46.5141 415.351 46.0049 414.723 46.0049ZM413.585 48.2798V59.5404H370.931V48.2798H413.585Z" fill="#2C5D40"/>
<path fill-rule="evenodd" clip-rule="evenodd" d="M392.656 79.0664C393.284 79.0664 393.794 79.5757 393.794 80.2038C393.794 80.8096 393.32 81.3048 392.723 81.3394L392.656 81.3413H369.794C369.165 81.3413 368.656 80.832 368.656 80.2038C368.656 79.5981 369.13 79.1029 369.727 79.0683L369.794 79.0664H392.656Z" fill="#2C5D40"/>
<path fill-rule="evenodd" clip-rule="evenodd" d="M392.656 73.4927C393.284 73.4927 393.794 74.0019 393.794 74.6301C393.794 75.2359 393.32 75.731 392.723 75.7656L392.656 75.7676H369.794C369.165 75.7676 368.656 75.2583 368.656 74.6301C368.656 74.0244 369.13 73.5292 369.727 73.4946L369.794 73.4927H392.656Z" fill="#2C5D40"/>
<path fill-rule="evenodd" clip-rule="evenodd" d="M392.656 67.957C393.284 67.957 393.794 68.4663 393.794 69.0945C393.794 69.7002 393.32 70.1954 392.723 70.23L392.656 70.2319H369.794C369.165 70.2319 368.656 69.7227 368.656 69.0945C368.656 68.4887 369.13 67.9936 369.727 67.959L369.794 67.957H392.656Z" fill="#2C5D40"/>
<path fill-rule="evenodd" clip-rule="evenodd" d="M395.388 110.838C396.016 110.838 396.525 111.348 396.525 111.976C396.525 112.582 396.052 113.077 395.454 113.111L395.388 113.113H332.942C332.314 113.113 331.805 112.604 331.805 111.976C331.805 111.37 332.278 110.875 332.875 110.84L332.942 110.838H395.388Z" fill="#2C5D40"/>
<path fill-rule="evenodd" clip-rule="evenodd" d="M369.795 116.185C370.423 116.185 370.933 116.694 370.933 117.322C370.933 117.928 370.459 118.423 369.862 118.458L369.795 118.459H332.942C332.314 118.459 331.805 117.95 331.805 117.322C331.805 116.716 332.278 116.221 332.875 116.187L332.942 116.185H369.795Z" fill="#2C5D40"/>
<path fill-rule="evenodd" clip-rule="evenodd" d="M268.866 79.5972L311.71 57.8721C315.122 64.6209 316.904 72.0522 316.904 79.5972C316.904 105.948 295.217 127.635 268.866 127.635C254.231 127.635 240.392 120.962 231.293 109.512L268.866 79.5972Z" fill="#FE7624"/>
<path fill-rule="evenodd" clip-rule="evenodd" d="M345.377 41.7959C346.005 41.7959 346.515 42.3051 346.515 42.9333C346.515 43.5391 346.041 44.0343 345.444 44.0688L345.377 44.0708H305.68C305.052 44.0708 304.543 43.5615 304.543 42.9333C304.543 42.3276 305.016 41.8324 305.614 41.7978L305.68 41.7959H345.377Z" fill="#2C5D40"/>
<path fill-rule="evenodd" clip-rule="evenodd" d="M345.38 47.1421C346.008 47.1421 346.517 47.6513 346.517 48.2795C346.517 48.8853 346.044 49.3804 345.447 49.415L345.38 49.417H324.223C323.595 49.417 323.086 48.9077 323.086 48.2795C323.086 47.6738 323.559 47.1786 324.157 47.144L324.223 47.1421H345.38Z" fill="#2C5D40"/>
<path fill-rule="evenodd" clip-rule="evenodd" d="M345.38 52.5259C346.008 52.5259 346.517 53.0351 346.517 53.6633C346.517 54.2691 346.043 54.7642 345.446 54.7988L345.38 54.8008H331.313C330.685 54.8008 330.176 54.2915 330.176 53.6633C330.176 53.0576 330.649 52.5624 331.246 52.5278L331.313 52.5259H345.38Z" fill="#2C5D40"/>
<path fill-rule="evenodd" clip-rule="evenodd" d="M346.556 84.374C347.184 84.374 347.693 84.8833 347.693 85.5115C347.693 86.1172 347.219 86.6124 346.622 86.647L346.556 86.6489H295.333C294.705 86.6489 294.195 86.1397 294.195 85.5115C294.195 84.9057 294.669 84.4106 295.266 84.376L295.333 84.374H346.556Z" fill="#2C5D40"/>
<path fill-rule="evenodd" clip-rule="evenodd" d="M346.554 88.583C347.182 88.583 347.692 89.0923 347.692 89.7204C347.692 90.3262 347.218 90.8214 346.621 90.856L346.554 90.8579H336.962C336.333 90.8579 335.824 90.3486 335.824 89.7204C335.824 89.1147 336.298 88.6195 336.895 88.5849L336.962 88.583H346.554Z" fill="#2C5D40"/>
<path fill-rule="evenodd" clip-rule="evenodd" d="M239.749 37.3599C240.377 37.3599 240.886 37.8691 240.886 38.4973C240.886 39.1031 240.413 39.5982 239.815 39.6328L239.749 39.6347H209.227C208.599 39.6347 208.09 39.1255 208.09 38.4973C208.09 37.8915 208.563 37.3964 209.16 37.3618L209.227 37.3599H239.749Z" fill="#2C5D40"/>
<path fill-rule="evenodd" clip-rule="evenodd" d="M215.332 41.6821C215.96 41.6821 216.469 42.1914 216.469 42.8196C216.469 43.4253 215.995 43.9205 215.398 43.9551L215.332 43.957H209.227C208.599 43.957 208.09 43.4478 208.09 42.8196C208.09 42.2138 208.563 41.7187 209.16 41.6841L209.227 41.6821H215.332Z" fill="#2C5D40"/>
<path fill-rule="evenodd" clip-rule="evenodd" d="M259.91 80.5826L213.692 81.0755C213.064 81.0822 212.56 81.5968 212.566 82.225C212.68 92.8752 216.32 102.951 222.823 111.129C223.214 111.62 223.928 111.703 224.42 111.313L260.628 82.6113C261.478 81.9381 260.994 80.571 259.91 80.5826ZM256.612 82.8922L223.908 108.815L223.82 108.699C218.378 101.444 215.236 92.7279 214.874 83.5058L214.868 83.3377L256.612 82.8922Z" fill="#FE7624"/>
<path fill-rule="evenodd" clip-rule="evenodd" d="M217.721 60.4944C215.62 65.925 214.535 71.681 214.535 77.6252V78.2319C214.535 78.8659 215.054 79.3775 215.688 79.3692L261.868 78.7626C263.118 78.7461 263.43 77.0174 262.264 76.5649L219.193 59.8445C218.607 59.617 217.948 59.9081 217.721 60.4944ZM219.444 62.3822L255.978 76.5646L216.813 77.0791L216.816 76.8541C216.897 71.9788 217.746 67.2451 219.321 62.7326L219.444 62.3822Z" fill="#FE7624"/>
<path fill-rule="evenodd" clip-rule="evenodd" d="M292.41 32.5891L269.623 72.6649C269.068 73.6408 270.113 74.7453 271.118 74.2458L312.407 53.734C312.968 53.4551 313.198 52.7745 312.921 52.2123C308.775 43.8035 302.143 36.7989 293.959 32.1617C293.413 31.8523 292.72 32.0436 292.41 32.5891ZM293.818 34.7132L293.953 34.7943C300.859 38.9762 306.526 44.9614 310.294 52.0711L310.365 52.2074L273.441 70.5513L293.818 34.7132Z" fill="#FE7624"/>
<path fill-rule="evenodd" clip-rule="evenodd" d="M288.09 34.2132C281.417 30.3838 273.682 28.1847 265.455 28.1089H264.697C245.322 28.2985 228.829 40.3932 222.156 57.4169L265.152 74.289L288.09 34.2132Z" fill="#2C5D40"/>
<path fill-rule="evenodd" clip-rule="evenodd" d="M222.307 88.7344C222.935 88.7344 223.445 89.2436 223.445 89.8718C223.445 90.4776 222.971 90.9727 222.374 91.0073L222.307 91.0093H191.786C191.158 91.0093 190.648 90.5 190.648 89.8718C190.648 89.2661 191.122 88.7709 191.719 88.7363L191.786 88.7344H222.307Z" fill="#2C5D40"/>
<path fill-rule="evenodd" clip-rule="evenodd" d="M202.819 93.0566C203.447 93.0566 203.956 93.5659 203.956 94.1941C203.956 94.7998 203.483 95.295 202.886 95.3296L202.819 95.3315H191.786C191.158 95.3315 190.648 94.8223 190.648 94.1941C190.648 93.5883 191.122 93.0932 191.719 93.0586L191.786 93.0566H202.819Z" fill="#2C5D40"/>
<path fill-rule="evenodd" clip-rule="evenodd" d="M426.144 219.922C426.771 219.883 427.311 220.359 427.35 220.986C427.39 221.613 426.913 222.153 426.286 222.192C423.934 222.339 421.457 222.62 419.014 223.028L415.806 223.592L414.417 223.842C414.065 223.907 413.727 223.969 413.397 224.031L412.907 224.124C409.37 224.796 406.831 225.391 405.352 225.936C405.008 226.063 404.736 226.183 404.547 226.289C404.501 226.315 404.463 226.338 404.432 226.359L404.386 226.391C404.164 226.75 404.232 226.939 404.736 227.246L404.801 227.285C405.616 227.764 407.015 228.046 408.47 227.996C409.098 227.974 409.624 228.466 409.646 229.094C409.667 229.721 409.176 230.248 408.548 230.27C406.692 230.333 404.874 229.967 403.648 229.246C402.024 228.291 401.465 226.687 402.516 225.096C402.873 224.553 403.53 224.184 404.565 223.802L404.799 223.717C406.366 223.169 408.746 222.61 411.978 221.985L412.977 221.795C413.56 221.686 414.168 221.574 414.828 221.456L418.056 220.884C420.767 220.408 423.528 220.085 426.144 219.922Z" fill="#2C5D40"/>
<path fill-rule="evenodd" clip-rule="evenodd" d="M446.45 218.071L446.467 218.136L451.813 240.278C451.981 240.972 451.476 241.641 450.774 241.681L450.708 241.683L420.566 241.682L420.436 241.69C416.722 241.89 414.506 240.924 414.426 238.845L414.423 238.754C414.422 238.592 414.436 238.429 414.465 238.267L414.477 238.201L414.37 238.197C412.247 238.092 410.148 236.998 409.655 235.708L409.629 235.635C409.5 235.249 409.544 234.826 409.736 234.378L409.748 234.35L409.672 234.36C408.66 234.483 407.842 234.487 407.194 234.364L407.098 234.344C405.188 233.932 404.681 232.35 405.629 230.453C406.201 229.286 408.97 227.459 413.285 225.097L413.991 224.714C417.169 223.004 420.351 221.486 421.655 221.071L421.878 221.005C422.989 220.695 426.601 220.08 432.198 219.214L433.458 219.02C435.092 218.77 436.801 218.512 438.537 218.254L443.068 217.586L445.2 217.277C445.759 217.197 446.288 217.538 446.45 218.071ZM449.262 239.408L444.498 219.677L441.86 220.062L438.872 220.504C437.634 220.688 436.41 220.872 435.217 221.053L431.673 221.598C426.751 222.365 423.434 222.935 422.507 223.191L422.432 223.213C419.635 224.012 408.27 230.232 407.668 231.462C407.561 231.676 407.491 231.856 407.456 231.998L407.443 232.056L407.437 232.083L407.496 232.101L407.578 232.121C408.332 232.284 409.83 232.119 412.014 231.609L412.457 231.503L412.478 231.489C413.438 230.797 414.592 230.105 415.878 229.448L416.033 229.369C416.717 229.024 417.459 228.673 418.25 228.319C419.714 227.665 421.278 227.029 422.841 226.435L423.3 226.262C423.524 226.178 423.741 226.098 423.949 226.022L424.469 225.834L424.932 225.67C425.526 225.464 426.174 225.779 426.379 226.372C426.577 226.945 426.292 227.568 425.739 227.796L425.124 228.016L424.73 228.159C424.393 228.282 424.031 228.417 423.649 228.562C422.123 229.142 420.598 229.762 419.179 230.396C418.418 230.736 417.708 231.072 417.059 231.4C415.325 232.275 413.844 233.24 412.837 234.115C412.47 234.434 412.185 234.726 412 234.964L411.954 235.024L412.024 235.079C412.296 235.285 412.661 235.486 413.063 235.64C413.985 235.994 414.936 236.06 415.753 235.775L415.779 235.765L415.875 235.706C417.028 235.015 418.59 234.301 420.473 233.57L420.721 233.474C421.527 233.166 422.363 232.864 423.213 232.572L423.753 232.389L424.279 232.178C426.517 231.289 427.244 231.108 427.875 231.24L427.907 231.247C429.055 231.508 429.099 233.127 427.967 233.45L427.637 233.546L427.031 233.728C426.763 233.809 426.48 233.897 426.184 233.99L425.96 234.061C425.624 234.168 425.288 234.276 424.954 234.387L424.564 234.517L423.33 235.019L420.72 236.092C419.932 236.413 419.422 236.613 418.912 236.803L418.708 236.878C417.591 237.274 416.693 238.214 416.698 238.735C416.699 238.847 416.776 238.95 417.128 239.103C417.748 239.372 418.805 239.498 420.284 239.42L420.457 239.41L420.527 239.408L449.262 239.408Z" fill="#2C5D40"/>
<path fill-rule="evenodd" clip-rule="evenodd" d="M533.336 159.706C533.678 149.773 528.256 140.559 519.422 136.047L505.128 128.351L503.573 135.403C501.867 143.062 494.284 147.915 486.626 146.209L484.768 145.791C477.109 144.085 472.256 136.502 473.962 128.844L476.351 118.114C473.621 116.218 471.46 113.64 470.436 110.303C470.36 110.076 470.322 109.848 470.246 109.659L455.991 102L455.953 212.597L494.626 204.673L492.768 178.701C492.73 178.057 493.185 177.526 493.829 177.488C494.474 177.45 495.005 177.905 495.043 178.55L496.976 205.507C497.014 206.076 496.635 206.607 496.066 206.72L455.953 214.948V215.251L434 219.27C438.322 220.104 443.1 241.526 443.1 241.526H520.976C528.559 241.526 534.701 235.308 534.588 227.687L533.336 159.706Z" fill="#96BFC3"/>
<path d="M504.395 130.682C504.395 137.585 500.894 146.182 485.894 145.682C474.395 141.182 474.894 134.585 474.894 127.682C474.894 120.778 481.395 100.182 495.395 101.182C519.395 100.182 504.395 123.778 504.395 130.682Z" fill="white"/>
<path fill-rule="evenodd" clip-rule="evenodd" d="M507.725 111.586C507.854 110.971 508.457 110.577 509.072 110.706C509.665 110.831 510.052 111.396 509.963 111.987L509.951 112.053L505.095 135.195C503.27 143.39 495.219 148.6 487.036 146.916L486.788 146.863L484.932 146.446C476.737 144.62 471.527 136.57 473.21 128.389L473.263 128.141L475.652 117.411C475.789 116.798 476.396 116.411 477.01 116.548C477.601 116.68 477.981 117.249 477.885 117.84L477.873 117.905L475.484 128.635C473.932 135.602 478.284 142.515 485.218 144.177L485.429 144.226L487.285 144.643C494.251 146.195 501.164 141.842 502.823 134.924L502.872 134.714L507.725 111.586Z" fill="#2C5D40"/>
<path fill-rule="evenodd" clip-rule="evenodd" d="M482.4 58.5089L482.149 58.9352C477.82 66.3555 474.162 75.3334 471.557 84.2085L471.551 84.2339L471.552 84.2209C471.551 84.225 471.551 84.2298 471.55 84.2352L471.448 84.5823L471.356 84.906L471.259 85.2543C471.226 85.3747 471.192 85.4998 471.157 85.6297C470.856 86.7563 470.558 87.9989 470.279 89.3388C469.458 93.2872 468.975 97.2365 469.001 100.943C469.022 103.876 469.365 106.537 470.083 108.864C471.587 113.738 475.421 117.41 480.655 119.549C485.242 121.423 490.596 121.946 494.881 121.015L495.338 120.914C502.317 119.361 504.639 117.951 508.464 113.467L508.587 113.321C509.788 111.905 511.633 109.002 513.988 104.934L514.536 103.982C514.676 103.738 514.817 103.49 514.96 103.239C516.181 101.093 517.443 98.8089 518.687 96.5124L519.372 95.2431C519.526 94.958 519.674 94.6804 519.818 94.4111L520.86 92.451L520.92 92.3311C521.078 92.0147 521.293 91.5472 521.542 90.9407C521.925 90.0107 522.299 88.9734 522.641 87.8441C523.594 84.6982 524.149 81.3753 524.123 77.9979C524.047 68.4222 519.386 60.226 508.784 54.5954L508.398 54.3927C507.408 53.883 506.238 53.3528 504.87 52.8405C502.569 51.9789 500.212 51.3705 497.868 51.1229C491.412 50.4408 486.009 52.5654 482.506 58.3319L482.4 58.5089Z" fill="white"/>
<path fill-rule="evenodd" clip-rule="evenodd" d="M497.074 55.1734C499.209 55.399 501.385 55.9605 503.517 56.7591C504.965 57.3011 506.172 57.8635 507.16 58.3914C517.004 63.6196 521.224 71.0402 521.293 79.8042C521.318 82.9327 520.8 86.0329 519.909 88.9727C519.589 90.0294 519.24 90.9983 518.884 91.8629L518.756 92.1678C518.694 92.3148 518.633 92.4536 518.574 92.584L518.445 92.8662C518.411 92.9371 518.382 92.9983 518.357 93.0495L518.242 93.2754L517.538 94.6021C517.264 95.115 516.971 95.6631 516.66 96.2403L516.503 96.5312C515.147 99.0449 513.761 101.558 512.428 103.903L512.007 104.64L511.595 105.357C509.29 109.348 507.466 112.234 506.357 113.567L506.064 113.913C502.557 118.003 500.62 119.107 493.843 120.58C490.016 121.412 485.129 120.935 480.96 119.231C476.314 117.333 472.987 114.146 471.702 109.982C471.056 107.888 470.74 105.442 470.721 102.715C470.697 99.3258 471.126 95.6852 471.862 92.0292L471.975 91.4828L472.038 91.1858C472.401 89.5226 472.948 87.411 473.152 86.6273L473.186 86.6375C475.742 77.9281 479.331 69.1173 483.558 61.873L483.802 61.4568C486.805 56.3955 491.374 54.5712 497.074 55.1734ZM481.845 60.297L481.594 60.7233C477.265 68.1436 473.608 77.1215 471.003 85.9966L470.996 86.022L470.997 86.009C470.997 86.0131 470.996 86.0179 470.995 86.0233L470.893 86.3704L470.801 86.6941L470.704 87.0424C470.671 87.1628 470.637 87.2878 470.603 87.4178C470.302 88.5444 470.004 89.787 469.725 91.1269C468.903 95.0753 468.42 99.0246 468.446 102.731C468.467 105.665 468.81 108.325 469.528 110.652C471.033 115.527 474.866 119.198 480.1 121.337C484.687 123.211 490.041 123.734 494.326 122.803L494.783 122.702C501.762 121.149 504.084 119.74 507.909 115.255L508.033 115.109C509.233 113.693 511.078 110.79 513.433 106.722L513.981 105.77C514.121 105.526 514.263 105.278 514.405 105.027C515.626 102.881 516.888 100.597 518.132 98.3004L518.817 97.0312C518.971 96.7461 519.12 96.4685 519.264 96.1992L520.305 94.2391L520.365 94.1192C520.524 93.8028 520.738 93.3353 520.988 92.7288C521.371 91.7988 521.744 90.7615 522.086 89.6322C523.04 86.4863 523.595 83.1634 523.568 79.786C523.492 70.2102 518.831 62.0141 508.229 56.3835L507.843 56.1808C506.853 55.6711 505.683 55.1409 504.315 54.6286C502.015 53.767 499.657 53.1586 497.313 52.9109C490.858 52.2289 485.454 54.3535 481.951 60.12L481.845 60.297Z" fill="#2C5D40"/>
<path fill-rule="evenodd" clip-rule="evenodd" d="M472.095 86.2791C474.332 78.6961 477.896 69.1037 482.825 60.8383C483.052 60.4592 483.28 60.08 483.545 59.7388C479.564 56.6298 473.081 63.0373 468.607 76.2696C466.294 83.0942 460 86.5445 460 86.5445C464.815 90.753 469.175 88.9331 472.019 86.5445C472.057 86.3928 472.057 86.2791 472.095 86.2791Z" fill="#2C5D40"/>
<path fill-rule="evenodd" clip-rule="evenodd" d="M482.262 81.4977C482.494 80.9141 483.156 80.6294 483.74 80.8618C484.302 81.0859 484.587 81.709 484.398 82.2765L484.375 82.3393L479.688 94.1085L482.803 95.2591C483.371 95.469 483.672 96.0848 483.497 96.6568L483.476 96.7202C483.266 97.2884 482.65 97.5888 482.078 97.4144L482.015 97.3931L477.806 95.8386C477.228 95.6249 476.929 94.9922 477.12 94.4147L477.144 94.3508L482.262 81.4977Z" fill="#2C5D40"/>
<path fill-rule="evenodd" clip-rule="evenodd" d="M479.886 81.0271C480.34 79.9687 480.163 78.8764 479.489 78.5874C478.815 78.2984 477.901 78.9222 477.447 79.9806C476.993 81.039 477.171 82.1312 477.845 82.4202C478.518 82.7092 479.432 82.0855 479.886 81.0271Z" fill="#2C5D40"/>
<path fill-rule="evenodd" clip-rule="evenodd" d="M491.584 86.0718C491.832 84.9472 491.453 83.9074 490.738 83.7495C490.022 83.5916 489.241 84.3752 488.992 85.4998C488.744 86.6244 489.123 87.6642 489.839 87.8221C490.554 87.98 491.336 87.1964 491.584 86.0718Z" fill="#2C5D40"/>
<path fill-rule="evenodd" clip-rule="evenodd" d="M494.788 77.563C494.911 76.947 495.51 76.5475 496.126 76.6707C497.861 77.0176 499.223 77.8595 500.234 79.0364C500.709 79.5905 501.075 80.1819 501.347 80.7756C501.515 81.1415 501.617 81.4385 501.668 81.6342C501.825 82.2424 501.46 82.8629 500.851 83.0201C500.265 83.1716 499.667 82.8371 499.484 82.2676L499.449 82.1485C499.421 82.0602 499.366 81.9127 499.28 81.7237C499.092 81.3135 498.837 80.9012 498.508 80.5184C497.817 79.7134 496.896 79.1446 495.68 78.9014C495.064 78.7783 494.665 78.179 494.788 77.563Z" fill="#2C5D40"/>
<path fill-rule="evenodd" clip-rule="evenodd" d="M479.843 69.3166C481.204 69.2172 482.575 69.6772 483.913 70.486C484.618 70.9117 485.162 71.3381 485.491 71.6399C485.953 72.0648 485.984 72.7843 485.559 73.247C485.134 73.7097 484.415 73.7403 483.952 73.3154L483.905 73.2734C483.847 73.223 483.756 73.1479 483.638 73.055C483.367 72.8431 483.063 72.6304 482.736 72.4328C481.765 71.8455 480.815 71.5266 480.009 71.5855C479.629 71.6133 479.282 71.7249 478.959 71.9339L478.862 71.9995C478.352 72.3653 477.641 72.2478 477.275 71.7371C476.91 71.2264 477.027 70.5158 477.538 70.15C478.236 69.6498 479.016 69.3772 479.843 69.3166Z" fill="#2C5D40"/>
<path fill-rule="evenodd" clip-rule="evenodd" d="M544.7 86.658L531.847 80.1367C533.478 70.5822 532.454 55.7954 514.52 47.4542C486.464 34.4116 476.227 62.5063 476.227 62.5063L540.492 94.9234C542.767 96.0988 545.573 95.1509 546.748 92.876C547.923 90.6011 547.013 87.8334 544.7 86.658Z" fill="#FE7624"/>
<path fill-rule="evenodd" clip-rule="evenodd" d="M489.719 102.069C490.191 102.483 490.238 103.202 489.824 103.674C489.74 103.77 489.602 103.909 489.41 104.076C489.106 104.341 488.749 104.603 488.339 104.846C485.927 106.276 482.879 106.458 479.385 104.655C478.827 104.366 478.608 103.68 478.897 103.122C479.185 102.564 479.871 102.345 480.429 102.633C483.201 104.065 485.42 103.932 487.179 102.889C487.465 102.719 487.711 102.539 487.915 102.361L488.008 102.277L488.114 102.173C488.528 101.701 489.247 101.654 489.719 102.069Z" fill="#2C5D40"/>
<path fill-rule="evenodd" clip-rule="evenodd" d="M530.369 89.8049L503.26 76.1177C500.113 85.9376 496.17 105.615 512.966 110.81C512.966 110.81 526.084 115.17 529.876 110.848C529.876 110.848 520.852 104.25 522.9 98.8286C522.9 98.8286 532.113 112.478 542.956 105.236C542.918 105.236 530.141 101.141 530.369 89.8049Z" fill="#2C5D40"/>
<path fill-rule="evenodd" clip-rule="evenodd" d="M600.053 239.37C600.682 239.37 601.191 239.879 601.191 240.507C601.191 241.113 600.717 241.608 600.12 241.643L600.053 241.645H1.15307C0.524875 241.645 0.015625 241.135 0.015625 240.507C0.015625 239.901 0.489149 239.406 1.08623 239.372L1.15307 239.37H600.053Z" fill="#2C5D40"/>
<defs>
<clipPath id="clip0_9321_33377">
<rect width="123.236" height="156.675" fill="white" transform="translate(43.6875 35.2642)"/>
</clipPath>
</defs>
</svg>
