<svg xmlns="http://www.w3.org/2000/svg" width="20" height="20" viewBox="0 0 20 20" fill="none">
  <path d="M13.3333 18.9583H9.16667C8.825 18.9583 8.54167 18.675 8.54167 18.3333C8.54167 17.9916 8.825 17.7083 9.16667 17.7083H13.3333C15.7167 17.7083 16.875 16.55 16.875 14.1666V5.83329C16.875 3.44996 15.7167 2.29163 13.3333 2.29163H6.66667C4.28333 2.29163 3.125 3.44996 3.125 5.83329V11.6666C3.125 12.0083 2.84167 12.2916 2.5 12.2916C2.15833 12.2916 1.875 12.0083 1.875 11.6666V5.83329C1.875 2.79163 3.625 1.04163 6.66667 1.04163H13.3333C16.375 1.04163 18.125 2.79163 18.125 5.83329V14.1666C18.125 17.2083 16.375 18.9583 13.3333 18.9583Z" fill="#4B4B4E"/>
  <path d="M15.4173 7.70833H13.7507C12.484 7.70833 11.459 6.68333 11.459 5.41667V3.75C11.459 3.40833 11.7423 3.125 12.084 3.125C12.4257 3.125 12.709 3.40833 12.709 3.75V5.41667C12.709 5.99167 13.1757 6.45833 13.7507 6.45833H15.4173C15.759 6.45833 16.0423 6.74167 16.0423 7.08333C16.0423 7.425 15.759 7.70833 15.4173 7.70833Z" fill="#4B4B4E"/>
  <path d="M3.33255 18.125C3.17422 18.125 3.01589 18.0667 2.89089 17.9417L1.22422 16.275C0.982552 16.0333 0.982552 15.6333 1.22422 15.3916L2.89089 13.725C3.13255 13.4833 3.53255 13.4833 3.77422 13.725C4.01588 13.9666 4.01588 14.3667 3.77422 14.6083L2.54922 15.8333L3.77422 17.0583C4.01588 17.3 4.01588 17.7 3.77422 17.9417C3.64922 18.0667 3.49088 18.125 3.33255 18.125Z" fill="#4B4B4E"/>
  <path d="M5.83385 18.125C5.67552 18.125 5.51719 18.0667 5.39219 17.9417C5.15052 17.7 5.15052 17.3 5.39219 17.0583L6.61719 15.8333L5.39219 14.6083C5.15052 14.3667 5.15052 13.9666 5.39219 13.725C5.63385 13.4833 6.03385 13.4833 6.27552 13.725L7.94219 15.3916C8.18385 15.6333 8.18385 16.0333 7.94219 16.275L6.27552 17.9417C6.15052 18.0667 5.99219 18.125 5.83385 18.125Z" fill="#4B4B4E"/>
</svg>