<svg xmlns="http://www.w3.org/2000/svg" width="16" height="16" viewBox="0 0 16 16" fill="none">
  <g clip-path="url(#clip0_4565_1440)">
    <path d="M9.57985 7.9964H3.39525C3.09693 7.9964 2.84955 8.24378 2.84955 8.5421C2.84955 8.84041 3.09693 9.0878 3.39525 9.0878H9.57985C9.87817 9.0878 10.1256 8.84041 10.1256 8.5421C10.1256 8.24378 9.87817 7.9964 9.57985 7.9964ZM9.57985 11.2706H3.39525C3.09693 11.2706 2.84955 11.518 2.84955 11.8163C2.84955 12.1146 3.09693 12.362 3.39525 12.362H9.57985C9.87817 12.362 10.1256 12.1146 10.1256 11.8163C10.1256 11.518 9.87817 11.2706 9.57985 11.2706ZM2.84955 5.2679C2.84955 5.56621 3.09693 5.8136 3.39525 5.8136H8.81587L8.75039 5.60987C8.71401 5.508 8.66307 5.41342 8.59759 5.3261C8.56849 5.28972 8.54666 5.26062 8.51755 5.23152C8.40841 5.12238 8.27745 5.04234 8.1392 4.99868L7.28791 4.7222H3.39525C3.09693 4.7222 2.84955 4.96958 2.84955 5.2679ZM12.1628 9.6626L11.9737 9.0878L11.3916 8.87679C11.3261 8.85497 11.2752 8.81859 11.217 8.78948V14.3629C11.217 14.6612 10.9696 14.9086 10.6713 14.9086H2.30385C2.00553 14.9086 1.75815 14.6612 1.75815 14.3629V3.0851C1.75815 2.78678 2.00553 2.5394 2.30385 2.5394H6.32748C6.34931 2.49574 6.36386 2.44481 6.39296 2.40115C6.56759 2.15377 6.81497 1.96459 7.11329 1.86273L8.1392 1.52803C8.19013 1.5062 8.24834 1.4771 8.29927 1.448H2.30385C1.40162 1.448 0.666748 2.18287 0.666748 3.0851V14.3629C0.666748 15.2651 1.40162 16 2.30385 16H10.6713C11.5735 16 12.3084 15.2651 12.3084 14.3629V9.93909C12.2485 9.85337 12.1996 9.76048 12.1628 9.6626ZM9.28881 4.46754C9.34702 4.52574 9.40523 4.59123 9.45616 4.66399C9.60168 4.84589 9.71082 5.05689 9.78358 5.28245L10.111 6.28654C10.1401 6.36657 10.191 6.43206 10.2565 6.47571C10.322 6.52664 10.402 6.54847 10.4821 6.54847C10.5633 6.55008 10.6427 6.52446 10.7076 6.47571C10.7658 6.43206 10.8168 6.37385 10.8459 6.30836V6.28654L11.1806 5.28245C11.2824 4.97686 11.4498 4.70037 11.6826 4.47481C11.9082 4.24926 12.1847 4.07463 12.4903 3.97277L13.4943 3.64535C13.5744 3.61624 13.6399 3.56531 13.6835 3.49983C13.7323 3.43487 13.7579 3.35547 13.7563 3.27427C13.7579 3.19307 13.7323 3.11367 13.6835 3.04872C13.6344 2.98436 13.5691 2.93415 13.4943 2.9032H13.4725L12.4684 2.57578C12.1628 2.47391 11.8863 2.30656 11.6608 2.07373C11.4331 1.84704 11.2613 1.57056 11.1587 1.2661L10.8313 0.262007C10.8043 0.185 10.7533 0.118691 10.6858 0.072831C10.6203 0.0291749 10.5403 7.09335e-05 10.4602 7.09335e-05C10.379 -0.00153227 10.2996 0.0240809 10.2347 0.072831C10.1692 0.116487 10.1183 0.189247 10.0892 0.262007L9.76175 1.2661V1.28792C9.65261 1.57896 9.48526 1.84818 9.27426 2.06646C9.0487 2.29201 8.77949 2.46664 8.4739 2.5685L7.46981 2.89592C7.38977 2.92502 7.32429 2.97596 7.28063 3.04144C7.23188 3.1064 7.20627 3.1858 7.20787 3.267C7.20787 3.34703 7.2297 3.42707 7.28063 3.49255C7.32429 3.55804 7.39705 3.60897 7.46981 3.63807L8.4739 3.96549C8.77949 4.06736 9.05598 4.24198 9.28154 4.46754H9.28881ZM15.0587 7.42887C15.1052 7.42887 15.1533 7.47252 15.1824 7.5089C15.2115 7.54528 15.2188 7.58894 15.2188 7.6326C15.2188 7.67625 15.2115 7.71991 15.1824 7.75629C15.1533 7.79267 15.1169 7.82177 15.0732 7.83632L14.513 8.01822C14.3456 8.07643 14.1928 8.17102 14.0619 8.29471C13.9382 8.4184 13.8436 8.5712 13.7854 8.74582L13.6035 9.2988C13.5889 9.34246 13.5598 9.37884 13.5234 9.40794C13.4883 9.43604 13.4447 9.45136 13.3998 9.45136C13.3548 9.45136 13.3112 9.43604 13.2761 9.40794C13.2394 9.38008 13.2116 9.34216 13.196 9.2988L13.0141 8.74582C12.9559 8.57848 12.8613 8.4184 12.7376 8.29471C12.6139 8.17102 12.4539 8.06916 12.2865 8.01822L11.7263 7.83632C11.6829 7.82077 11.645 7.79297 11.6171 7.75629C11.589 7.72119 11.5737 7.67756 11.5737 7.6326C11.5737 7.58763 11.589 7.54401 11.6171 7.5089C11.6462 7.47252 11.6826 7.44342 11.7263 7.42887L12.2865 7.24697C12.4539 7.18876 12.6067 7.09417 12.7304 6.97048C12.8541 6.84679 12.9486 6.69399 12.9996 6.52664L13.1815 5.97367C13.196 5.93001 13.2251 5.89363 13.2615 5.86453C13.2966 5.83642 13.3402 5.82111 13.3852 5.82111C13.4302 5.82111 13.4738 5.83642 13.5089 5.86453C13.5453 5.89363 13.5744 5.93001 13.5889 5.97367L13.7708 6.52664C13.829 6.69399 13.9236 6.84679 14.0473 6.97776C14.171 7.10145 14.3238 7.19604 14.4984 7.25424L15.0587 7.42887Z" fill="#1FC1BD"/>
  </g>
  <defs>
    <clipPath id="clip0_4565_1440">
      <rect width="16" height="16" fill="white"/>
    </clipPath>
  </defs>
</svg>