<svg width="602" height="243" viewBox="0 0 602 243" fill="none" xmlns="http://www.w3.org/2000/svg">
<path fill-rule="evenodd" clip-rule="evenodd" d="M75.0505 63.5659C79.9722 57.9775 87.5048 56.728 94.5832 59.9056C101.668 63.086 107.122 70.1314 108.929 79.1462L109.108 80.0605L109.171 80.3723C110.667 87.8028 112.108 91.0836 115.161 94.37L115.267 94.4821C116.884 96.1627 123.894 102.423 124.909 103.374C125.368 103.803 125.391 104.523 124.962 104.982C124.532 105.44 123.812 105.463 123.354 105.034L122.375 104.14C120.086 102.067 114.861 97.3641 113.546 95.9737L113.495 95.9184C110.118 92.2839 108.513 88.6295 106.941 80.8214C106.877 80.5061 106.813 80.1826 106.749 79.8491C103.447 62.6015 85.8776 54.7142 76.7577 65.0694C72.8207 69.5398 72.4242 76.2834 74.851 84.3403C76.6002 90.1475 79.8912 96.4388 82.2911 99.4485L82.398 99.5811C83.5804 101.035 84.0905 103.615 84.6716 109.624L85.2316 115.711L85.3507 116.945C85.5218 118.68 85.6907 120.23 85.879 121.762C86.4695 126.565 87.2155 130.836 88.2337 134.887C88.4 135.548 88.573 136.201 88.7531 136.846C88.9222 137.451 88.5688 138.078 87.9638 138.247C87.3588 138.416 86.7313 138.063 86.5622 137.458C86.3767 136.794 86.1985 136.122 86.0274 135.441C84.9839 131.29 84.2223 126.929 83.6211 122.04L83.5345 121.322C83.3778 120.002 83.2331 118.652 83.087 117.17L82.9346 115.581C82.8061 114.2 82.5261 111.099 82.47 110.501L82.4077 109.848C81.8831 104.449 81.3989 101.958 80.6338 101.017C78.0365 97.8309 74.5331 91.1725 72.6728 84.9964C70.0428 76.2647 70.4845 68.7504 75.0505 63.5659Z" fill="#FE7624"/>
<path fill-rule="evenodd" clip-rule="evenodd" d="M57.0201 118.744C63.5286 118.163 70.4587 121.097 75.5482 126.977L76.0404 127.553C78.8861 130.867 80.8859 132.746 82.8357 133.957C84.4492 134.959 86.0694 135.559 88.7831 136.214L89.1734 136.306C90.158 136.528 95.0375 137.606 97.0369 138.096L97.8653 138.301C101.601 139.239 105.453 140.361 109.855 141.836C116.382 144.011 122.515 148.371 128.339 154.653C128.766 155.114 128.739 155.833 128.278 156.261C127.818 156.688 127.098 156.66 126.671 156.2C121.088 150.178 115.261 146.035 109.134 143.993C104.626 142.483 100.711 141.35 96.9033 140.406L95.8816 140.158C93.4723 139.587 88.858 138.571 88.4931 138.484C85.4188 137.754 83.5403 137.073 81.6353 135.889C79.3701 134.482 77.1384 132.359 73.9749 128.637C64.5059 117.497 48.7103 118.907 46.4581 130.025C45.4698 134.828 47.957 139.868 53.0269 144.729C56.6825 148.234 61.6501 151.468 64.6055 152.677L64.7541 152.737C66.2757 153.333 67.7516 155.059 70.6995 159.266L74.1155 164.176L74.7298 165.048C76.3852 167.377 77.8879 169.385 79.4308 171.297C84.5167 177.598 89.6251 182.296 95.2553 185.367C98.7042 187.256 101.924 188.031 105.13 187.926C107.536 187.848 109.661 187.345 112.681 186.288L114.916 185.489L115.448 185.304C115.953 185.13 116.386 184.991 116.802 184.869C118.222 184.453 119.389 184.265 120.493 184.326C123.178 184.472 125.26 186.112 127.004 189.568C127.287 190.129 127.062 190.813 126.501 191.096C125.94 191.379 125.256 191.154 124.973 190.593C123.594 187.859 122.207 186.736 120.468 186.603L120.263 186.592C119.11 186.536 118.523 186.653 115.577 187.68L113.718 188.335C110.347 189.529 107.968 190.11 105.205 190.2C101.59 190.318 97.9672 189.446 94.1642 187.363C88.2347 184.129 82.918 179.239 77.6606 172.726C76.1779 170.889 74.7359 168.97 73.1704 166.779L72.4697 165.791L68.8411 160.578L68.4829 160.07C66.1461 156.768 64.8276 155.242 63.9642 154.872L63.9214 154.854C60.7054 153.584 55.3809 150.137 51.4525 146.371C45.8767 141.024 43.0504 135.298 44.2292 129.57C45.4824 123.384 50.4905 119.327 57.0201 118.744Z" fill="#FE7624"/>
<path fill-rule="evenodd" clip-rule="evenodd" d="M136.065 46.6138C140.268 38.5104 147.099 34.4708 156.844 35.3936C160.949 35.7772 164.233 36.9258 166.745 38.7991C167.249 39.1747 167.353 39.8874 166.977 40.3909C166.601 40.8945 165.889 40.9983 165.385 40.6227C163.229 39.015 160.342 38.0053 156.631 37.6585C147.841 36.8261 141.874 40.3544 138.084 47.6612C135.017 53.5747 133.503 61.6337 133.094 71.6914L133.079 72.0948C132.966 75.1019 132.959 77.4874 133.021 81.3193L133.069 84.2069C133.122 88.0103 133.082 89.6094 132.864 91.5692L132.853 91.6727C132.511 94.6869 131.737 97.1725 130.311 99.5801C129.21 101.44 127.709 103.261 125.702 105.164L125.477 105.376C121.763 108.846 121.837 112.752 124.779 118.986L125.075 119.602C125.439 120.349 125.834 121.12 126.451 122.298L127.341 124.004C128.558 126.352 129.065 127.436 129.617 128.887C130.532 131.296 130.891 133.359 130.602 135.274L130.546 135.614C130.326 136.883 129.697 140.055 129.63 140.418C128.518 146.462 128.177 151.987 128.914 158.877C129.904 168.141 132.85 178.508 138.247 190.329C138.508 190.9 138.256 191.575 137.685 191.836C137.113 192.097 136.438 191.845 136.177 191.273C130.682 179.237 127.669 168.634 126.652 159.119C125.905 152.136 126.23 146.486 127.324 140.388L127.426 139.833C127.594 138.957 128.239 135.693 128.353 134.935C128.566 133.517 128.298 131.883 127.568 129.902L127.423 129.521C126.91 128.193 126.393 127.11 125.147 124.715L124.099 122.709C123.551 121.654 123.188 120.933 122.816 120.156C121.258 116.894 120.443 114.32 120.372 111.843C120.285 108.829 121.366 106.168 123.78 103.85L123.924 103.714C125.895 101.873 127.33 100.151 128.354 98.421C129.565 96.3761 130.239 94.2719 130.56 91.6858L130.614 91.2223C130.809 89.4196 130.845 87.8612 130.793 84.2054L130.733 80.4836C130.688 77.2955 130.698 75.0864 130.789 72.4748L130.805 72.0095C131.201 61.4571 132.768 52.9694 136.065 46.6138Z" fill="#FE7624"/>
<path fill-rule="evenodd" clip-rule="evenodd" d="M165.242 131.891C159.011 138.393 154.463 147.601 151.312 159.122C148.759 168.457 147.207 178.927 146.351 190.719C146.303 191.378 146.825 191.938 147.485 191.938H166.063C166.692 191.938 167.201 191.429 167.201 190.801V132.678C167.201 131.653 165.951 131.151 165.242 131.891ZM164.926 135.674V189.664H148.711L148.715 189.617C149.579 178.477 151.089 168.562 153.507 159.722C156.21 149.837 159.95 141.752 164.878 135.733L164.926 135.674Z" fill="#FE7624"/>
<path fill-rule="evenodd" clip-rule="evenodd" d="M165.722 189.664C166.35 189.664 166.859 190.173 166.859 190.801C166.859 191.407 166.386 191.902 165.789 191.937L165.722 191.938H119.845C117.12 191.938 115.105 194.346 115.625 196.897L125.429 240.714C125.566 241.327 125.18 241.935 124.567 242.072C123.976 242.204 123.39 241.85 123.225 241.275L123.209 241.211L113.428 197.501C112.513 193.518 115.577 189.74 119.719 189.665L119.845 189.664H165.722Z" fill="#2C5D40"/>
<path fill-rule="evenodd" clip-rule="evenodd" d="M455.466 0.0141602H166.063C165.435 0.0141602 164.926 0.52341 164.926 1.1516V240.545C164.926 241.173 165.435 241.682 166.063 241.682H455.466C456.094 241.682 456.603 241.173 456.603 240.545V1.1516C456.603 0.52341 456.094 0.0141602 455.466 0.0141602ZM454.329 2.28867V239.408H167.201V2.28867H454.329Z" fill="#2C5D40"/>
<path fill-rule="evenodd" clip-rule="evenodd" d="M346.841 178.896H330.614C329.986 178.896 329.477 179.405 329.477 180.033V205.36C329.477 205.989 329.986 206.498 330.614 206.498H346.841C347.47 206.498 347.979 205.989 347.979 205.36V180.033C347.979 179.405 347.47 178.896 346.841 178.896ZM345.703 181.171V204.223H331.751V181.171H345.703Z" fill="#2C5D40"/>
<path fill-rule="evenodd" clip-rule="evenodd" d="M372.318 168.242H356.091C355.462 168.242 354.953 168.751 354.953 169.379V205.36C354.953 205.988 355.462 206.498 356.091 206.498H372.318C372.946 206.498 373.455 205.988 373.455 205.36V169.379C373.455 168.751 372.946 168.242 372.318 168.242ZM371.18 170.517V204.223H357.227V170.517H371.18Z" fill="#2C5D40"/>
<path fill-rule="evenodd" clip-rule="evenodd" d="M397.759 151.408H381.532C380.904 151.408 380.395 151.917 380.395 152.545V205.36C380.395 205.989 380.904 206.498 381.532 206.498H397.759C398.388 206.498 398.897 205.989 398.897 205.36V152.545C398.897 151.917 398.388 151.408 397.759 151.408ZM396.622 153.683V204.223H382.669V153.683H396.622Z" fill="#2C5D40"/>
<rect x="406.973" y="137.986" width="16.2275" height="67.3744" fill="#FE7624"/>
<path fill-rule="evenodd" clip-rule="evenodd" d="M428.7 103.408C428.435 103.18 428.093 103.104 427.79 103.142L417.174 104.848C416.567 104.962 416.112 105.531 416.226 106.137C416.34 106.744 416.909 107.161 417.515 107.085L424.454 105.986L403.752 130.024L395.297 121.91C395.07 121.682 394.766 121.569 394.463 121.607C394.16 121.607 393.856 121.758 393.667 121.986L365.913 154.213L357.875 148.185C357.42 147.844 356.814 147.881 356.397 148.261L331.487 172.147C331.032 172.564 331.032 173.284 331.449 173.739C331.676 173.967 331.98 174.081 332.283 174.081C332.548 174.081 332.852 173.967 333.079 173.777L357.307 150.535L365.458 156.64C365.951 156.981 366.596 156.943 367.013 156.488L394.653 124.374L403.108 132.488C403.335 132.716 403.638 132.829 403.942 132.791C404.245 132.791 404.548 132.64 404.738 132.412L426.842 106.744L426.691 115.73C426.691 116.374 427.183 116.867 427.828 116.867C428.435 116.867 428.965 116.374 428.965 115.73L429.155 104.242C429.117 103.976 428.965 103.635 428.7 103.408Z" fill="#FE7624"/>
<path fill-rule="evenodd" clip-rule="evenodd" d="M265.022 178.024C265.65 178.024 266.159 178.533 266.159 179.161C266.159 179.767 265.685 180.262 265.088 180.297L265.022 180.299H195.259C194.63 180.299 194.121 179.79 194.121 179.161C194.121 178.556 194.595 178.06 195.192 178.026L195.259 178.024H265.022Z" fill="#2C5D40"/>
<path fill-rule="evenodd" clip-rule="evenodd" d="M246.633 188.64C247.261 188.64 247.77 189.149 247.77 189.778C247.77 190.383 247.297 190.878 246.7 190.913L246.633 190.915H195.259C194.63 190.915 194.121 190.406 194.121 189.778C194.121 189.172 194.595 188.677 195.192 188.642L195.259 188.64H246.633Z" fill="#2C5D40"/>
<path fill-rule="evenodd" clip-rule="evenodd" d="M230.141 200.545C230.769 200.545 231.278 201.055 231.278 201.683C231.278 202.289 230.805 202.784 230.208 202.818L230.141 202.82H193.743C193.115 202.82 192.605 202.311 192.605 201.683C192.605 201.077 193.079 200.582 193.676 200.547L193.743 200.545H230.141Z" fill="#2C5D40"/>
<path fill-rule="evenodd" clip-rule="evenodd" d="M303.164 178.024C303.792 178.024 304.301 178.533 304.301 179.161C304.301 179.767 303.827 180.262 303.23 180.297L303.164 180.299H273.059C272.431 180.299 271.922 179.79 271.922 179.161C271.922 178.556 272.395 178.06 272.992 178.026L273.059 178.024H303.164Z" fill="#2C5D40"/>
<path fill-rule="evenodd" clip-rule="evenodd" d="M228.359 155.957L236.397 163.54V148.26L228.359 155.957Z" fill="#FE7624"/>
<path fill-rule="evenodd" clip-rule="evenodd" d="M216.793 163.919L225.058 155.995L216.793 148.222V163.919Z" fill="#FE7624"/>
<path fill-rule="evenodd" clip-rule="evenodd" d="M257.781 145.568H239.203L248.568 154.402L257.781 145.568Z" fill="#FE7624"/>
<path fill-rule="evenodd" clip-rule="evenodd" d="M226.688 157.549L217.285 166.611H236.318L226.688 157.549Z" fill="#FE7624"/>
<path fill-rule="evenodd" clip-rule="evenodd" d="M238.672 163.919L246.937 155.995L238.672 148.222V163.919Z" fill="#FE7624"/>
<path fill-rule="evenodd" clip-rule="evenodd" d="M193.742 147.161V165.018L203.145 155.995L193.742 147.161Z" fill="#FE7624"/>
<path fill-rule="evenodd" clip-rule="evenodd" d="M204.813 157.549L195.41 166.611H214.443L204.813 157.549Z" fill="#FE7624"/>
<path fill-rule="evenodd" clip-rule="evenodd" d="M213.988 145.568H195.41L204.813 154.402L213.988 145.568Z" fill="#FE7624"/>
<path fill-rule="evenodd" clip-rule="evenodd" d="M258.272 163.54V148.26L250.234 155.957L258.272 163.54Z" fill="#FE7624"/>
<path fill-rule="evenodd" clip-rule="evenodd" d="M206.48 155.957L214.518 163.54V148.26L206.48 155.957Z" fill="#FE7624"/>
<path fill-rule="evenodd" clip-rule="evenodd" d="M248.606 157.549L239.203 166.611H258.236L248.606 157.549Z" fill="#FE7624"/>
<path fill-rule="evenodd" clip-rule="evenodd" d="M235.863 145.568H217.285L226.688 154.402L235.863 145.568Z" fill="#FE7624"/>
<path fill-rule="evenodd" clip-rule="evenodd" d="M280.149 145.568H260.547V166.611H280.149V145.568Z" fill="#FE7624"/>
<path fill-rule="evenodd" clip-rule="evenodd" d="M303.165 145.568H282.426V166.611H303.165V145.568Z" fill="#FE7624"/>
<path fill-rule="evenodd" clip-rule="evenodd" d="M258.199 166.611C258.236 166.649 258.236 166.649 258.274 166.649V166.611H258.199Z" fill="#FE7624"/>
<path fill-rule="evenodd" clip-rule="evenodd" d="M412.7 67.3125H400.946C400.318 67.3125 399.809 67.8217 399.809 68.4499V80.2035C399.809 80.8317 400.318 81.3409 400.946 81.3409H412.7C413.328 81.3409 413.837 80.8317 413.837 80.2035V68.4499C413.837 67.8217 413.328 67.3125 412.7 67.3125ZM411.561 69.587V79.0657H402.083V69.587H411.561Z" fill="#2C5D40"/>
<path fill-rule="evenodd" clip-rule="evenodd" d="M415.012 46.0049H370.083C369.455 46.0049 368.945 46.5141 368.945 47.1423V60.6779C368.945 61.3061 369.455 61.8153 370.083 61.8153H415.012C415.64 61.8153 416.149 61.3061 416.149 60.6779V47.1423C416.149 46.5141 415.64 46.0049 415.012 46.0049ZM413.874 48.2798V59.5404H371.22V48.2798H413.874Z" fill="#2C5D40"/>
<path fill-rule="evenodd" clip-rule="evenodd" d="M392.945 79.0664C393.574 79.0664 394.083 79.5757 394.083 80.2038C394.083 80.8096 393.609 81.3048 393.012 81.3394L392.945 81.3413H370.083C369.455 81.3413 368.945 80.832 368.945 80.2038C368.945 79.5981 369.419 79.1029 370.016 79.0683L370.083 79.0664H392.945Z" fill="#2C5D40"/>
<path fill-rule="evenodd" clip-rule="evenodd" d="M392.945 73.4927C393.574 73.4927 394.083 74.0019 394.083 74.6301C394.083 75.2359 393.609 75.731 393.012 75.7656L392.945 75.7676H370.083C369.455 75.7676 368.945 75.2583 368.945 74.6301C368.945 74.0244 369.419 73.5292 370.016 73.4946L370.083 73.4927H392.945Z" fill="#2C5D40"/>
<path fill-rule="evenodd" clip-rule="evenodd" d="M392.945 67.957C393.574 67.957 394.083 68.4663 394.083 69.0945C394.083 69.7002 393.609 70.1954 393.012 70.23L392.945 70.2319H370.083C369.455 70.2319 368.945 69.7227 368.945 69.0945C368.945 68.4887 369.419 67.9936 370.016 67.959L370.083 67.957H392.945Z" fill="#2C5D40"/>
<path fill-rule="evenodd" clip-rule="evenodd" d="M395.677 110.838C396.305 110.838 396.814 111.348 396.814 111.976C396.814 112.582 396.341 113.077 395.744 113.111L395.677 113.113H333.231C332.603 113.113 332.094 112.604 332.094 111.976C332.094 111.37 332.567 110.875 333.164 110.84L333.231 110.838H395.677Z" fill="#2C5D40"/>
<path fill-rule="evenodd" clip-rule="evenodd" d="M370.084 116.185C370.712 116.185 371.222 116.694 371.222 117.322C371.222 117.928 370.748 118.423 370.151 118.458L370.084 118.459H333.231C332.603 118.459 332.094 117.95 332.094 117.322C332.094 116.716 332.567 116.221 333.164 116.187L333.231 116.185H370.084Z" fill="#2C5D40"/>
<path fill-rule="evenodd" clip-rule="evenodd" d="M269.155 79.5972L311.999 57.8721C315.411 64.6209 317.193 72.0522 317.193 79.5972C317.193 105.948 295.506 127.635 269.155 127.635C254.52 127.635 240.682 120.962 231.582 109.512L269.155 79.5972Z" fill="#FE7624"/>
<path fill-rule="evenodd" clip-rule="evenodd" d="M345.666 41.7959C346.294 41.7959 346.804 42.3051 346.804 42.9333C346.804 43.5391 346.33 44.0343 345.733 44.0688L345.666 44.0708H305.969C305.341 44.0708 304.832 43.5615 304.832 42.9333C304.832 42.3276 305.306 41.8324 305.903 41.7978L305.969 41.7959H345.666Z" fill="#2C5D40"/>
<path fill-rule="evenodd" clip-rule="evenodd" d="M345.669 47.1421C346.297 47.1421 346.806 47.6513 346.806 48.2795C346.806 48.8853 346.333 49.3804 345.736 49.415L345.669 49.417H324.512C323.884 49.417 323.375 48.9077 323.375 48.2795C323.375 47.6738 323.849 47.1786 324.446 47.144L324.512 47.1421H345.669Z" fill="#2C5D40"/>
<path fill-rule="evenodd" clip-rule="evenodd" d="M345.669 52.5259C346.297 52.5259 346.806 53.0351 346.806 53.6633C346.806 54.2691 346.333 54.7642 345.735 54.7988L345.669 54.8008H331.602C330.974 54.8008 330.465 54.2915 330.465 53.6633C330.465 53.0576 330.938 52.5624 331.535 52.5278L331.602 52.5259H345.669Z" fill="#2C5D40"/>
<path fill-rule="evenodd" clip-rule="evenodd" d="M346.841 84.374C347.469 84.374 347.978 84.8833 347.978 85.5115C347.978 86.1172 347.505 86.6124 346.907 86.647L346.841 86.6489H295.618C294.99 86.6489 294.48 86.1397 294.48 85.5115C294.48 84.9057 294.954 84.4106 295.551 84.376L295.618 84.374H346.841Z" fill="#2C5D40"/>
<path fill-rule="evenodd" clip-rule="evenodd" d="M346.843 88.583C347.471 88.583 347.981 89.0923 347.981 89.7204C347.981 90.3262 347.507 90.8214 346.91 90.856L346.843 90.8579H337.251C336.623 90.8579 336.113 90.3486 336.113 89.7204C336.113 89.1147 336.587 88.6195 337.184 88.5849L337.251 88.583H346.843Z" fill="#2C5D40"/>
<path fill-rule="evenodd" clip-rule="evenodd" d="M240.038 37.3599C240.666 37.3599 241.175 37.8691 241.175 38.4973C241.175 39.1031 240.702 39.5982 240.105 39.6328L240.038 39.6347H209.516C208.888 39.6347 208.379 39.1255 208.379 38.4973C208.379 37.8915 208.852 37.3964 209.45 37.3618L209.516 37.3599H240.038Z" fill="#2C5D40"/>
<path fill-rule="evenodd" clip-rule="evenodd" d="M215.621 41.6821C216.249 41.6821 216.758 42.1914 216.758 42.8196C216.758 43.4253 216.285 43.9205 215.687 43.9551L215.621 43.957H209.516C208.888 43.957 208.379 43.4478 208.379 42.8196C208.379 42.2138 208.852 41.7187 209.45 41.6841L209.516 41.6821H215.621Z" fill="#2C5D40"/>
<path fill-rule="evenodd" clip-rule="evenodd" d="M260.195 80.5826L213.977 81.0755C213.349 81.0822 212.845 81.5968 212.852 82.225C212.965 92.8752 216.606 102.951 223.108 111.129C223.499 111.62 224.213 111.703 224.705 111.313L260.914 82.6113C261.763 81.9381 261.279 80.571 260.195 80.5826ZM256.897 82.8922L224.193 108.815L224.105 108.699C218.663 101.444 215.521 92.7279 215.159 83.5058L215.153 83.3377L256.897 82.8922Z" fill="#FE7624"/>
<path fill-rule="evenodd" clip-rule="evenodd" d="M218.01 60.4944C215.909 65.925 214.824 71.681 214.824 77.6252V78.2319C214.824 78.8659 215.343 79.3775 215.977 79.3692L262.157 78.7626C263.407 78.7461 263.719 77.0174 262.553 76.5649L219.482 59.8445C218.896 59.617 218.237 59.9081 218.01 60.4944ZM219.734 62.3822L256.268 76.5646L217.103 77.0791L217.106 76.8541C217.187 71.9788 218.036 67.2451 219.61 62.7326L219.734 62.3822Z" fill="#FE7624"/>
<path fill-rule="evenodd" clip-rule="evenodd" d="M292.695 32.5891L269.908 72.6649C269.353 73.6408 270.398 74.7453 271.403 74.2458L312.692 53.734C313.254 53.4551 313.484 52.7745 313.206 52.2123C309.06 43.8035 302.428 36.7989 294.245 32.1617C293.699 31.8523 293.005 32.0436 292.695 32.5891ZM294.103 34.7134L294.238 34.7945C301.145 38.9764 306.811 44.9616 310.579 52.0713L310.651 52.2076L273.726 70.5515L294.103 34.7134Z" fill="#FE7624"/>
<path fill-rule="evenodd" clip-rule="evenodd" d="M288.379 34.2132C281.706 30.3838 273.971 28.1847 265.744 28.1089H264.986C245.611 28.2985 229.118 40.3932 222.445 57.4169L265.441 74.289L288.379 34.2132Z" fill="#2C5D40"/>
<path fill-rule="evenodd" clip-rule="evenodd" d="M222.596 88.7344C223.224 88.7344 223.734 89.2436 223.734 89.8718C223.734 90.4776 223.26 90.9727 222.663 91.0073L222.596 91.0093H192.075C191.447 91.0093 190.938 90.5 190.938 89.8718C190.938 89.2661 191.411 88.7709 192.008 88.7363L192.075 88.7344H222.596Z" fill="#2C5D40"/>
<path fill-rule="evenodd" clip-rule="evenodd" d="M203.108 93.0566C203.736 93.0566 204.246 93.5659 204.246 94.1941C204.246 94.7998 203.772 95.295 203.175 95.3296L203.108 95.3315H192.075C191.447 95.3315 190.938 94.8223 190.938 94.1941C190.938 93.5883 191.411 93.0932 192.008 93.0586L192.075 93.0566H203.108Z" fill="#2C5D40"/>
<path fill-rule="evenodd" clip-rule="evenodd" d="M423.433 219.922C424.06 219.883 424.6 220.359 424.639 220.986C424.679 221.613 424.202 222.153 423.575 222.192C421.223 222.339 418.747 222.62 416.303 223.028L413.095 223.592L411.706 223.842C411.354 223.907 411.016 223.969 410.686 224.031L410.196 224.124C406.659 224.796 404.12 225.391 402.641 225.936C402.297 226.063 402.025 226.183 401.837 226.289C401.791 226.315 401.752 226.338 401.721 226.359L401.676 226.391C401.454 226.75 401.521 226.939 402.025 227.246L402.09 227.285C402.905 227.764 404.304 228.046 405.759 227.996C406.387 227.974 406.913 228.466 406.935 229.094C406.956 229.721 406.465 230.248 405.837 230.27C403.981 230.333 402.163 229.967 400.937 229.246C399.313 228.291 398.754 226.687 399.805 225.096C400.162 224.553 400.819 224.184 401.854 223.802L402.088 223.717C403.655 223.169 406.035 222.61 409.267 221.985L410.266 221.795C410.849 221.686 411.457 221.574 412.117 221.456L415.345 220.884C418.056 220.408 420.817 220.085 423.433 219.922Z" fill="#2C5D40"/>
<path fill-rule="evenodd" clip-rule="evenodd" d="M443.739 218.071L443.757 218.136L449.103 240.278C449.27 240.972 448.765 241.641 448.063 241.681L447.997 241.683L417.855 241.682L417.725 241.69C414.011 241.89 411.795 240.924 411.715 238.845L411.713 238.754C411.711 238.592 411.725 238.429 411.754 238.267L411.766 238.201L411.659 238.197C409.536 238.092 407.438 236.998 406.944 235.708L406.918 235.635C406.789 235.249 406.833 234.826 407.025 234.378L407.037 234.35L406.961 234.36C405.949 234.483 405.131 234.487 404.483 234.364L404.387 234.344C402.477 233.932 401.97 232.35 402.918 230.453C403.49 229.286 406.259 227.459 410.574 225.097L411.28 224.714C414.459 223.004 417.64 221.486 418.944 221.071L419.168 221.005C420.279 220.695 423.89 220.08 429.487 219.214L430.747 219.02C432.381 218.77 434.09 218.512 435.826 218.254L440.357 217.586L442.489 217.277C443.048 217.197 443.577 217.538 443.739 218.071ZM446.552 239.408L441.788 219.677L439.15 220.062L436.162 220.504C434.924 220.688 433.7 220.872 432.507 221.053L428.963 221.598C424.041 222.365 420.724 222.935 419.796 223.191L419.722 223.213C416.925 224.012 405.56 230.232 404.958 231.462C404.85 231.676 404.781 231.856 404.745 231.998L404.732 232.056L404.727 232.083L404.786 232.101L404.867 232.121C405.621 232.284 407.12 232.119 409.304 231.609L409.747 231.503L409.768 231.489C410.727 230.797 411.882 230.105 413.168 229.448L413.323 229.369C414.007 229.024 414.749 228.673 415.54 228.319C417.004 227.665 418.568 227.029 420.131 226.435L420.59 226.262C420.814 226.178 421.031 226.098 421.239 226.022L421.759 225.834L422.222 225.67C422.816 225.464 423.464 225.779 423.669 226.372C423.867 226.945 423.582 227.568 423.029 227.796L422.414 228.016L422.02 228.159C421.682 228.282 421.32 228.417 420.939 228.562C419.413 229.142 417.888 229.762 416.469 230.396C415.708 230.736 414.998 231.072 414.349 231.4C412.615 232.275 411.134 233.24 410.127 234.115C409.76 234.434 409.475 234.726 409.289 234.964L409.244 235.024L409.314 235.079C409.586 235.285 409.951 235.486 410.353 235.64C411.274 235.994 412.226 236.06 413.043 235.775L413.069 235.765L413.165 235.706C414.317 235.015 415.88 234.301 417.763 233.57L418.011 233.474C418.817 233.166 419.653 232.864 420.503 232.572L421.042 232.389L421.569 232.178C423.806 231.289 424.534 231.108 425.165 231.24L425.197 231.247C426.345 231.508 426.389 233.127 425.257 233.45L424.927 233.546L424.32 233.728C424.053 233.809 423.77 233.897 423.474 233.99L423.25 234.061C422.914 234.168 422.578 234.276 422.244 234.387L421.854 234.517L420.619 235.019L418.01 236.092C417.221 236.413 416.712 236.613 416.202 236.803L415.998 236.878C414.881 237.274 413.983 238.214 413.988 238.735C413.988 238.847 414.066 238.95 414.418 239.103C415.038 239.372 416.095 239.498 417.574 239.42L417.746 239.41L417.817 239.408L446.552 239.408Z" fill="#2C5D40"/>
<path fill-rule="evenodd" clip-rule="evenodd" d="M533.989 158.573C534.33 148.639 528.908 139.426 520.074 134.914L505.78 127.217L504.226 134.27C502.52 141.928 494.937 146.781 487.278 145.075L485.42 144.658C477.761 142.952 472.908 135.369 474.614 127.71L477.003 116.98C474.273 115.085 472.112 112.507 471.088 109.17C471.013 108.943 470.975 108.715 470.899 108.525L456.643 100.867L456.605 211.464L495.278 203.54L493.42 177.568C493.382 176.924 493.837 176.393 494.482 176.355C495.126 176.317 495.657 176.772 495.695 177.416L497.629 204.374C497.667 204.943 497.287 205.473 496.719 205.587L456.605 213.815V214.118L434.652 218.137C438.975 218.971 443.752 240.393 443.752 240.393H521.629C529.212 240.393 535.354 234.175 535.24 226.554L533.989 158.573Z" fill="#2C5D40"/>
<path fill-rule="evenodd" clip-rule="evenodd" d="M507.924 110.908C508.053 110.293 508.656 109.899 509.271 110.028C509.864 110.153 510.251 110.718 510.162 111.309L510.151 111.375L505.295 134.517C503.469 142.712 495.418 147.922 487.235 146.238L486.987 146.185L485.131 145.768C476.936 143.943 471.726 135.892 473.41 127.711L473.463 127.463L475.851 116.733C475.988 116.12 476.596 115.734 477.209 115.87C477.8 116.002 478.18 116.572 478.084 117.162L478.072 117.228L475.683 127.958C474.131 134.925 478.483 141.837 485.417 143.5L485.628 143.548L487.484 143.965C494.451 145.517 501.363 141.165 503.022 134.246L503.071 134.036L507.924 110.908Z" fill="#2C5D40"/>
<path fill-rule="evenodd" clip-rule="evenodd" d="M482.24 59.1505L481.989 59.5768C477.66 66.9971 474.002 75.975 471.397 84.8501L471.391 84.8755L471.392 84.8625C471.391 84.8666 471.391 84.8714 471.39 84.8768L471.288 85.2239L471.196 85.5476L471.099 85.8959C471.066 86.0164 471.032 86.1414 470.997 86.2713C470.696 87.3979 470.398 88.6405 470.119 89.9804C469.298 93.9288 468.815 97.8781 468.841 101.585C468.861 104.518 469.205 107.179 469.923 109.506C471.427 114.38 475.26 118.052 480.494 120.19C485.082 122.065 490.436 122.588 494.721 121.656L495.178 121.556C502.157 120.002 504.479 118.593 508.303 114.109L508.427 113.963C509.628 112.547 511.473 109.644 513.828 105.575L514.376 104.624C514.516 104.379 514.657 104.131 514.8 103.881C516.02 101.735 517.283 99.4505 518.527 97.154L519.212 95.8847C519.365 95.5996 519.514 95.322 519.658 95.0527L520.699 93.0926L520.76 92.9727C520.918 92.6563 521.132 92.1888 521.382 91.5823C521.765 90.6523 522.139 89.615 522.481 88.4857C523.434 85.3398 523.989 82.0169 523.963 78.6395C523.887 69.0638 519.226 60.8676 508.624 55.237L508.238 55.0343C507.248 54.5246 506.078 53.9944 504.71 53.4821C502.409 52.6205 500.052 52.0121 497.708 51.7645C491.252 51.0824 485.849 53.207 482.346 58.9735L482.24 59.1505ZM497.469 54.0267C499.603 54.2523 501.779 54.8137 503.912 55.6124C505.359 56.1544 506.567 56.7168 507.554 57.2447C517.398 62.4729 521.618 69.8935 521.688 78.6575C521.712 81.786 521.195 84.8862 520.304 87.826C519.984 88.8827 519.635 89.8516 519.279 90.7161L519.151 91.021C519.088 91.168 519.027 91.3069 518.969 91.4373L518.839 91.7195C518.806 91.7903 518.776 91.8515 518.751 91.9028L518.636 92.1287L517.932 93.4553C517.659 93.9682 517.365 94.5164 517.054 95.0935L516.898 95.3845C515.541 97.8982 514.156 100.412 512.822 102.756L512.402 103.493L511.989 104.211C509.684 108.202 507.86 111.087 506.752 112.421L506.458 112.766C502.951 116.856 501.015 117.96 494.237 119.433C490.41 120.265 485.524 119.788 481.355 118.084C476.709 116.186 473.382 112.999 472.097 108.835C471.451 106.741 471.135 104.295 471.116 101.569C471.092 98.1791 471.52 94.5385 472.257 90.8825L472.369 90.3361L472.433 90.039C472.795 88.3759 473.343 86.2643 473.546 85.4806L473.58 85.4908C476.136 76.7814 479.726 67.9706 483.952 60.7262L484.197 60.3101C487.199 55.2487 491.769 53.4245 497.469 54.0267Z" fill="#2C5D40"/>
<path fill-rule="evenodd" clip-rule="evenodd" d="M472.489 85.1321C474.726 77.5491 478.29 67.9567 483.219 59.6913C483.447 59.3122 483.674 58.933 483.94 58.5918C479.959 55.4828 473.475 61.8904 469.001 75.1226C466.688 81.9472 460.395 85.3975 460.395 85.3975C465.21 89.606 469.57 87.7861 472.413 85.3975C472.451 85.2458 472.451 85.1321 472.489 85.1321Z" fill="#2C5D40"/>
<path fill-rule="evenodd" clip-rule="evenodd" d="M482.657 80.3512C482.889 79.7676 483.55 79.4829 484.134 79.7153C484.697 79.9394 484.982 80.5625 484.793 81.13L484.77 81.1928L480.083 92.962L483.197 94.1126C483.766 94.3225 484.066 94.9383 483.892 95.5104L483.87 95.5737C483.66 96.1419 483.045 96.4424 482.473 96.2679L482.409 96.2466L478.201 94.6921C477.622 94.4785 477.323 93.8457 477.515 93.2682L477.538 93.2043L482.657 80.3512Z" fill="#2C5D40"/>
<path fill-rule="evenodd" clip-rule="evenodd" d="M480.281 79.8806C480.735 78.8222 480.557 77.7299 479.884 77.4409C479.21 77.152 478.296 77.7757 477.842 78.8341C477.388 79.8925 477.566 80.9848 478.239 81.2737C478.913 81.5627 479.827 80.939 480.281 79.8806Z" fill="#2C5D40"/>
<path fill-rule="evenodd" clip-rule="evenodd" d="M491.979 84.9248C492.227 83.8002 491.848 82.7605 491.132 82.6025C490.416 82.4446 489.635 83.2282 489.387 84.3529C489.139 85.4775 489.518 86.5172 490.233 86.6751C490.949 86.8331 491.73 86.0494 491.979 84.9248Z" fill="#2C5D40"/>
<path fill-rule="evenodd" clip-rule="evenodd" d="M495.182 76.4161C495.306 75.8001 495.905 75.4006 496.521 75.5238C498.255 75.8706 499.618 76.7125 500.628 77.8895C501.104 78.4435 501.47 79.035 501.742 79.6286C501.91 79.9945 502.012 80.2916 502.063 80.4872C502.22 81.0954 501.854 81.7159 501.246 81.8731C500.659 82.0247 500.062 81.6901 499.879 81.1206L499.844 81.0016C499.816 80.9133 499.761 80.7658 499.674 80.5767C499.486 80.1665 499.231 79.7543 498.902 79.3714C498.211 78.5664 497.291 77.9976 496.075 77.7545C495.459 77.6313 495.059 77.032 495.182 76.4161Z" fill="#2C5D40"/>
<path fill-rule="evenodd" clip-rule="evenodd" d="M480.238 68.1702C481.599 68.0707 482.97 68.5308 484.308 69.3395C485.012 69.7653 485.557 70.1917 485.885 70.4934C486.348 70.9183 486.379 71.6378 485.954 72.1005C485.529 72.5632 484.809 72.5938 484.347 72.1689L484.299 72.1269C484.241 72.0765 484.151 72.0014 484.032 71.9085C483.762 71.6967 483.458 71.4839 483.131 71.2863C482.159 70.699 481.209 70.3801 480.404 70.439C480.023 70.4668 479.677 70.5784 479.353 70.7874L479.257 70.853C478.746 71.2188 478.036 71.1013 477.67 70.5906C477.304 70.0799 477.422 69.3693 477.932 69.0036C478.631 68.5033 479.41 68.2307 480.238 68.1702Z" fill="#2C5D40"/>
<path fill-rule="evenodd" clip-rule="evenodd" d="M545.095 85.5115L532.242 78.9902C533.872 69.4357 532.849 54.649 514.915 46.3077C486.858 33.2651 476.621 61.3599 476.621 61.3599L540.886 93.7769C543.161 94.9523 545.967 94.0044 547.142 91.7295C548.318 89.4546 547.408 86.6869 545.095 85.5115Z" fill="#FE7624"/>
<path fill-rule="evenodd" clip-rule="evenodd" d="M490.11 100.922C490.582 101.337 490.629 102.055 490.214 102.527C490.13 102.623 489.992 102.762 489.8 102.929C489.497 103.194 489.14 103.456 488.73 103.699C486.318 105.13 483.269 105.312 479.776 103.508C479.218 103.22 478.999 102.534 479.287 101.976C479.575 101.417 480.262 101.199 480.82 101.487C483.592 102.918 485.811 102.786 487.57 101.743C487.856 101.573 488.102 101.392 488.305 101.215L488.399 101.131L488.505 101.027C488.919 100.555 489.638 100.508 490.11 100.922Z" fill="#2C5D40"/>
<path fill-rule="evenodd" clip-rule="evenodd" d="M530.763 88.6584L503.654 74.9712C500.507 84.7911 496.564 104.469 513.36 109.663C513.36 109.663 526.479 114.023 530.27 109.701C530.27 109.701 521.247 103.104 523.294 97.6821C523.294 97.6821 532.507 111.331 543.351 104.09C543.313 104.09 530.536 99.9949 530.763 88.6584Z" fill="#2C5D40"/>
<path fill-rule="evenodd" clip-rule="evenodd" d="M600.339 239.37C600.967 239.37 601.476 239.879 601.476 240.507C601.476 241.113 601.003 241.608 600.405 241.643L600.339 241.645H1.43822C0.810031 241.645 0.300781 241.135 0.300781 240.507C0.300781 239.901 0.774305 239.406 1.37139 239.372L1.43822 239.37H600.339Z" fill="#2C5D40"/>
</svg>
