<svg xmlns="http://www.w3.org/2000/svg" width="21" height="21" viewBox="0 0 21 21" fill="none">
  <path d="M10.9661 14.5837C10.6328 14.5837 10.2995 14.5587 9.98281 14.5003C8.21615 14.242 6.60781 13.2253 5.59115 11.717C4.88281 10.6503 4.50781 9.40866 4.50781 8.12533C4.50781 4.56699 7.40781 1.66699 10.9661 1.66699C14.5245 1.66699 17.4245 4.56699 17.4245 8.12533C17.4245 9.40866 17.0495 10.6503 16.3411 11.717C15.3161 13.2337 13.7078 14.242 11.9245 14.5087C11.6328 14.5587 11.2995 14.5837 10.9661 14.5837ZM10.9661 2.91699C8.09115 2.91699 5.75781 5.25033 5.75781 8.12533C5.75781 9.16699 6.05781 10.167 6.62448 11.017C7.44948 12.2337 8.74115 13.0503 10.1745 13.2587C10.7078 13.3503 11.2328 13.3503 11.7245 13.2587C13.1828 13.0503 14.4745 12.2253 15.2995 11.0087C15.8661 10.1587 16.1661 9.15865 16.1661 8.11698C16.1745 5.25032 13.8411 2.91699 10.9661 2.91699Z" fill="white"/>
  <path d="M6.35888 19.4496C6.24221 19.4496 6.13388 19.433 6.01721 19.408C5.47555 19.283 5.05888 18.8663 4.93388 18.3246L4.64221 17.0996C4.62555 17.0246 4.56721 16.9663 4.48388 16.9413L3.10888 16.6163C2.59221 16.4913 2.18388 16.108 2.04221 15.5996C1.90055 15.0913 2.04221 14.5413 2.41721 14.1663L5.66721 10.9163C5.80055 10.783 5.98388 10.7163 6.16721 10.733C6.35055 10.7497 6.51721 10.8496 6.62555 11.008C7.45055 12.2246 8.74221 13.0497 10.1839 13.258C10.7172 13.3497 11.2422 13.3497 11.7339 13.258C13.1922 13.0497 14.4839 12.2246 15.3089 11.008C15.4089 10.8496 15.5839 10.7497 15.7672 10.733C15.9505 10.7163 16.1339 10.783 16.2672 10.9163L19.5172 14.1663C19.8922 14.5413 20.0339 15.0913 19.8922 15.5996C19.7505 16.108 19.3339 16.4997 18.8255 16.6163L17.4505 16.9413C17.3755 16.958 17.3172 17.0163 17.2922 17.0996L17.0005 18.3246C16.8755 18.8663 16.4589 19.283 15.9172 19.408C15.3755 19.5413 14.8172 19.3496 14.4672 18.9246L10.9672 14.8997L7.46721 18.933C7.18388 19.2663 6.78388 19.4496 6.35888 19.4496ZM6.04221 12.3163L3.30055 15.058C3.22555 15.133 3.23388 15.2163 3.25055 15.2663C3.25888 15.308 3.30055 15.3913 3.40055 15.408L4.77555 15.733C5.31721 15.858 5.73388 16.2746 5.85888 16.8163L6.15055 18.0413C6.17555 18.1496 6.25888 18.183 6.30888 18.1996C6.35888 18.208 6.44221 18.2163 6.51721 18.133L9.70888 14.458C8.29221 14.183 6.99221 13.4246 6.04221 12.3163ZM12.2255 14.4496L15.4172 18.1163C15.4922 18.208 15.5839 18.208 15.6339 18.1913C15.6839 18.183 15.7589 18.1413 15.7922 18.033L16.0839 16.808C16.2089 16.2663 16.6255 15.8496 17.1672 15.7246L18.5422 15.3997C18.6422 15.3747 18.6839 15.2996 18.6922 15.258C18.7089 15.2163 18.7172 15.1246 18.6422 15.0496L15.9005 12.308C14.9422 13.4163 13.6505 14.1746 12.2255 14.4496Z" fill="white"/>
  <path d="M12.5421 11.3669C12.3254 11.3669 12.0671 11.3085 11.7587 11.1252L10.9671 10.6502L10.1754 11.1169C9.45041 11.5502 8.97541 11.3002 8.80041 11.1752C8.62541 11.0502 8.25041 10.6752 8.44208 9.85021L8.64208 8.99188L7.97541 8.37519C7.60874 8.00853 7.47541 7.56688 7.60041 7.16688C7.72541 6.76688 8.09208 6.48353 8.60874 6.4002L9.50041 6.2502L9.92541 5.31687C10.1671 4.84187 10.5421 4.5752 10.9671 4.5752C11.3921 4.5752 11.7754 4.85022 12.0087 5.32522L12.5004 6.30854L13.3254 6.40854C13.8337 6.49187 14.2004 6.77519 14.3337 7.17519C14.4587 7.57519 14.3254 8.01687 13.9587 8.38353L13.2671 9.07522L13.4837 9.85021C13.6754 10.6752 13.3004 11.0502 13.1254 11.1752C13.0337 11.2502 12.8337 11.3669 12.5421 11.3669ZM8.97541 7.61688L9.55041 8.19186C9.81708 8.45853 9.95041 8.90854 9.86708 9.27521L9.70874 9.94186L10.3754 9.5502C10.7337 9.34186 11.2171 9.34186 11.5671 9.5502L12.2337 9.94186L12.0837 9.27521C12.0004 8.90021 12.1254 8.45853 12.3921 8.19186L12.9671 7.61688L12.2421 7.49186C11.8921 7.43353 11.5421 7.17521 11.3837 6.85855L10.9671 6.04187L10.5504 6.8752C10.4004 7.18354 10.0504 7.45021 9.70041 7.50854L8.97541 7.61688Z" fill="white"/>
</svg>
