<svg xmlns="http://www.w3.org/2000/svg" width="24" height="24" viewBox="0 0 24 24" fill="none">
  <path d="M5.69362 12L2.29933 3.27184C2.0631 2.66436 2.65544 2.08343 3.2414 2.28992L3.33375 2.32918L21.3337 11.3292C21.852 11.5883 21.8844 12.2978 21.4309 12.6132L21.3337 12.6708L3.33375 21.6708C2.75077 21.9623 2.11746 21.4263 2.2688 20.8238L2.29933 20.7282L5.69362 12L2.29933 3.27184L5.69362 12ZM4.4021 4.54041L7.01109 11.2494L13.6387 11.25C14.0184 11.25 14.3322 11.5322 14.3818 11.8982L14.3887 12C14.3887 12.3797 14.1065 12.6935 13.7404 12.7432L13.6387 12.75L7.01109 12.7494L4.4021 19.4596L19.3213 12L4.4021 4.54041Z" fill="white"/>
</svg>