<svg width="19" height="18" viewBox="0 0 19 18" fill="none" xmlns="http://www.w3.org/2000/svg">
<path d="M13.0835 15.9375H5.5835C2.846 15.9375 1.271 14.3625 1.271 11.625V6.375C1.271 3.6375 2.846 2.0625 5.5835 2.0625H13.0835C15.821 2.0625 17.396 3.6375 17.396 6.375V11.625C17.396 14.3625 15.821 15.9375 13.0835 15.9375ZM5.5835 3.1875C3.4385 3.1875 2.396 4.23 2.396 6.375V11.625C2.396 13.77 3.4385 14.8125 5.5835 14.8125H13.0835C15.2285 14.8125 16.271 13.77 16.271 11.625V6.375C16.271 4.23 15.2285 3.1875 13.0835 3.1875H5.5835Z" fill="#292D32"/>
<path d="M9.33309 9.65247C8.70309 9.65247 8.06559 9.45748 7.57809 9.05998L5.23058 7.18498C4.99058 6.98998 4.94559 6.63748 5.14059 6.39748C5.33559 6.15748 5.68809 6.11248 5.92809 6.30748L8.27558 8.18248C8.84558 8.63998 9.81308 8.63998 10.3831 8.18248L12.7306 6.30748C12.9706 6.11248 13.3306 6.14998 13.5181 6.39748C13.7131 6.63748 13.6756 6.99748 13.4281 7.18498L11.0806 9.05998C10.6006 9.45748 9.96309 9.65247 9.33309 9.65247Z" fill="#292D32"/>
</svg>
