<svg width="20" height="20" viewBox="0 0 20 20" fill="none" xmlns="http://www.w3.org/2000/svg">
<path fill-rule="evenodd" clip-rule="evenodd" d="M7.74671 3.0874C8.0448 3.0874 8.28644 3.33014 8.28644 3.62957C8.28644 5.77185 8.74327 7.15582 9.60463 8.01545C10.4667 8.8758 11.8454 9.32233 13.9537 9.32233C14.2518 9.32233 14.4934 9.56507 14.4934 9.8645C14.4934 10.1639 14.2518 10.4067 13.9537 10.4067C11.849 10.4067 10.4693 10.8648 9.60588 11.732C8.74248 12.5993 8.28644 13.9853 8.28644 16.0994C8.28644 16.3989 8.0448 16.6416 7.74671 16.6416C7.44862 16.6416 7.20697 16.3989 7.20697 16.0994C7.20697 13.9862 6.74806 12.6 5.88293 11.7324C5.01763 10.8646 3.63741 10.4067 1.53974 10.4067C1.24165 10.4067 1 10.1639 1 9.8645C1 9.56507 1.24165 9.32233 1.53974 9.32233C3.64099 9.32233 5.02019 8.87599 5.88418 8.01514C6.74727 7.15518 7.20697 5.77096 7.20697 3.62957C7.20697 3.33014 7.44862 3.0874 7.74671 3.0874ZM7.74551 7.06818C7.48409 7.73622 7.12158 8.30952 6.64437 8.785C6.17188 9.25577 5.60537 9.61225 4.94947 9.86937C5.60625 10.1304 6.17308 10.4911 6.64562 10.965C7.12203 11.4428 7.48422 12.0171 7.74551 12.684C8.00582 12.0174 8.36694 11.4431 8.84257 10.9653C9.31454 10.4912 9.8811 10.1304 10.5382 9.86937C9.88198 9.61222 9.31574 9.25566 8.84382 8.78469C8.36739 8.30922 8.00595 7.736 7.74551 7.06818Z" fill="#4B4B4E"/>
<path fill-rule="evenodd" clip-rule="evenodd" d="M15.3032 1C15.5565 1 15.7619 1.20633 15.7619 1.46084C15.7619 2.55828 15.9967 3.22298 16.3974 3.62287C16.7987 4.02337 17.4612 4.25301 18.5416 4.25301C18.7949 4.25301 19.0003 4.45933 19.0003 4.71385C19.0003 4.96836 18.7949 5.17469 18.5416 5.17469C17.4643 5.17469 16.8009 5.40983 16.3984 5.81406C15.996 6.2183 15.7619 6.88469 15.7619 7.96685C15.7619 8.22137 15.5565 8.4277 15.3032 8.4277C15.0498 8.4277 14.8444 8.22137 14.8444 7.96685C14.8444 6.88545 14.6089 6.21885 14.2056 5.81433C13.8021 5.40966 13.1383 5.17469 12.0647 5.17469C11.8114 5.17469 11.606 4.96836 11.606 4.71385C11.606 4.45933 11.8114 4.25301 12.0647 4.25301C13.1413 4.25301 13.8042 4.02354 14.2066 3.62261C14.6083 3.22244 14.8444 2.55752 14.8444 1.46084C14.8444 1.20633 15.0498 1 15.3032 1ZM15.3023 3.67511C15.1802 3.89795 15.0314 4.09904 14.8528 4.27699C14.6772 4.45193 14.4797 4.5977 14.2618 4.71733C14.4802 4.83848 14.6781 4.98579 14.8538 5.16207C15.0319 5.34064 15.1804 5.54204 15.3023 5.76473C15.4238 5.54217 15.5719 5.34086 15.7496 5.16233C15.9252 4.98592 16.123 4.83853 16.3415 4.71733C16.1235 4.59765 15.9261 4.4518 15.7507 4.27672C15.5724 4.09883 15.424 3.89782 15.3023 3.67511Z" fill="#4B4B4E"/>
<path fill-rule="evenodd" clip-rule="evenodd" d="M13.9529 12.6565C14.2062 12.6565 14.4116 12.8628 14.4116 13.1173C14.4116 14.0231 14.6057 14.5523 14.9186 14.8645C15.2321 15.1774 15.7597 15.3673 16.6516 15.3673C16.9049 15.3673 17.1103 15.5737 17.1103 15.8282C17.1103 16.0827 16.9049 16.289 16.6516 16.289C15.7628 16.289 15.2343 16.4833 14.9197 16.7993C14.605 17.1154 14.4116 17.6462 14.4116 18.539C14.4116 18.7935 14.2062 18.9999 13.9529 18.9999C13.6995 18.9999 13.4941 18.7935 13.4941 18.539C13.4941 17.647 13.2996 17.1159 12.9842 16.7996C12.6686 16.4831 12.1398 16.289 11.2542 16.289C11.0008 16.289 10.7954 16.0827 10.7954 15.8282C10.7954 15.5737 11.0008 15.3673 11.2542 15.3673C12.1428 15.3673 12.6708 15.1776 12.9853 14.8643C13.2989 14.5517 13.4941 14.0224 13.4941 13.1173C13.4941 12.8628 13.6995 12.6565 13.9529 12.6565ZM13.9521 15.1145C13.8609 15.2611 13.7544 15.3961 13.6314 15.5187C13.5111 15.6386 13.3791 15.7423 13.2364 15.8314C13.3796 15.9215 13.5119 16.0264 13.6325 16.1473C13.755 16.2702 13.8611 16.4053 13.9521 16.5518C14.0428 16.4055 14.1486 16.2704 14.2709 16.1476C14.3914 16.0266 14.5236 15.9216 14.6669 15.8314C14.5241 15.7423 14.3922 15.6384 14.2719 15.5184C14.1491 15.3959 14.043 15.261 13.9521 15.1145Z" fill="#4B4B4E"/>
</svg>
