<svg width="20" height="20" viewBox="0 0 20 20" fill="none" xmlns="http://www.w3.org/2000/svg">
<path d="M15.4154 16.6667C15.4154 16.8959 15.2287 17.0834 14.9987 17.0834H10.2219C9.98253 17.5426 9.67936 17.9632 9.32403 18.3334H14.9987C15.9187 18.3334 16.6654 17.5867 16.6654 16.6667V8.19008C16.6654 7.74841 16.4895 7.32425 16.177 7.01175L11.3195 2.15508C11.307 2.14262 11.2929 2.13181 11.2789 2.12108C11.2685 2.11314 11.2583 2.10525 11.2487 2.09675C11.1895 2.04341 11.1312 1.99091 11.0662 1.94675C11.0451 1.93253 11.0221 1.92131 10.9991 1.91014C10.9858 1.90363 10.9724 1.89714 10.9595 1.89008C10.9456 1.88224 10.9318 1.87422 10.9179 1.86619C10.8727 1.84006 10.8274 1.81381 10.7795 1.79341C10.6154 1.72508 10.4387 1.69091 10.2595 1.67841C10.2431 1.67736 10.2269 1.67515 10.2105 1.67292C10.1879 1.66984 10.1653 1.66675 10.142 1.66675H4.9987C4.0787 1.66675 3.33203 2.41341 3.33203 3.33341V9.58191C3.72717 9.41708 4.14602 9.29775 4.58203 9.23041V3.33341C4.58203 3.10425 4.7687 2.91675 4.9987 2.91675H9.9987V6.66675C9.9987 7.58675 10.7454 8.33341 11.6654 8.33341H15.4154V16.6667ZM11.2487 3.85091L14.4804 7.08341H11.6654C11.4354 7.08341 11.2487 6.89591 11.2487 6.66675V3.85091Z" fill="white"/>
<path d="M9.9987 14.5833C9.9987 17.1147 7.94667 19.1667 5.41536 19.1667C2.88406 19.1667 0.832031 17.1147 0.832031 14.5833C0.832031 12.052 2.88406 10 5.41536 10C7.94667 10 9.9987 12.052 9.9987 14.5833ZM8.20999 12.622C8.04727 12.4593 7.78346 12.4593 7.62074 12.622L4.58203 15.6608L3.20999 14.2887C3.04727 14.126 2.78346 14.126 2.62074 14.2887C2.45801 14.4514 2.45801 14.7152 2.62074 14.878L4.28741 16.5447C4.45012 16.7073 4.71394 16.7073 4.87666 16.5447L8.20999 13.2113C8.3727 13.0486 8.3727 12.7848 8.20999 12.622Z" fill="white"/>
</svg>
