<svg width="28" height="28" viewBox="0 0 28 28" fill="none" xmlns="http://www.w3.org/2000/svg">
    <rect width="28" height="28" rx="14" fill="none" />
    <path
        d="M13.4 7.4V5.6C13.4 5.44087 13.4632 5.28826 13.5757 5.17574C13.6883 5.06321 13.8409 5 14 5C14.1591 5 14.3117 5.06321 14.4243 5.17574C14.5368 5.28826 14.6 5.44087 14.6 5.6V7.4C14.6 7.55913 14.5368 7.71174 14.4243 7.82426C14.3117 7.93679 14.1591 8 14 8C13.8409 8 13.6883 7.93679 13.5757 7.82426C13.4632 7.71174 13.4 7.55913 13.4 7.4ZM18.8 14C18.8 14.9494 18.5185 15.8774 17.9911 16.6667C17.4636 17.4561 16.714 18.0713 15.8369 18.4346C14.9598 18.7979 13.9947 18.893 13.0636 18.7078C12.1325 18.5226 11.2772 18.0654 10.6059 17.3941C9.9346 16.7228 9.47744 15.8675 9.29223 14.9364C9.10702 14.0053 9.20208 13.0402 9.56538 12.1631C9.92868 11.286 10.5439 10.5364 11.3333 10.0089C12.1226 9.48151 13.0506 9.2 14 9.2C15.2726 9.20139 16.4927 9.70755 17.3926 10.6074C18.2925 11.5073 18.7986 12.7274 18.8 14ZM17.6 14C17.6 13.288 17.3889 12.592 16.9933 11.9999C16.5977 11.4079 16.0355 10.9465 15.3777 10.674C14.7198 10.4016 13.996 10.3303 13.2977 10.4692C12.5993 10.6081 11.9579 10.9509 11.4544 11.4544C10.9509 11.9579 10.6081 12.5993 10.4692 13.2977C10.3303 13.996 10.4016 14.7198 10.674 15.3777C10.9465 16.0355 11.4079 16.5977 11.9999 16.9933C12.592 17.3889 13.288 17.6 14 17.6C14.9545 17.599 15.8696 17.2194 16.5445 16.5445C17.2194 15.8696 17.599 14.9545 17.6 14ZM8.7755 9.6245C8.88808 9.73708 9.04078 9.80033 9.2 9.80033C9.35922 9.80033 9.51192 9.73708 9.6245 9.6245C9.73708 9.51192 9.80033 9.35922 9.80033 9.2C9.80033 9.04078 9.73708 8.88808 9.6245 8.7755L8.4245 7.5755C8.31192 7.46292 8.15922 7.39967 8 7.39967C7.84078 7.39967 7.68808 7.46292 7.5755 7.5755C7.46292 7.68808 7.39967 7.84078 7.39967 8C7.39967 8.15922 7.46292 8.31192 7.5755 8.4245L8.7755 9.6245ZM8.7755 18.3755L7.5755 19.5755C7.46292 19.6881 7.39967 19.8408 7.39967 20C7.39967 20.1592 7.46292 20.3119 7.5755 20.4245C7.68808 20.5371 7.84078 20.6003 8 20.6003C8.15922 20.6003 8.31192 20.5371 8.4245 20.4245L9.6245 19.2245C9.68025 19.1688 9.72447 19.1026 9.75464 19.0297C9.78481 18.9569 9.80033 18.8788 9.80033 18.8C9.80033 18.7212 9.78481 18.6431 9.75464 18.5703C9.72447 18.4974 9.68025 18.4312 9.6245 18.3755C9.56875 18.3198 9.50257 18.2755 9.42974 18.2454C9.3569 18.2152 9.27884 18.1997 9.2 18.1997C9.12116 18.1997 9.0431 18.2152 8.97026 18.2454C8.89743 18.2755 8.83125 18.3198 8.7755 18.3755ZM18.8 9.8C18.8788 9.80006 18.9569 9.78459 19.0297 9.75448C19.1025 9.72437 19.1687 9.6802 19.2245 9.6245L20.4245 8.4245C20.5371 8.31192 20.6003 8.15922 20.6003 8C20.6003 7.84078 20.5371 7.68808 20.4245 7.5755C20.3119 7.46292 20.1592 7.39967 20 7.39967C19.8408 7.39967 19.6881 7.46292 19.5755 7.5755L18.3755 8.7755C18.2915 8.85941 18.2343 8.96637 18.2111 9.08282C18.1879 9.19927 18.1998 9.31998 18.2452 9.42967C18.2907 9.53937 18.3677 9.63311 18.4664 9.69903C18.5652 9.76496 18.6813 9.80009 18.8 9.8ZM19.2245 18.3755C19.1119 18.2629 18.9592 18.1997 18.8 18.1997C18.6408 18.1997 18.4881 18.2629 18.3755 18.3755C18.2629 18.4881 18.1997 18.6408 18.1997 18.8C18.1997 18.9592 18.2629 19.1119 18.3755 19.2245L19.5755 20.4245C19.6312 20.4802 19.6974 20.5245 19.7703 20.5546C19.8431 20.5848 19.9212 20.6003 20 20.6003C20.0788 20.6003 20.1569 20.5848 20.2297 20.5546C20.3026 20.5245 20.3688 20.4802 20.4245 20.4245C20.4802 20.3688 20.5245 20.3026 20.5546 20.2297C20.5848 20.1569 20.6003 20.0788 20.6003 20C20.6003 19.9212 20.5848 19.8431 20.5546 19.7703C20.5245 19.6974 20.4802 19.6312 20.4245 19.5755L19.2245 18.3755ZM8 14C8 13.8409 7.93679 13.6883 7.82426 13.5757C7.71174 13.4632 7.55913 13.4 7.4 13.4H5.6C5.44087 13.4 5.28826 13.4632 5.17574 13.5757C5.06321 13.6883 5 13.8409 5 14C5 14.1591 5.06321 14.3117 5.17574 14.4243C5.28826 14.5368 5.44087 14.6 5.6 14.6H7.4C7.55913 14.6 7.71174 14.5368 7.82426 14.4243C7.93679 14.3117 8 14.1591 8 14ZM14 20C13.8409 20 13.6883 20.0632 13.5757 20.1757C13.4632 20.2883 13.4 20.4409 13.4 20.6V22.4C13.4 22.5591 13.4632 22.7117 13.5757 22.8243C13.6883 22.9368 13.8409 23 14 23C14.1591 23 14.3117 22.9368 14.4243 22.8243C14.5368 22.7117 14.6 22.5591 14.6 22.4V20.6C14.6 20.4409 14.5368 20.2883 14.4243 20.1757C14.3117 20.0632 14.1591 20 14 20ZM22.4 13.4H20.6C20.4409 13.4 20.2883 13.4632 20.1757 13.5757C20.0632 13.6883 20 13.8409 20 14C20 14.1591 20.0632 14.3117 20.1757 14.4243C20.2883 14.5368 20.4409 14.6 20.6 14.6H22.4C22.5591 14.6 22.7117 14.5368 22.8243 14.4243C22.9368 14.3117 23 14.1591 23 14C23 13.8409 22.9368 13.6883 22.8243 13.5757C22.7117 13.4632 22.5591 13.4 22.4 13.4Z"
        fill="white" />
</svg>