<svg width="28" height="28" viewBox="0 0 28 28" fill="none" xmlns="http://www.w3.org/2000/svg">
<path d="M24.5003 7.85156C24.4769 7.85156 24.4419 7.85156 24.4069 7.85156C18.2353 7.23322 12.0753 6.99989 5.9736 7.61822L3.5936 7.85156C3.1036 7.89822 2.67193 7.54822 2.62527 7.05822C2.5786 6.56822 2.9286 6.14822 3.40693 6.10156L5.78693 5.86822C11.9936 5.23822 18.2819 5.48322 24.5819 6.10156C25.0603 6.14822 25.4103 6.57989 25.3636 7.05822C25.3286 7.51322 24.9436 7.85156 24.5003 7.85156Z" fill="#F04438"/>
<path d="M9.91639 6.67398C9.86973 6.67398 9.82306 6.67398 9.76473 6.66232C9.29806 6.58065 8.97139 6.12565 9.05306 5.65898L9.30973 4.13065C9.49639 3.01065 9.75306 1.45898 12.4714 1.45898H15.5281C18.2581 1.45898 18.5147 3.06898 18.6897 4.14232L18.9464 5.65898C19.0281 6.13732 18.7014 6.59232 18.2347 6.66232C17.7564 6.74398 17.3014 6.41732 17.2314 5.95065L16.9747 4.43398C16.8114 3.41898 16.7764 3.22065 15.5397 3.22065H12.4831C11.2464 3.22065 11.2231 3.38398 11.0481 4.42232L10.7797 5.93898C10.7097 6.37065 10.3364 6.67398 9.91639 6.67398Z" fill="#F04438"/>
<path d="M17.7448 26.5435H10.2548C6.18313 26.5435 6.0198 24.2918 5.89147 22.4718L5.13313 10.7235C5.09813 10.2451 5.47147 9.82513 5.9498 9.79013C6.4398 9.7668 6.84813 10.1285 6.88313 10.6068L7.64147 22.3551C7.7698 24.1285 7.81647 24.7935 10.2548 24.7935H17.7448C20.1948 24.7935 20.2415 24.1285 20.3581 22.3551L21.1165 10.6068C21.1515 10.1285 21.5715 9.7668 22.0498 9.79013C22.5281 9.82513 22.9015 10.2335 22.8665 10.7235L22.1081 22.4718C21.9798 24.2918 21.8165 26.5435 17.7448 26.5435Z" fill="#F04438"/>
<path d="M15.9368 20.125H12.0518C11.5734 20.125 11.1768 19.7283 11.1768 19.25C11.1768 18.7717 11.5734 18.375 12.0518 18.375H15.9368C16.4151 18.375 16.8118 18.7717 16.8118 19.25C16.8118 19.7283 16.4151 20.125 15.9368 20.125Z" fill="#F04438"/>
<path d="M16.9166 15.459H11.0833C10.6049 15.459 10.2083 15.0623 10.2083 14.584C10.2083 14.1057 10.6049 13.709 11.0833 13.709H16.9166C17.3949 13.709 17.7916 14.1057 17.7916 14.584C17.7916 15.0623 17.3949 15.459 16.9166 15.459Z" fill="#F04438"/>
</svg>
