<svg width="24" height="24" viewBox="0 0 24 24" fill="none" xmlns="http://www.w3.org/2000/svg">
<path d="M11.7702 3.74358C14.1117 1.4 17.9107 1.4 20.2538 3.74314C22.5369 6.02621 22.5954 9.69142 20.4294 12.0454L20.2413 12.2427L11.4413 21.0409L11.4047 21.0712C9.94346 22.3879 7.68946 22.3432 6.28208 20.9358C4.96307 19.6168 4.84095 17.5541 5.91573 16.0974C5.93908 16.0521 5.96733 16.0083 6.00054 15.9672L6.05409 15.9075L6.141 15.8198L6.28208 15.6719L6.285 15.6748L13.7207 8.22047C13.9867 7.95385 14.4033 7.92909 14.6972 8.14656L14.7814 8.21906C15.048 8.48497 15.0728 8.9016 14.8553 9.19551L14.7828 9.27972L7.18819 16.8928C6.47056 17.7684 6.52044 19.0627 7.33783 19.8801C8.1669 20.7091 9.48655 20.7486 10.3623 19.9985L19.195 11.1681C20.9505 9.41041 20.9505 6.56116 19.1932 4.8038C17.4907 3.10136 14.7636 3.04816 12.9971 4.6442L12.8292 4.8038L12.8167 4.81812L3.28033 14.3544C2.98744 14.6473 2.51256 14.6473 2.21967 14.3544C1.9534 14.0882 1.9292 13.6715 2.14705 13.3779L2.21967 13.2938L11.7685 3.74314L11.7702 3.74358Z" fill="#DBDBDE"/>
</svg>
