<svg width="28" height="37" viewBox="0 0 28 37" fill="none" xmlns="http://www.w3.org/2000/svg">
<g clip-path="url(#clip0_12397_54761)">
<path d="M0 3.66667C0 1.64162 1.64162 0 3.66667 0H15.8667L28 12.025V33.3333C28 35.3584 26.3584 37 24.3333 37H3.66667C1.64162 37 0 35.3584 0 33.3333V3.66667Z" fill="#F04438"/>
<path d="M18.3333 11.9167H27.4999L15.5833 0V9.16667C15.5833 10.6854 16.8145 11.9167 18.3333 11.9167Z" fill="white" fill-opacity="0.5"/>
</g>
<path d="M7.09794 26.7641C6.81805 27.0206 6.79914 27.4555 7.05571 27.7354C7.31228 28.0153 7.74717 28.0342 8.02706 27.7776L7.09794 26.7641ZM11.2383 23.9014L11.7028 24.4082L11.7028 24.4082L11.2383 23.9014ZM12.1502 23.8862L11.7028 24.4082L11.7028 24.4082L12.1502 23.8862ZM16.0526 28.1366C16.3409 28.3837 16.7749 28.3503 17.022 28.062C17.2691 27.7737 17.2357 27.3397 16.9474 27.0926L16.0526 28.1366ZM14.6389 25.877C14.3704 26.1455 14.3704 26.5808 14.6389 26.8492C14.9073 27.1177 15.3427 27.1177 15.6111 26.8492L14.6389 25.877ZM16.7659 24.7222L16.2798 24.2361L16.7659 24.7222ZM17.6645 24.6584L18.077 24.1084L18.077 24.1084L17.6645 24.6584ZM19.525 26.9131C19.8288 27.1409 20.2597 27.0794 20.4875 26.7756C20.7153 26.4719 20.6538 26.0409 20.35 25.8131L19.525 26.9131ZM8.59375 18.3334H18.9062V16.9584H8.59375V18.3334ZM18.9062 18.3334C19.0961 18.3334 19.25 18.4873 19.25 18.6771H20.625C20.625 17.7279 19.8555 16.9584 18.9062 16.9584V18.3334ZM19.25 18.6771V28.9896H20.625V18.6771H19.25ZM19.25 28.9896C19.25 29.1795 19.0961 29.3334 18.9062 29.3334V30.7084C19.8555 30.7084 20.625 29.9389 20.625 28.9896H19.25ZM18.9062 29.3334H8.59375V30.7084H18.9062V29.3334ZM8.59375 29.3334C8.4039 29.3334 8.25 29.1795 8.25 28.9896H6.875C6.875 29.9389 7.64451 30.7084 8.59375 30.7084V29.3334ZM8.25 28.9896V18.6771H6.875V28.9896H8.25ZM8.25 18.6771C8.25 18.4873 8.4039 18.3334 8.59375 18.3334V16.9584C7.64451 16.9584 6.875 17.7279 6.875 18.6771H8.25ZM8.02706 27.7776L11.7028 24.4082L10.7737 23.3946L7.09794 26.7641L8.02706 27.7776ZM11.7028 24.4082L11.7028 24.4082L12.5977 23.3642C12.0695 22.9115 11.2864 22.9246 10.7737 23.3946L11.7028 24.4082ZM11.7028 24.4082L16.0526 28.1366L16.9474 27.0926L12.5976 23.3642L11.7028 24.4082ZM15.6111 26.8492L17.252 25.2084L16.2798 24.2361L14.6389 25.877L15.6111 26.8492ZM17.252 25.2084L17.252 25.2084L18.077 24.1084C17.5296 23.6978 16.7636 23.7522 16.2798 24.2361L17.252 25.2084ZM17.252 25.2084L19.525 26.9131L20.35 25.8131L18.077 24.1084L17.252 25.2084ZM17.1875 21.0834C17.1875 21.4631 16.8797 21.7709 16.5 21.7709V23.1459C17.6391 23.1459 18.5625 22.2225 18.5625 21.0834H17.1875ZM16.5 21.7709C16.1203 21.7709 15.8125 21.4631 15.8125 21.0834H14.4375C14.4375 22.2225 15.3609 23.1459 16.5 23.1459V21.7709ZM15.8125 21.0834C15.8125 20.7037 16.1203 20.3959 16.5 20.3959V19.0209C15.3609 19.0209 14.4375 19.9443 14.4375 21.0834H15.8125ZM16.5 20.3959C16.8797 20.3959 17.1875 20.7037 17.1875 21.0834H18.5625C18.5625 19.9443 17.6391 19.0209 16.5 19.0209V20.3959Z" fill="white"/>
<defs>
<clipPath id="clip0_12397_54761">
<rect width="27.5" height="36.6667" fill="white"/>
</clipPath>
</defs>
</svg>
