<svg width="24" height="24" viewBox="0 0 24 24" fill="none" xmlns="http://www.w3.org/2000/svg">
<path d="M16.1042 5.9475C15.802 5.94563 15.5125 5.8261 15.297 5.61428C15.0815 5.40245 14.957 5.115 14.95 4.81292L14.8958 2H5.55125C5.1392 2.00121 4.74445 2.16584 4.45363 2.45775C4.16281 2.74967 3.99967 3.14503 4 3.55708V20.4429C3.99967 20.855 4.16281 21.2503 4.45363 21.5422C4.74445 21.8342 5.1392 21.9988 5.55125 22H17.6571C18.0691 21.9988 18.4639 21.8342 18.7547 21.5422C19.0455 21.2503 19.2087 20.855 19.2083 20.4429V5.9475H16.1042ZM16.1817 14.7808C16.1817 15.1009 16.0546 15.408 15.8285 15.6345C15.6023 15.8611 15.2955 15.9886 14.9754 15.9892H8.72542C8.40495 15.9892 8.0976 15.8619 7.871 15.6353C7.64439 15.4086 7.51708 15.1013 7.51708 14.7808V10.5383C7.51708 10.2179 7.64439 9.91052 7.871 9.68391C8.0976 9.45731 8.40495 9.33 8.72542 9.33H14.9754C15.2955 9.33055 15.6023 9.4581 15.8285 9.68465C16.0546 9.9112 16.1817 10.2182 16.1817 10.5383V14.7808Z" fill="#33311B"/>
<path d="M16.1041 5.25787H19.1266C19.0886 5.18466 19.0385 5.11844 18.9783 5.06204L15.8812 2.1912C15.7974 2.11272 15.6959 2.05556 15.5854 2.02454L15.6391 4.79787C15.6414 4.92002 15.6913 5.03646 15.7781 5.12238C15.865 5.2083 15.982 5.25691 16.1041 5.25787Z" fill="#33311B"/>
<path d="M13.6874 12.6208C13.6844 12.616 13.6803 12.6121 13.6754 12.6092C13.6706 12.6063 13.6651 12.6046 13.6595 12.6041C13.6538 12.6034 13.648 12.6039 13.6425 12.6057C13.637 12.6075 13.632 12.6105 13.6279 12.6145L13.6016 12.6391L12.6266 13.2249C12.6833 13.2968 12.7091 13.3882 12.6984 13.4791C12.6877 13.5699 12.6414 13.6528 12.5695 13.7095C12.4977 13.7662 12.4063 13.792 12.3154 13.7813C12.2245 13.7706 12.1416 13.7243 12.0849 13.6524L11.8404 13.377L11.8308 13.3662L10.6041 11.9841L10.5937 11.9699C10.5903 11.9647 10.5856 11.9604 10.58 11.9575C10.5745 11.9546 10.5683 11.9531 10.562 11.9533C10.5558 11.953 10.5496 11.9544 10.5441 11.9572C10.5385 11.9601 10.5338 11.9643 10.5304 11.9695L9.15869 13.8487C9.15405 13.854 9.15123 13.8607 9.15063 13.8677C9.15003 13.8748 9.15169 13.8818 9.15535 13.8879C9.15834 13.8946 9.16335 13.9003 9.16969 13.9041C9.17603 13.9079 9.1834 13.9097 9.19077 13.9091H14.5045C14.5118 13.9096 14.519 13.9079 14.5253 13.9041C14.5315 13.9004 14.5365 13.8949 14.5395 13.8883C14.5431 13.8823 14.5448 13.8753 14.5444 13.8683C14.5439 13.8613 14.5414 13.8546 14.537 13.8491L13.6874 12.6208Z" fill="#33311B"/>
<path d="M12.3271 11.6201C12.3671 11.6199 12.4061 11.6079 12.4393 11.5856C12.4725 11.5632 12.4983 11.5315 12.5135 11.4945C12.5287 11.4575 12.5326 11.4168 12.5247 11.3776C12.5168 11.3383 12.4975 11.3023 12.4691 11.2741C12.4408 11.2459 12.4047 11.2267 12.3654 11.2189C12.3262 11.2112 12.2855 11.2152 12.2485 11.2306C12.2116 11.2459 12.18 11.2719 12.1578 11.3052C12.1356 11.3385 12.1237 11.3776 12.1237 11.4176C12.1239 11.4714 12.1455 11.5229 12.1836 11.5608C12.2217 11.5988 12.2733 11.6201 12.3271 11.6201Z" fill="#33311B"/>
<path d="M14.9742 10.0212H8.72418C8.5871 10.0215 8.45571 10.076 8.35879 10.1729C8.26186 10.2699 8.20731 10.4013 8.20709 10.5383V14.7821C8.20731 14.9191 8.26186 15.0505 8.35879 15.1475C8.45571 15.2444 8.5871 15.2989 8.72418 15.2992H14.9742C15.1112 15.2989 15.2426 15.2444 15.3394 15.1474C15.4363 15.0505 15.4907 14.9191 15.4908 14.7821V10.5383C15.4907 10.4013 15.4363 10.2699 15.3394 10.173C15.2426 10.076 15.1112 10.0215 14.9742 10.0212ZM12.3271 10.5254C12.5035 10.5256 12.676 10.5781 12.8226 10.6762C12.9692 10.7744 13.0834 10.9138 13.1508 11.0769C13.2181 11.2399 13.2356 11.4193 13.201 11.5923C13.1665 11.7654 13.0813 11.9242 12.9565 12.0489C12.8316 12.1735 12.6726 12.2583 12.4995 12.2926C12.3264 12.3269 12.147 12.309 11.9841 12.2413C11.8212 12.1737 11.6819 12.0592 11.5841 11.9124C11.4862 11.7656 11.434 11.5931 11.4342 11.4167C11.4347 11.1802 11.529 10.9535 11.6964 10.7865C11.8638 10.6194 12.0906 10.5255 12.3271 10.5254ZM15.15 14.2083C15.0885 14.3263 14.9958 14.425 14.882 14.4939C14.7681 14.5627 14.6376 14.599 14.5046 14.5987H9.19168C9.05739 14.5985 8.92579 14.5612 8.81141 14.4908C8.69702 14.4205 8.60431 14.3199 8.54352 14.2001C8.48273 14.0804 8.45622 13.9462 8.46692 13.8124C8.47763 13.6785 8.52513 13.5502 8.60418 13.4417L9.97584 11.5629C10.0434 11.4706 10.1316 11.3954 10.2335 11.3435C10.3354 11.2915 10.4481 11.2642 10.5625 11.2637H10.565C10.6767 11.2643 10.7867 11.2905 10.8867 11.3403C10.9867 11.39 11.0739 11.4621 11.1417 11.5508L12.1625 12.6992L13.1908 12.0833C13.2686 12.0188 13.359 11.9711 13.4562 11.9434C13.5534 11.9156 13.6553 11.9084 13.7554 11.9222C13.8556 11.936 13.9517 11.9705 14.0378 12.0235C14.1239 12.0765 14.198 12.1468 14.2554 12.23L15.1042 13.4583C15.1794 13.5673 15.2235 13.6948 15.2316 13.8269C15.2396 13.9591 15.2114 14.091 15.15 14.2083Z" fill="#33311B"/>
</svg>
