<svg width="100" height="101" viewBox="0 0 100 101" fill="none" xmlns="http://www.w3.org/2000/svg">
<path d="M45.4551 11.8092C49.7874 9.40959 55.1959 10.8039 57.8535 14.8936L58.1985 15.4678L90.5275 73.8356C91.2975 75.2258 91.7015 76.7888 91.7015 78.378C91.7015 83.34 87.8466 87.4015 82.9683 87.7314L82.3265 87.753H17.6775C16.0887 87.753 14.526 87.3492 13.136 86.5796C8.80338 84.1805 7.11571 78.8562 9.17219 74.4337L9.47593 73.8366L41.7959 15.4688C42.6481 13.9298 43.9161 12.6616 45.4551 11.8092ZM85.0602 76.8639L52.7312 18.4961C51.8949 16.9864 49.9931 16.4403 48.4833 17.2766C48.0986 17.4897 47.7647 17.7807 47.5019 18.1294L47.2636 18.4964L14.9436 76.8642C14.1076 78.3741 14.6538 80.2758 16.1637 81.1119C16.5112 81.3043 16.891 81.4281 17.2827 81.478L17.6775 81.503H82.3265C84.0524 81.503 85.4515 80.1039 85.4515 78.378C85.4515 77.9807 85.3757 77.5883 85.2296 77.2215L85.0602 76.8639L52.7312 18.4961L85.0602 76.8639ZM50.0011 66.891C52.2992 66.891 54.1622 68.754 54.1622 71.0521C54.1622 73.3502 52.2992 75.2132 50.0011 75.2132C47.703 75.2132 45.84 73.3502 45.84 71.0521C45.84 68.754 47.703 66.891 50.0011 66.891ZM49.9836 35.6317C51.5657 35.6304 52.8741 36.805 53.0823 38.3301L53.1111 38.7542L53.1261 57.5108C53.1275 59.2367 51.7295 60.6369 50.0036 60.6383C48.4216 60.6396 47.1131 59.465 46.905 57.9398L46.8761 57.5158L46.8611 38.7592C46.8597 37.0333 48.2577 35.633 49.9836 35.6317Z" fill="#F04438"/>
</svg>
