<svg width="80" height="80" viewBox="0 0 80 80" fill="none" xmlns="http://www.w3.org/2000/svg">
<g clip-path="url(#clip0_8427_18682)">
<path d="M60.5345 45.439L61.4804 48.3494C61.6623 48.8587 61.917 49.2589 62.208 49.6955V71.8145C62.208 76.3256 58.5336 80 54.0225 80H12.1855C7.67438 80 4 76.3256 4 71.8145V15.4255C4 10.9144 7.67438 7.23999 12.1855 7.23999H42.2354C41.9807 7.38551 41.6897 7.53103 41.435 7.64017L36.2691 9.31365C34.8139 9.85935 33.5406 10.7689 32.6675 12.0422C31.7636 13.2906 31.2795 14.7937 31.285 16.335C31.285 17.8993 31.758 19.3909 32.6311 20.6278C32.9148 21.0353 33.2786 21.3627 33.6315 21.6792L33.7952 21.8284H17.6425C16.1509 21.8284 14.914 23.0653 14.914 24.5569C14.914 26.0485 16.1509 27.2854 17.6425 27.2854H43.9816L44.109 27.4964C44.2306 27.6825 44.3341 27.8799 44.4182 28.0857L46.0917 33.2153C46.601 34.6705 47.5469 35.9074 48.8202 36.8169C50.0935 37.6901 51.5851 38.163 53.113 38.163C53.113 39.5091 53.5132 40.8187 54.3136 41.9465C55.1139 43.0743 56.2053 43.8747 57.6241 44.384L60.5345 45.439ZM17.6425 63.629H48.5655C50.0571 63.629 51.294 62.3921 51.294 60.9005C51.294 59.4089 50.0571 58.172 48.5655 58.172H17.6425C16.1509 58.172 14.914 59.4089 14.914 60.9005C14.914 62.3921 16.1509 63.629 17.6425 63.629ZM17.6425 45.439H48.5655C50.0571 45.439 51.294 44.2021 51.294 42.7105C51.294 41.2189 50.0571 39.982 48.5655 39.982H17.6425C16.1509 39.982 14.914 41.2189 14.914 42.7105C14.914 44.2021 16.1509 45.439 17.6425 45.439Z" fill="url(#paint0_linear_8427_18682)"/>
<path fill-rule="evenodd" clip-rule="evenodd" d="M47.9488 23.3199C47.6942 22.9561 47.4031 22.6287 47.1121 22.3377H47.0757C45.9423 21.1994 44.5598 20.3401 43.0375 19.8275L38.0171 18.1904C37.6533 18.0448 37.2895 17.7902 37.0712 17.4628C36.8274 17.138 36.6994 16.741 36.7074 16.335C36.6994 15.929 36.8274 15.532 37.0712 15.2072C37.2895 14.8798 37.6169 14.6251 38.0171 14.4796L43.0375 12.8425C44.5655 12.3332 45.9115 11.4601 47.0393 10.3323C48.0943 9.24088 48.9311 7.89482 49.4768 6.43962V6.33048L51.1139 1.31004C51.2594 0.946235 51.5141 0.582435 51.8415 0.364155C52.1663 0.120404 52.5633 -0.00766137 52.9692 0.000354668C53.3694 0.000354668 53.7696 0.145875 54.097 0.364155C54.4245 0.582435 54.6791 0.909855 54.8246 1.31004L56.4617 6.33048C56.9711 7.85844 57.8442 9.24088 58.972 10.3687C60.0997 11.5328 61.4822 12.3696 63.0101 12.8789L68.0306 14.516H68.1397C68.5035 14.6615 68.8309 14.9162 69.0856 15.2436C69.3403 15.571 69.4494 15.9712 69.4494 16.3714C69.4574 16.7774 69.3293 17.1744 69.0856 17.4991C68.8673 17.8266 68.5399 18.0812 68.1397 18.2267L63.1193 19.8638C61.5913 20.3732 60.2089 21.2463 59.0811 22.3741C57.9169 23.5018 57.0802 24.8843 56.5709 26.4122L54.8974 31.4327V31.5418C54.7519 31.8692 54.4972 32.1603 54.2062 32.3786C53.8814 32.6223 53.4844 32.7504 53.0784 32.7424C52.6724 32.7504 52.2754 32.6223 51.9506 32.3786C51.6131 32.1493 51.3581 31.8177 51.223 31.4327L49.5859 26.4122C49.2221 25.2845 48.6764 24.2294 47.9488 23.3199ZM75.961 37.1442L73.1597 36.2711C72.2866 35.9801 71.5226 35.5071 70.9041 34.8887C70.2857 34.2338 69.8127 33.4699 69.5217 32.6331L68.6122 29.8682C68.5344 29.6514 68.3954 29.4619 68.212 29.3225C68.0365 29.182 67.8184 29.1055 67.5936 29.1055C67.3687 29.1055 67.1506 29.182 66.9751 29.3225C66.7932 29.4681 66.6477 29.65 66.5749 29.8682L65.6654 32.6331C65.4108 33.4699 64.9378 34.2338 64.3194 34.8523C63.7009 35.4708 62.9369 35.9437 62.1002 36.2347L59.2989 37.1442C59.0806 37.217 58.8987 37.3625 58.7532 37.5444C58.6127 37.7199 58.5361 37.9381 58.5361 38.1629C58.5361 38.3877 58.6127 38.6058 58.7532 38.7813C58.8987 38.9632 59.0806 39.1088 59.2989 39.1815L62.1002 40.091C62.9369 40.3457 63.7373 40.855 64.3557 41.4735C64.9742 42.0919 65.4471 42.8923 65.7382 43.729L66.6477 46.4939C66.7204 46.7122 66.866 46.8941 67.0479 47.0396C67.2234 47.1801 67.4415 47.2567 67.6663 47.2567C67.8911 47.2567 68.1093 47.1801 68.2848 47.0396C68.4667 46.8941 68.6122 46.7122 68.685 46.4939L69.5945 43.729C69.8855 42.8559 70.3584 42.0919 70.9769 41.4735C71.6317 40.855 72.3957 40.3821 73.2325 40.091L76.0337 39.1815C76.252 39.1088 76.4339 38.9632 76.5794 38.7813C76.7249 38.5994 76.7613 38.3812 76.7613 38.1629C76.7613 37.9446 76.7249 37.7263 76.5794 37.5444C76.438 37.3677 76.2073 37.2596 75.9807 37.1535L75.961 37.1442Z" fill="url(#paint1_linear_8427_18682)"/>
</g>
<defs>
<linearGradient id="paint0_linear_8427_18682" x1="40.38" y1="0.000146533" x2="40.38" y2="80.0001" gradientUnits="userSpaceOnUse">
<stop stop-color="#1DD2CE"/>
<stop offset="1" stop-color="#098D8A"/>
</linearGradient>
<linearGradient id="paint1_linear_8427_18682" x1="52.0014" y1="1.59998" x2="88.7221" y2="22.4734" gradientUnits="userSpaceOnUse">
<stop stop-color="#F4E85B"/>
<stop offset="1" stop-color="#FFCE1E"/>
</linearGradient>
<clipPath id="clip0_8427_18682">
<rect width="80" height="80" fill="white"/>
</clipPath>
</defs>
</svg>
