<svg width="80" height="80" viewBox="0 0 80 80" fill="none" xmlns="http://www.w3.org/2000/svg">
<path fill-rule="evenodd" clip-rule="evenodd" d="M33.1458 14.5183C33.1458 13.3206 32.1792 12.3496 30.9868 12.3496C29.7945 12.3496 28.8279 13.3206 28.8279 14.5183C28.8279 23.0838 26.9891 28.6207 23.5367 32.0606C20.0808 35.504 14.564 37.2893 6.15895 37.2893C4.96659 37.2893 4 38.2603 4 39.458C4 40.6557 4.96659 41.6267 6.15895 41.6267C14.5496 41.6267 20.0705 43.4582 23.5317 46.9294C26.9923 50.3999 28.8279 55.9447 28.8279 64.3977C28.8279 65.5954 29.7945 66.5664 30.9868 66.5664C32.1792 66.5664 33.1458 65.5954 33.1458 64.3977C33.1458 55.9411 34.9699 50.3973 38.4235 46.9282C41.8771 43.459 47.396 41.6267 55.8147 41.6267C57.0071 41.6267 57.9737 40.6557 57.9737 39.458C57.9737 38.2603 57.0071 37.2893 55.8147 37.2893C47.3817 37.2893 41.8668 35.5032 38.4185 32.0618C34.9731 28.6233 33.1458 23.0874 33.1458 14.5183Z" fill="url(#paint0_linear_8427_18665)"/>
<path fill-rule="evenodd" clip-rule="evenodd" d="M63.0458 5.84337C63.0458 4.82531 62.2242 4 61.2107 4C60.1972 4 59.3755 4.82531 59.3755 5.84337C59.3755 10.2301 58.4311 12.8898 56.8246 14.4904C55.215 16.0942 52.5632 17.012 48.257 17.012C47.2435 17.012 46.4219 17.8373 46.4219 18.8554C46.4219 19.8735 47.2435 20.6988 48.257 20.6988C52.5511 20.6988 55.2063 21.6386 56.8203 23.2573C58.4338 24.8754 59.3755 27.5418 59.3755 31.8674C59.3755 32.8855 60.1972 33.7108 61.2107 33.7108C62.2242 33.7108 63.0458 32.8855 63.0458 31.8674C63.0458 27.5387 63.9821 24.8732 65.5918 23.2563C67.2015 21.6393 69.8551 20.6988 74.1643 20.6988C75.1778 20.6988 75.9994 19.8735 75.9994 18.8554C75.9994 17.8373 75.1778 17.012 74.1643 17.012C69.8429 17.012 67.1928 16.0935 65.5876 14.4915C63.9848 12.8919 63.0458 10.2331 63.0458 5.84337Z" fill="url(#paint1_linear_8427_18665)"/>
<path fill-rule="evenodd" clip-rule="evenodd" d="M57.6446 52.4698C57.6446 51.4518 56.823 50.6265 55.8095 50.6265C54.796 50.6265 53.9744 51.4518 53.9744 52.4698C53.9744 56.0899 53.1938 58.2074 51.9391 59.4576C50.6813 60.7108 48.5692 61.4698 45.0148 61.4698C44.0013 61.4698 43.1797 62.2951 43.1797 63.3132C43.1797 64.3313 44.0013 65.1566 45.0148 65.1566C48.5571 65.1566 50.6726 65.933 51.9348 67.1989C53.1965 68.4642 53.9744 70.5884 53.9744 74.1565C53.9744 75.1746 54.796 75.9999 55.8095 75.9999C56.823 75.9999 57.6446 75.1746 57.6446 74.1565C57.6446 70.5853 58.4182 68.462 59.6767 67.1978C60.9352 65.9337 63.0491 65.1566 66.6043 65.1566C67.6178 65.1566 68.4394 64.3313 68.4394 63.3132C68.4394 62.2951 67.6178 61.4698 66.6043 61.4698C63.0369 61.4698 60.9265 60.7101 59.6725 59.4587C58.4209 58.2096 57.6446 56.093 57.6446 52.4698Z" fill="url(#paint2_linear_8427_18665)"/>
<defs>
<linearGradient id="paint0_linear_8427_18665" x1="30.9868" y1="12.3496" x2="30.9868" y2="66.5664" gradientUnits="userSpaceOnUse">
<stop stop-color="#FFBD3E"/>
<stop offset="1" stop-color="#FF640D"/>
</linearGradient>
<linearGradient id="paint1_linear_8427_18665" x1="57.5135" y1="7.21843" x2="84.9664" y2="17.5433" gradientUnits="userSpaceOnUse">
<stop stop-color="#25DAD5"/>
<stop offset="1" stop-color="#249996"/>
</linearGradient>
<linearGradient id="paint2_linear_8427_18665" x1="55.8095" y1="50.6265" x2="55.8095" y2="75.9999" gradientUnits="userSpaceOnUse">
<stop stop-color="#FFBD3E"/>
<stop offset="1" stop-color="#FF640D"/>
</linearGradient>
</defs>
</svg>
