<svg width="418" height="241" viewBox="0 0 418 241" fill="none" xmlns="http://www.w3.org/2000/svg">
<path fill-rule="evenodd" clip-rule="evenodd" d="M156.795 158.814C153.522 157.085 150.726 157.899 147.657 161.153C149.055 153.289 149.021 143.763 142.747 142.17C136.302 140.509 132.654 144.509 128.869 154.17C129.005 145.899 127.369 135.221 120.481 134.78C112.74 134.306 110.149 140.645 108.239 154.712C105.818 146.848 99.1692 133.051 91.3266 135.797C83.6545 138.475 84.166 145.831 88.4282 160.814C84.2341 154.34 75.8119 144.712 70.1856 148.373C64.8322 151.831 66.2984 157.492 72.2315 168.001C68.3102 166.306 64.2525 166.136 60.9791 169.323C53.6479 176.509 57.1941 183.323 67.3214 195.967C77.4827 208.611 150.419 186.238 153.863 180.543C157.341 174.814 162.763 162.001 156.795 158.814Z" fill="white"/>
<path fill-rule="evenodd" clip-rule="evenodd" d="M111.215 138.912C109.807 141.457 108.781 144.983 107.899 150.134L107.838 150.496L107.83 150.476C106.424 146.924 104.615 143.416 102.647 140.684C99.0655 135.711 95.1022 133.397 90.9861 134.838C86.8583 136.279 84.764 139.052 84.394 143.453L84.372 143.747C84.179 146.666 84.6766 150.302 85.9358 155.445L86.0045 155.725L85.9167 155.616C84.1806 153.471 82.3193 151.519 80.4978 150.011C76.4358 146.649 72.6801 145.534 69.6247 147.522C66.6393 149.45 65.4652 152.104 65.9621 155.682L65.9815 155.817C66.3717 158.431 67.6217 161.59 69.9128 165.901L70.0612 166.179L69.9752 166.157C66.2937 165.25 62.9662 165.964 60.2627 168.596C56.3885 172.393 55.256 176.265 56.6212 180.884L56.6962 181.131C57.9186 185.051 60.8094 189.47 66.5204 196.6C71.4395 202.721 89.1721 201.851 113.348 196.121C133.177 191.421 152.751 184.355 154.739 181.067C156.867 177.562 158.909 172.917 159.865 168.963C161.157 163.622 160.525 159.652 157.279 157.918L157.154 157.853C154.365 156.425 151.802 156.62 149.234 158.41L149.091 158.512L149.112 158.343C149.524 154.927 149.544 151.773 149.086 149.137C148.347 144.875 146.374 142.041 142.999 141.184L142.796 141.134C137.182 139.767 133.401 142.228 129.898 149.272L129.775 149.52L129.771 149.461C129.555 146.405 129.066 143.578 128.279 141.218C126.777 136.713 124.23 134.001 120.546 133.765C116.318 133.506 113.346 135.138 111.281 138.795L111.215 138.912ZM120.417 135.795C125.506 136.121 128.018 143.656 127.845 154.153C127.826 155.287 129.407 155.596 129.821 154.539C133.645 144.778 136.979 141.734 142.489 143.154C147.161 144.341 148.368 151.304 146.649 160.976C146.472 161.972 147.707 162.586 148.402 161.849L148.627 161.614C151.349 158.824 153.61 158.284 156.314 159.712C158.485 160.871 158.974 163.946 157.876 168.487C156.972 172.222 155.013 176.678 152.986 180.017C152.328 181.106 147.334 183.518 139.967 186.178C132.147 189.001 122.385 191.888 112.873 194.143C89.662 199.644 72.2706 200.497 68.1195 195.332L67.4329 194.47C62.2239 187.901 59.6171 183.808 58.5837 180.311C57.4378 176.434 58.3455 173.331 61.6962 170.047C64.3699 167.444 67.7831 167.187 71.8226 168.933C72.7214 169.322 73.6022 168.352 73.1225 167.503C66.9803 156.624 66.3471 152.065 70.7419 149.226C74.7269 146.633 81.835 152.516 87.5671 161.365C88.2035 162.347 89.7314 161.662 89.4115 160.537C84.8695 144.571 85.2814 138.985 91.6644 136.757C94.6993 135.694 97.8701 137.546 100.983 141.868C103.539 145.416 105.85 150.428 107.26 155.01C107.581 156.053 109.105 155.93 109.252 154.848C111.252 140.111 113.914 135.396 120.417 135.795Z" fill="#FE7624"/>
<path fill-rule="evenodd" clip-rule="evenodd" d="M157.375 180.272L157.443 180.068L59.342 180.373L59.4102 180.577C54.1932 181.594 50.4765 186.543 51.3289 192L58.6601 239.051L158.091 238.746L165.422 191.695C166.309 186.272 162.592 181.288 157.375 180.272Z" fill="#FEBA91"/>
<path fill-rule="evenodd" clip-rule="evenodd" d="M318.047 163.323C316.513 163.323 314.978 163.425 313.478 163.594C305.329 152.408 295.986 142.916 286.165 136.882C260.591 121.221 225.47 125.696 192.702 137.764C170.163 146.035 141.622 172.747 123.311 191.662C99.4426 193.459 81.0977 209.594 82.1888 228.069C82.4275 232.103 83.5869 235.899 85.4623 239.391L165.559 239.933C165.696 239.73 165.832 239.493 165.969 239.289L284.767 238.882C284.904 239.052 285.04 239.221 285.176 239.425L350.952 239.323C357.056 231.289 360.704 221.018 360.704 209.798C360.704 184.103 341.609 163.323 318.047 163.323Z" fill="#96BFC3"/>
<path fill-rule="evenodd" clip-rule="evenodd" d="M288.518 138.408C258.273 157.052 231.13 157.458 213.535 154.441C197.236 151.662 185.473 145.424 181.653 142.984C181.006 143.357 180.358 143.73 179.676 144.102C182.813 146.238 195.088 153.289 212.819 156.374C218.616 157.391 224.447 157.899 230.312 157.899C236.279 157.899 242.246 157.391 248.179 156.34C262.535 153.797 276.686 148.204 290.325 139.696C289.711 139.221 289.132 138.814 288.518 138.408Z" fill="white"/>
<path fill-rule="evenodd" clip-rule="evenodd" d="M285.38 170.442C290.188 163.73 296.121 159.967 303.043 159.221C306.248 158.882 308.942 159.323 310.544 159.696C309.896 158.882 309.249 158.069 308.601 157.289C307.032 157.086 305.089 156.984 302.94 157.221C297.723 157.764 290.153 160.272 283.709 169.289C283.368 169.73 283.504 170.374 283.948 170.713C284.118 170.848 284.323 170.916 284.527 170.916C284.868 170.882 285.175 170.747 285.38 170.442Z" fill="white"/>
<path fill-rule="evenodd" clip-rule="evenodd" d="M285.755 194.272C286.335 194.272 286.778 193.831 286.812 193.289C286.881 190.306 288.074 183.526 292.268 177.153C297.11 169.729 304.271 165.187 313.477 163.56C313.034 162.95 312.591 162.34 312.113 161.729C302.907 163.594 295.473 168.509 290.529 176.034C286.403 182.34 284.835 189.255 284.732 193.221C284.732 193.797 285.176 194.272 285.755 194.272Z" fill="white"/>
<path fill-rule="evenodd" clip-rule="evenodd" d="M141.282 184.272C136.951 184.102 132.791 184.509 129.722 185.153C128.699 186.17 127.676 187.187 126.688 188.204C130.472 186.136 152.023 183.56 160.922 193.628C161.127 193.865 161.4 193.967 161.707 193.967C161.945 193.967 162.184 193.899 162.388 193.729C162.798 193.357 162.866 192.712 162.491 192.306C156.728 185.763 146.737 184.475 141.282 184.272Z" fill="white"/>
<path fill-rule="evenodd" clip-rule="evenodd" d="M122.628 191.73C122.628 191.73 122.662 191.73 122.697 191.73C122.662 191.696 122.628 191.73 122.628 191.73C122.628 191.73 122.594 191.73 122.628 191.73Z" fill="white"/>
<path fill-rule="evenodd" clip-rule="evenodd" d="M158.805 198.815C146.768 189.764 131.765 189.221 125.423 189.493C124.707 190.238 123.991 190.95 123.309 191.662C126.957 191.357 144.381 190.544 157.577 200.442C157.748 200.577 157.987 200.645 158.191 200.645C158.498 200.645 158.805 200.51 159.01 200.238C159.351 199.798 159.248 199.154 158.805 198.815Z" fill="white"/>
<path fill-rule="evenodd" clip-rule="evenodd" d="M106.809 239.085C106.809 239.085 117.993 206.204 149.466 212.17C180.938 218.136 224.005 230.95 224.005 230.95V239.187L106.809 239.085Z" fill="white"/>
<path fill-rule="evenodd" clip-rule="evenodd" d="M127.746 213.523C122.396 216.005 117.811 219.831 113.937 224.629C111.447 227.714 109.399 231.015 107.762 234.317C107.188 235.474 106.707 236.549 106.313 237.516L106.146 237.933C106.095 238.065 106.046 238.19 106.002 238.308L105.87 238.668C105.857 238.705 105.846 238.736 105.838 238.76C105.614 239.419 106.106 240.102 106.806 240.102L224.002 240.204C224.567 240.204 225.026 239.749 225.026 239.187V230.95C225.026 230.5 224.729 230.104 224.296 229.975L222.935 229.574L221.096 229.038C218.531 228.293 215.631 227.463 212.454 226.57C203.377 224.016 193.905 221.463 184.51 219.079C179.788 217.881 175.196 216.755 170.769 215.713L169.527 215.422C162.311 213.738 155.651 212.308 149.656 211.171C141.499 209.625 134.2 210.529 127.746 213.523ZM149.273 213.169C155.578 214.364 162.63 215.888 170.298 217.692C174.713 218.732 179.293 219.855 184.005 221.05C192.888 223.304 201.841 225.71 210.463 228.124L211.897 228.527C214.78 229.338 217.434 230.096 219.817 230.786L222.98 231.708V238.169L108.296 238.07L108.389 237.846C108.729 237.038 109.131 236.156 109.597 235.216C111.172 232.04 113.143 228.863 115.533 225.902C119.222 221.332 123.569 217.706 128.611 215.366C134.676 212.553 141.538 211.703 149.273 213.169Z" fill="#2C5D40"/>
<path fill-rule="evenodd" clip-rule="evenodd" d="M355.317 117.628C355.317 117.628 352.794 116.374 352.487 113.493C352.18 110.611 354.124 98.0689 357.261 96.3062C360.432 94.5435 374.855 86.7808 377.515 86.9503C380.175 87.1198 381.266 110.137 355.317 117.628Z" fill="white"/>
<path fill-rule="evenodd" clip-rule="evenodd" d="M356.852 97.6962C362.239 78.9505 366.638 74.7471 369.195 76.5776C371.514 78.2386 366.808 90.1708 365.444 96.3742" fill="white"/>
<path fill-rule="evenodd" clip-rule="evenodd" d="M363.23 78.8619L363.395 78.616C365.575 75.4316 367.84 74.3542 369.793 75.7522C370.944 76.577 371.069 78.2816 370.608 80.9915L370.54 81.3736C370.233 83.05 369.726 85.0076 368.897 87.854L367.543 92.4473C366.91 94.617 366.699 95.4307 366.443 96.591C366.323 97.1397 365.778 97.4873 365.226 97.3673C364.674 97.2474 364.324 96.7054 364.445 96.1567L364.541 95.7243C364.761 94.7607 364.986 93.9154 365.502 92.1416L366.866 87.5137C367.778 84.3939 368.301 82.3593 368.591 80.6527L368.633 80.3952C368.91 78.6259 368.823 77.564 368.597 77.4025C367.813 76.841 366.618 77.4405 364.939 79.979L364.788 80.2123C362.633 83.5761 360.279 89.4712 357.835 97.9752C357.68 98.5153 357.114 98.828 356.57 98.6737C356.027 98.5194 355.713 97.9565 355.868 97.4165L356.044 96.8081C358.535 88.2504 360.951 82.3087 363.23 78.8619Z" fill="#2C5D40"/>
<path fill-rule="evenodd" clip-rule="evenodd" d="M380.616 93.6279C383.31 89.255 387.777 89.4923 385.458 96.916C383.174 104.17 381.503 113.594 377.24 117.865C372.978 122.136 371.444 124.035 371.444 124.035C371.444 124.035 362.919 155.662 358.077 181.967C351.087 220.001 337.857 227.323 325.513 222.95C313.17 218.611 310.885 201.391 327.73 168.001C344.574 134.577 353.474 115.119 353.474 115.119" fill="white"/>
<path fill-rule="evenodd" clip-rule="evenodd" d="M379.745 93.097C381.274 90.6148 383.498 89.2224 385.283 89.8982C387.247 90.6421 387.63 93.2948 386.483 97.0686L386.235 97.8683C385.94 98.835 385.636 99.8949 385.234 101.341L384.493 104.017C382.325 111.79 380.721 115.772 378.055 118.493L377.385 119.168C375.992 120.575 374.83 121.791 373.881 122.822L373.504 123.234C373.11 123.668 372.786 124.034 372.529 124.332L372.376 124.512L371.837 126.544L371.354 128.39C370.884 130.189 370.377 132.16 369.839 134.278C367.892 141.944 365.946 149.965 364.129 157.946L363.736 159.679C362.893 163.42 362.1 167.063 361.365 170.586L361.07 172.01C360.438 175.076 359.855 178.029 359.326 180.855L359.085 182.15C355.75 200.295 350.838 212.424 344.549 219.059C338.922 224.994 332.281 226.427 325.174 223.909C318.344 221.508 314.663 215.515 314.654 206.371C314.645 196.851 318.572 183.99 326.573 168.03L328.145 164.905C334.516 152.229 340.142 140.775 345.002 130.662L346.892 126.716C348.06 124.27 349.119 122.034 350.069 120.013L351.563 116.82L352.544 114.699C352.778 114.187 353.385 113.961 353.899 114.194C354.395 114.418 354.624 114.987 354.43 115.485L354.302 115.769L353.239 118.063L351.779 121.179C350.672 123.532 349.421 126.169 348.026 129.082L346.596 132.064C341.451 142.76 335.46 154.936 328.646 168.457C313.173 199.127 313.191 217.539 325.858 221.992C332.219 224.246 338.003 222.998 343.06 217.664C348.968 211.432 353.706 199.814 356.974 182.316L357.072 181.784C357.746 178.123 358.513 174.244 359.362 170.173C360.213 166.096 361.141 161.858 362.133 157.497C363.853 149.942 365.688 142.354 367.53 135.064L368.28 132.114C368.628 130.753 368.962 129.46 369.279 128.242L369.914 125.815L370.457 123.772C370.494 123.635 370.559 123.508 370.648 123.398L370.788 123.229L370.974 123.011C371.243 122.698 371.579 122.318 371.986 121.87L372.503 121.307C373.578 120.143 374.908 118.76 376.516 117.149L376.671 116.99C378.856 114.708 380.338 111.148 382.249 104.442L383.475 100.038C383.814 98.827 384.087 97.8921 384.36 97.0092L384.483 96.6147C385.404 93.665 385.184 92.0374 384.554 91.7988C383.925 91.5604 382.568 92.4102 381.49 94.1592C381.195 94.6382 380.565 94.7887 380.083 94.4954C379.602 94.2021 379.45 93.576 379.745 93.097Z" fill="#2C5D40"/>
<path fill-rule="evenodd" clip-rule="evenodd" d="M353.781 115.696C351.326 114.035 351.633 104.476 348.871 100.306C345.461 95.1197 342.12 89.7299 348.428 90.5434C353.85 91.2214 355.555 95.9671 356.816 97.6621" fill="white"/>
<path fill-rule="evenodd" clip-rule="evenodd" d="M344.012 93.4202C343.303 90.5815 344.968 89.0721 348.555 89.5348C351.566 89.9113 353.747 91.3924 355.513 93.7562L355.595 93.8688C356.24 94.7659 357.467 96.8104 357.629 97.0446L357.638 97.0575C357.974 97.509 357.878 98.1458 357.424 98.4799C356.97 98.814 356.329 98.7188 355.993 98.2673L355.959 98.218C355.667 97.7898 354.392 95.667 353.87 94.9688C352.412 93.0168 350.698 91.8527 348.296 91.5523C347.042 91.3906 346.313 91.5054 346.045 91.748C345.887 91.8914 345.834 92.2246 345.977 92.8438L345.998 92.93C346.352 94.3503 347.377 96.1677 349.61 99.5727L349.725 99.7472C350.769 101.324 351.412 103.41 352.069 106.747L352.201 107.435L352.601 109.586C353.225 112.868 353.712 114.38 354.325 114.833L354.356 114.856C354.823 115.172 354.944 115.804 354.626 116.268C354.309 116.733 353.672 116.853 353.205 116.537C351.926 115.671 351.376 114.071 350.629 110.164L350.168 107.692L350.101 107.346C349.493 104.208 348.913 102.265 348.07 100.948L347.436 99.9776C345.376 96.8018 344.416 95.0365 344.012 93.4202Z" fill="#2C5D40"/>
<path fill-rule="evenodd" clip-rule="evenodd" d="M377.48 101.56C377.48 101.56 382.288 89.967 383.89 84.5772C385.664 78.7128 379.458 77.8654 376.457 86.306" fill="white"/>
<path fill-rule="evenodd" clip-rule="evenodd" d="M381.897 79.0628C384.557 78.8909 385.853 81.4657 384.904 84.7548L384.871 84.8659C384.381 86.5135 383.578 88.8024 382.53 91.584L382.343 92.08C382.198 92.4622 382.049 92.8514 381.897 93.2471C381.232 94.9761 380.527 96.765 379.816 98.5336L379.233 99.9755L378.629 101.454L378.426 101.948C378.21 102.468 377.612 102.715 377.09 102.501C376.586 102.294 376.337 101.734 376.513 101.229L377.336 99.214C377.426 98.9932 377.518 98.7656 377.612 98.5319C378.32 96.7794 379.029 94.9955 379.7 93.2611L380.136 92.1304L380.428 91.3626C381.521 88.4817 382.36 86.11 382.868 84.4274L382.911 84.2849C383.564 82.1247 383.025 81.0281 382.03 81.0924C380.557 81.1876 378.659 83.1624 377.421 86.6453C377.233 87.1749 376.649 87.4524 376.116 87.2653C375.583 87.0781 375.304 86.4971 375.492 85.9676C376.974 81.7991 379.451 79.2209 381.897 79.0628Z" fill="#2C5D40"/>
<path fill-rule="evenodd" clip-rule="evenodd" d="M371.821 98.5094C371.821 98.5094 381.266 77.2551 377.038 75.3568C373.185 73.628 370.252 81.3907 365.41 96.3738" fill="white"/>
<path fill-rule="evenodd" clip-rule="evenodd" d="M370.825 78.8589C372.877 74.9158 374.961 73.3093 377.459 74.4297C380.027 75.5828 379.54 79.9845 377.243 87.1731C376.853 88.394 376.414 89.6685 375.935 90.9818C375.317 92.6773 374.661 94.3631 374 95.9791L373.752 96.5816C373.52 97.1409 373.303 97.6552 373.105 98.1169L372.756 98.9201C372.528 99.4338 371.924 99.6663 371.407 99.4393C370.89 99.2124 370.656 98.6119 370.885 98.0982L371.151 97.4868L371.373 96.9687C371.526 96.6089 371.689 96.2207 371.86 95.8074C372.594 94.0354 373.327 92.1668 374.012 90.289C374.482 89 374.912 87.7509 375.293 86.5574L375.46 86.0272C377.181 80.4861 377.568 76.7108 376.617 76.2835C375.433 75.7523 374.171 76.7684 372.508 80.055L372.318 80.4385C370.787 83.5649 369.149 88.1287 366.384 96.6846C366.211 97.2193 365.635 97.5135 365.097 97.3417C364.559 97.1699 364.263 96.5972 364.436 96.0625L365.03 94.2318C367.558 86.485 369.11 82.2698 370.631 79.2396L370.825 78.8589Z" fill="#2C5D40"/>
<path fill-rule="evenodd" clip-rule="evenodd" d="M217.457 113.967L218.787 137.933C218.787 137.933 216.536 150.882 234.609 148.475C252.612 146.102 250.396 135.492 250.396 135.492L244.838 105.73L217.457 113.967Z" fill="white"/>
<path fill-rule="evenodd" clip-rule="evenodd" d="M244.541 104.756L217.16 112.993C216.709 113.129 216.409 113.555 216.435 114.023L217.759 137.883L217.745 137.992C217.738 138.052 217.731 138.119 217.723 138.193C217.556 139.915 217.75 141.878 218.601 143.768C220.678 148.385 225.852 150.667 234.744 149.483C242.001 148.527 246.722 146.188 249.311 142.837C251.193 140.401 251.704 137.841 251.455 135.67L251.438 135.532C251.426 135.447 251.415 135.378 251.405 135.323L245.843 105.544C245.732 104.948 245.125 104.581 244.541 104.756ZM218.521 114.709L244.04 107.032L249.399 135.73C249.406 135.772 249.413 135.826 249.422 135.9C249.615 137.589 249.208 139.631 247.688 141.598C245.46 144.481 241.232 146.576 234.473 147.467C226.414 148.541 222.14 146.655 220.468 142.938C219.784 141.418 219.623 139.791 219.759 138.389L219.775 138.246C219.783 138.179 219.789 138.131 219.794 138.106L219.804 138.03C219.809 137.979 219.81 137.928 219.807 137.877L218.521 114.709Z" fill="#2C5D40"/>
<path fill-rule="evenodd" clip-rule="evenodd" d="M251.762 75.4927C251.762 75.4927 265.742 70.2724 266.288 84.747C266.833 99.2216 251.762 95.4588 251.762 95.4588" fill="white"/>
<path fill-rule="evenodd" clip-rule="evenodd" d="M253.115 74.0447C255.135 73.5701 257.219 73.3999 259.197 73.7204C264.016 74.501 267.057 78.0056 267.31 84.7088C267.571 91.6401 264.467 95.434 259.25 96.5689C257.127 97.0309 254.891 97.0038 252.777 96.6843L252.447 96.6318C252.031 96.5621 251.713 96.4951 251.512 96.4451C250.964 96.3083 250.632 95.7558 250.769 95.2111C250.902 94.6858 251.424 94.3596 251.952 94.4596L252.174 94.5095L252.28 94.5316C252.514 94.5797 252.784 94.6281 253.084 94.6735C254.971 94.9587 256.97 94.9829 258.813 94.582C263.082 93.6533 265.489 90.7115 265.265 84.785L265.249 84.4405C264.954 78.9319 262.638 76.3385 258.868 75.7278C257.194 75.4566 255.366 75.6058 253.586 76.024C253.241 76.105 252.923 76.1907 252.637 76.2767L252.497 76.3197C252.392 76.3523 252.306 76.3804 252.24 76.4027L252.121 76.4447C251.592 76.6422 251.003 76.3761 250.804 75.8503C250.605 75.3245 250.873 74.7382 251.402 74.5407L251.534 74.493C251.889 74.3684 252.43 74.2057 253.115 74.0447Z" fill="#2C5D40"/>
<path fill-rule="evenodd" clip-rule="evenodd" d="M225.54 121.255C210.4 121.255 198.125 109.052 198.125 94.0011V70.2045C198.125 60.5774 206.002 52.7469 215.686 52.7469H239.691C247.022 52.7469 252.989 58.6791 252.989 65.9672V93.9672C252.989 109.018 240.714 121.255 225.54 121.255Z" fill="white"/>
<path fill-rule="evenodd" clip-rule="evenodd" d="M239.69 51.7299H215.685C205.436 51.7299 197.102 60.0157 197.102 70.2045V94.0011C197.102 109.614 209.835 122.272 225.54 122.272L226.002 122.269C241.539 122.018 254.012 109.417 254.012 93.9672V65.9672C254.012 58.1174 247.587 51.7299 239.69 51.7299ZM215.685 53.764H239.69C246.457 53.764 251.966 59.2409 251.966 65.9674V93.9674C251.966 108.306 240.389 120.003 225.977 120.235L225.531 120.239C210.965 120.239 199.147 108.49 199.147 94.0013V70.2047C199.147 61.1392 206.566 53.764 215.685 53.764Z" fill="#2C5D40"/>
<path fill-rule="evenodd" clip-rule="evenodd" d="M259.362 106.882C259.328 97.6281 258.032 90.8824 257.691 89.1875C257.691 89.0858 257.725 88.9502 257.725 88.8485C257.725 86.7129 255.986 84.9841 253.838 84.9841V88.8485L253.94 92.7129C254.759 92.679 255.509 92.4078 256.123 91.9671C257.384 99.7637 259.874 123.018 249.371 142.781C247.462 146.408 245.655 149.764 243.881 152.984C233.993 171.323 227.446 183.459 227.617 194.272C227.617 194.815 228.094 195.289 228.639 195.289C229.219 195.289 229.662 194.815 229.662 194.272C229.526 183.967 235.971 172.035 245.689 153.967C247.428 150.713 249.235 147.391 251.178 143.73C258.032 130.815 259.43 116.577 259.362 106.882Z" fill="#FE7624"/>
<path fill-rule="evenodd" clip-rule="evenodd" d="M195.463 93.1534C195.94 93.4246 196.452 93.5941 197.031 93.628V85.933C195.224 86.1025 193.792 87.4585 193.553 89.2212C193.451 89.3907 193.383 89.5941 193.383 89.7975C193.383 91.3568 193.383 127.865 204.294 144.34C215.444 161.221 218.888 170.848 219.673 187.187C219.707 187.73 220.15 188.17 220.696 188.17H220.73C221.309 188.136 221.719 187.662 221.719 187.119C220.934 170.306 217.422 160.475 205.999 143.221C197.27 130.069 195.736 102.679 195.463 93.1534Z" fill="#FE7624"/>
<path fill-rule="evenodd" clip-rule="evenodd" d="M217.133 76.611C217.677 76.6018 218.13 77.0176 218.17 77.5508L218.173 77.6105L218.54 99.1305L218.556 99.1366C218.63 99.1605 218.712 99.1553 218.825 99.1139L218.875 99.094C219.401 98.8703 220.094 98.1137 220.889 96.6658C221.16 96.1728 221.782 95.9915 222.278 96.2607C222.773 96.5298 222.956 97.1477 222.685 97.6406C220.816 101.043 218.805 101.898 217.199 100.691C216.96 100.512 216.792 100.328 216.685 100.175C216.584 100.03 216.522 99.8614 216.506 99.6865L216.502 99.6111L216.127 77.645C216.118 77.0835 216.568 76.6205 217.133 76.611Z" fill="#2C5D40"/>
<path fill-rule="evenodd" clip-rule="evenodd" d="M227.912 102.337C228.483 101.965 229.252 102.243 229.451 102.891L229.475 102.975C229.5 103.069 229.528 103.193 229.554 103.343C229.765 104.535 229.651 105.853 228.965 107.115C227.823 109.219 225.354 110.59 221.378 110.979C220.816 111.034 220.315 110.626 220.26 110.067C220.204 109.508 220.615 109.01 221.178 108.955C224.526 108.627 226.378 107.599 227.165 106.149C227.359 105.792 227.482 105.421 227.546 105.051L227.568 104.908L227.537 104.925C223.09 107.305 218.648 107.464 216.447 105.016L216.374 104.932C216.007 104.505 216.058 103.863 216.488 103.499C216.918 103.134 217.564 103.185 217.93 103.612C219.513 105.457 223.702 105.076 227.912 102.337Z" fill="#2C5D40"/>
<path fill-rule="evenodd" clip-rule="evenodd" d="M226.447 68.6773C228.679 66.9896 231.329 66.8093 234.188 69.0695C234.63 69.4192 234.703 70.0589 234.351 70.4985C234 70.938 233.356 71.0109 232.914 70.6613C230.846 69.0258 229.22 69.1364 227.686 70.2962C227.478 70.453 227.293 70.6136 227.094 70.8043L226.718 71.1733C226.665 71.2238 226.62 71.2642 226.572 71.3029C226.44 71.4091 226.325 71.4806 226.127 71.53C225.579 71.6662 225.023 71.3349 224.886 70.79C224.783 70.3814 224.945 69.9686 225.264 69.7303L225.308 69.6986L225.532 69.4773C225.839 69.1757 226.117 68.9271 226.447 68.6773Z" fill="#2C5D40"/>
<path fill-rule="evenodd" clip-rule="evenodd" d="M233.553 86.7126C234.494 86.7126 235.257 85.544 235.257 84.1024C235.257 82.6609 234.494 81.4923 233.553 81.4923C232.611 81.4923 231.848 82.6609 231.848 84.1024C231.848 85.544 232.611 86.7126 233.553 86.7126Z" fill="#2C5D40"/>
<path fill-rule="evenodd" clip-rule="evenodd" d="M208.764 87.3568C209.705 87.3568 210.468 86.1881 210.468 84.7466C210.468 83.305 209.705 82.1364 208.764 82.1364C207.822 82.1364 207.059 83.305 207.059 84.7466C207.059 86.1881 207.822 87.3568 208.764 87.3568Z" fill="#2C5D40"/>
<path fill-rule="evenodd" clip-rule="evenodd" d="M204.006 68.3564C206.56 66.3314 209.36 66.2361 211.819 69.3762C212.166 69.8194 212.086 70.4583 211.64 70.8034C211.194 71.1484 210.552 71.0689 210.205 70.6257C208.544 68.506 207.033 68.5574 205.282 69.9463C205.045 70.1343 204.831 70.3261 204.594 70.5563L204.192 70.9551C204.138 71.0077 204.093 71.0492 204.046 71.0879C203.906 71.2035 203.797 71.2744 203.588 71.3265C203.04 71.4627 202.484 71.1315 202.347 70.5866C202.244 70.1779 202.406 69.7652 202.725 69.5269L202.764 69.4989L203.027 69.2366C203.363 68.9028 203.66 68.6307 204.006 68.3564Z" fill="#2C5D40"/>
<path fill-rule="evenodd" clip-rule="evenodd" d="M232.392 46.8149C225.743 46.9166 220.697 47.2217 217.696 47.798C193.281 53.3234 197.237 71.2895 197.237 71.2895C197.237 71.2895 209.171 73.5607 218.889 59.2556C218.889 59.2556 232.222 70.0692 251.965 74.4421C252.272 74.3743 252.647 74.2726 252.988 74.1709V75.1539C254.147 74.8488 256.022 74.5099 257.966 74.6455C257.761 67.5607 256.466 58.6116 250.601 52.8488C246.441 48.7471 240.303 46.7132 232.392 46.8149Z" fill="#2C5D40"/>
<path fill-rule="evenodd" clip-rule="evenodd" d="M218.238 45.6041C222.128 45.067 228.252 44.714 233.529 44.747C244.068 44.858 251.111 48.7184 255.285 55.527C256.929 58.2075 258.075 61.2582 258.847 64.6807C259.416 67.2073 259.722 69.5225 260.009 72.7943C260.058 73.3538 259.641 73.8469 259.078 73.8957C258.516 73.9444 258.02 73.5303 257.971 72.9708L257.916 72.3624C257.28 65.5327 256.189 60.9089 253.538 56.5855C249.737 50.385 243.35 46.8844 233.512 46.7808L232.911 46.7788C227.873 46.7754 222.16 47.1159 218.519 47.6186C217.96 47.6959 217.443 47.3076 217.365 46.7513C217.288 46.1949 217.678 45.6813 218.238 45.6041Z" fill="white"/>
<path fill-rule="evenodd" clip-rule="evenodd" d="M296.463 32.0688C288.04 8.13655 264.171 -5.32108 243.133 2.00096C225.845 8.00096 215.854 26.2043 217.491 45.7637C220.662 45.2213 225.64 44.8823 232.392 44.7806C240.882 44.6789 247.497 46.8823 252.066 51.3908C258.545 57.7637 259.875 67.4247 260.045 74.9501C263.183 75.7976 266.081 78.3399 266.32 84.7467C266.354 85.3908 265.774 90.3738 265.91 90.3399C265.91 91.9332 266.251 93.9332 267.445 95.8993C269.798 99.662 274.571 102.001 281.664 102.815C281.698 102.815 281.732 102.815 281.8 102.815C282.312 102.815 282.755 102.442 282.823 101.933C282.891 101.391 282.482 100.882 281.937 100.815C275.526 100.069 271.23 98.0687 269.218 94.8484C268.4 93.5603 268.093 92.2382 267.99 91.0857C269.729 93.1196 272.764 95.323 277.572 95.323C278.731 95.323 279.993 95.1874 281.357 94.9162C281.903 94.8145 282.278 94.2721 282.141 93.7298C282.039 93.1874 281.493 92.8145 280.948 92.9501C274.742 94.2382 271.298 91.8993 269.491 89.7976C270.889 89.4925 272.253 89.1196 273.617 88.645C294.621 81.2891 304.851 55.9671 296.463 32.0688Z" fill="#2C5D40"/>
<path fill-rule="evenodd" clip-rule="evenodd" d="M235.019 71.3235C227.561 71.3235 221.516 77.3335 221.516 84.7472C221.516 92.1609 227.561 98.1709 235.019 98.1709C242.476 98.1709 248.522 92.1609 248.522 84.7472C248.522 77.3335 242.476 71.3235 235.019 71.3235ZM235.019 73.3575C241.346 73.3575 246.476 78.4569 246.476 84.7474C246.476 91.0378 241.346 96.1372 235.019 96.1372C228.691 96.1372 223.562 91.0378 223.562 84.7474C223.562 78.4569 228.691 73.3575 235.019 73.3575Z" fill="#2C5D40"/>
<path fill-rule="evenodd" clip-rule="evenodd" d="M222.265 83.4254C222.83 83.4254 223.288 83.8807 223.288 84.4423C223.288 84.9839 222.862 85.4266 222.325 85.4576L222.265 85.4593H214.15C213.585 85.4593 213.127 85.004 213.127 84.4423C213.127 83.9007 213.553 83.458 214.09 83.4271L214.15 83.4254H222.265Z" fill="#2C5D40"/>
<path fill-rule="evenodd" clip-rule="evenodd" d="M252.484 73.8959C252.976 73.6196 253.6 73.7919 253.878 74.2809C254.146 74.7517 253.995 75.3444 253.544 75.6345L253.491 75.6666L246.433 79.6327C245.941 79.909 245.317 79.7367 245.039 79.2478C244.771 78.7769 244.922 78.1842 245.373 77.8941L245.426 77.862L252.484 73.8959Z" fill="#2C5D40"/>
<path fill-rule="evenodd" clip-rule="evenodd" d="M201.261 71.3233C193.803 71.3233 187.758 77.3333 187.758 84.747C187.758 92.1607 193.803 98.1707 201.261 98.1707C208.718 98.1707 214.764 92.1607 214.764 84.747C214.764 77.3333 208.718 71.3233 201.261 71.3233ZM201.261 73.3574C207.588 73.3574 212.718 78.4568 212.718 84.7472C212.718 91.0376 207.588 96.137 201.261 96.137C194.933 96.137 189.804 91.0376 189.804 84.7472C189.804 78.4568 194.933 73.3574 201.261 73.3574Z" fill="#2C5D40"/>
<path fill-rule="evenodd" clip-rule="evenodd" d="M287.087 226.373H279.994L276.516 175.085C276.278 171.492 273.141 168.577 269.526 168.577H170.675C167.061 168.577 164.299 171.492 164.571 175.085L168.424 231.865C168.663 235.458 171.8 238.373 175.415 238.373L287.053 238.238C289.099 238.238 290.735 236.577 290.735 234.577V230.068C290.769 228.034 289.133 226.373 287.087 226.373Z" fill="#FE7624"/>
<path fill-rule="evenodd" clip-rule="evenodd" d="M227.074 202.509C225.676 201.018 223.801 200.069 221.823 199.696C222.13 199.255 222.335 198.713 222.403 198.136C222.573 196.306 221.244 194.611 219.471 194.34C219.436 194.34 219.402 194.34 219.368 194.34C218.993 192.95 218.277 190.645 217.459 189.662C217.152 189.289 216.572 189.153 216.163 189.391C215.788 189.628 215.72 190.102 216.027 190.475C216.572 191.119 217.22 193.119 217.629 194.645C216.709 195.119 216.061 196.035 215.958 197.187C215.856 198.238 216.265 199.221 216.913 199.933C216.299 200.136 215.72 200.374 215.174 200.713C211.628 202.916 211.185 207.255 214.185 210.475C217.186 213.662 222.539 214.475 226.086 212.272C229.666 210.069 230.109 205.696 227.074 202.509Z" fill="white"/>
<path fill-rule="evenodd" clip-rule="evenodd" d="M225.574 189.492C225.574 189.492 220.459 188.475 219.777 192.713C219.811 192.713 223.835 194.136 225.574 189.492Z" fill="white"/>
<path fill-rule="evenodd" clip-rule="evenodd" d="M416.966 238.374C417.531 238.374 417.989 238.829 417.989 239.391C417.989 239.932 417.563 240.375 417.026 240.406L416.966 240.408H1.27295C0.707991 240.408 0.25 239.952 0.25 239.391C0.25 238.849 0.675861 238.406 1.21284 238.376L1.27295 238.374H416.966Z" fill="#2C5D40"/>
</svg>
